<?xml version="1.0" encoding="UTF-8"?>
<svg id="_圖層_1" data-name=" 圖層 1" xmlns="http://www.w3.org/2000/svg" viewBox="0 0 551.11 172.29">
  <defs>
    <style>
      .cls-1 {
        fill: #646464;
      }
    </style>
  </defs>
  <g>
    <path class="cls-1" d="m173.43,126.27c0-2.76-.58-3.51-2.69-3.51h-2.69v1.03h.79c1.41,0,1.66.84,1.66,2.48v14.95h12.6v-1.57h-9.67v-13.37h0Z"/>
    <path class="cls-1" d="m202.39,137.48l-6.05-14.72h-1.14l-7.83,18.46h1.75l2.18-5.17h7.3l.62,1.61c1.13,3.06,3.27,3.7,4.86,3.7.4,0,.81-.05,1.15-.14l.18-.05v-.95l-.22-.02c-1.37-.12-1.92-.65-2.79-2.71h0Zm-4.54-3.02h-5.94l3.03-7.03,2.91,7.03Z"/>
    <path class="cls-1" d="m239.97,136.35v-13.59h-2.85l-6.25,13.82-6.38-13.82h-2.99v18.46h1.57v-14.52l6.68,14.52h.86l6.41-14.23v9.36c0,3.76.88,6.1,5.28,6.1h.24v-1.03h-.24c-1.94,0-2.34-2.76-2.34-5.07h.01Z"/>
    <path class="cls-1" d="m262.04,137.48l-6.05-14.72h-1.14l-7.83,18.46h1.75l2.18-5.17h7.3l.62,1.61c1.13,3.06,3.27,3.7,4.86,3.7.4,0,.81-.05,1.15-.14l.18-.05v-.95l-.22-.02c-1.37-.12-1.92-.65-2.79-2.71h0Zm-4.54-3.02h-5.94l3.03-7.03,2.91,7.03Z"/>
    <path class="cls-1" d="m273.28,137.71v-14.95h-2.94v14.95c0,2.76.58,3.51,2.69,3.51h2.69v-1.03h-.79c-1.41,0-1.66-.84-1.66-2.48h.01Z"/>
    <path class="cls-1" d="m290.1,131.7l-3.35-1.99c-2.01-1.18-2.9-1.95-2.9-3.36,0-1.57,1.48-2.51,2.92-2.51,3.07,0,4.56,1.42,5.15,4.89l.03.2h.94v-3.16c0-2.17-3.18-3.51-6.13-3.51-3.31,0-5.53,1.96-5.53,4.87,0,2.12.9,3.45,3.31,4.89l3.35,1.99c2.12,1.25,2.88,2.18,2.88,3.55,0,1.74-1.72,2.54-3.32,2.54-3.08,0-4.64-1.48-5.23-4.95l-.03-.2h-.94v3.16c0,2.2,3.35,3.57,6.45,3.57,3.59,0,5.91-2.07,5.91-5.28,0-2.2-1.18-3.31-3.5-4.7h-.01Z"/>
    <path class="cls-1" d="m308.31,122.21c-5.11,0-8.68,4.02-8.68,9.77s3.57,9.77,8.68,9.77,8.69-4.02,8.69-9.77-3.57-9.77-8.69-9.77Zm0,17.97c-3.38,0-5.48-3.14-5.48-8.2s2.1-8.2,5.48-8.2,5.48,3.14,5.48,8.2-2.1,8.2-5.48,8.2Z"/>
    <path class="cls-1" d="m336.91,135.79l-9.1-11.31c-1-1.19-2.19-1.72-3.86-1.72h-2.01v1.03h.51c1.55,0,2.21.74,2.21,2.48v14.95h1.57v-13.85l11.35,14.12h.9v-18.73h-1.57v13.03h0Z"/>
    <path class="cls-1" d="m363.11,122.76h-7.38v1.03h.79c1.41,0,1.66.84,1.66,2.48v14.95h5.64c6.31,0,10.24-3.58,10.24-9.34s-3.89-9.12-10.95-9.12Zm7.49,9.23c0,4.59-2.82,7.79-6.87,7.79-.76,0-1.61-.1-2.54-.31v-14.9c.84-.24,1.72-.37,2.48-.37,4.07,0,6.92,3.2,6.92,7.79h0Z"/>
    <path class="cls-1" d="m394.18,133.21c0,4.89-1.43,6.7-5.29,6.7-3.17,0-4.58-1.81-4.58-5.88v-7.76c0-2.76-.58-3.51-2.69-3.51h-2.69v1.03h.79c1.41,0,1.66.84,1.66,2.48v6.94c0,5.88,2.08,8.28,7.19,8.28,5.98,0,7.19-3.17,7.19-8.28v-10.46h-1.57v10.46h-.01Z"/>
    <path class="cls-1" d="m412.95,125.18v2.29h1.03v-.24c0-1.94,1.03-2.89,3.16-2.89h2.21v16.88h2.94v-16.88h6.13v-1.57h-12.91c-1.67,0-2.56.84-2.56,2.42h0Z"/>
    <path class="cls-1" d="m447.09,136.8c-.8,2.07-2,2.84-4.4,2.84h-4.52v-7.14h7.35v-1.57h-7.35v-6.6h4.82c2.13,0,3.16.94,3.16,2.89v.24h1.03v-2.29c0-1.58-.88-2.42-2.56-2.42h-11.84v1.03h.79c1.41,0,1.66.84,1.66,2.48v14.95h9.64c1.13,0,1.92-.53,2.27-1.52l1.05-2.84-1.01-.25-.08.2h-.01Z"/>
    <path class="cls-1" d="m465.77,137.17l-2.69-4.48c2.84-.74,4.22-2.32,4.22-4.81,0-4.62-4.93-5.12-7.05-5.12h-7.32v1.03h.79c1.41,0,1.66.84,1.66,2.48v14.95h2.94v-8.31h1.52l2.65,4.51h0c1.8,3.04,3.08,4.07,5.08,4.07.77,0,1.45-.15,1.76-.29l.14-.06v-.92l-.22-.02c-1.19-.12-2.05-.62-3.49-3.02h0Zm-7.45-12.77c.52-.12,1.23-.22,1.72-.22,1.32,0,4.06.89,4.06,3.65s-2.74,3.62-4.06,3.62h-1.72s0-7.05,0-7.05Z"/>
    <path class="cls-1" d="m486.06,137.17l-2.69-4.48c2.84-.74,4.22-2.32,4.22-4.81,0-4.62-4.93-5.12-7.05-5.12h-7.32v1.03h.79c1.41,0,1.66.84,1.66,2.48v14.95h2.94v-8.31h1.52l2.65,4.51h0c1.8,3.04,3.08,4.07,5.08,4.07.77,0,1.45-.15,1.76-.29l.14-.06v-.92l-.22-.02c-1.19-.12-2.05-.62-3.49-3.02h0Zm-7.45-12.77c.52-.12,1.23-.22,1.72-.22,1.32,0,4.06.89,4.06,3.65s-2.74,3.62-4.06,3.62h-1.72s0-7.05,0-7.05Z"/>
    <path class="cls-1" d="m503.01,122.21c-5.11,0-8.68,4.02-8.68,9.77s3.57,9.77,8.68,9.77,8.69-4.02,8.69-9.77-3.57-9.77-8.69-9.77Zm0,17.97c-3.38,0-5.48-3.14-5.48-8.2s2.1-8.2,5.48-8.2,5.48,3.14,5.48,8.2-2.1,8.2-5.48,8.2Z"/>
    <path class="cls-1" d="m521.91,137.71v-14.95h-2.94v14.95c0,2.76.58,3.51,2.69,3.51h2.69v-1.03h-.79c-1.41,0-1.66-.84-1.66-2.48h0Z"/>
    <path class="cls-1" d="m545.17,140.19c-1.19-.12-2.05-.62-3.49-3.02l-2.69-4.48c2.84-.74,4.22-2.32,4.22-4.81,0-4.62-4.93-5.12-7.05-5.12h-7.32v1.03h.79c1.41,0,1.66.84,1.66,2.48v14.95h2.94v-8.31h1.52l2.65,4.51h0c1.8,3.04,3.08,4.07,5.08,4.07.77,0,1.45-.15,1.76-.29l.14-.06v-.92l-.22-.02h0Zm-10.95-15.78c.52-.12,1.23-.22,1.72-.22,1.32,0,4.06.89,4.06,3.65s-2.74,3.62-4.06,3.62h-1.72v-7.05Z"/>
  </g>
  <g>
    <path class="cls-1" d="m543.77,37.38c-1.73-1.91-2.8-2.87-3.22-2.87-.28,0-.77.41-1.47,1.23-.33.34-.56.58-.7.73l-1.61,1.96h-17.93v-4.06l1.12-.8c.7-.48.65-.94-.14-1.38-1.03-.58-3.46-1.33-7.71-2.35.33,2.23.28,5.06.28,8.59h-18c-.19-1.21-.54-2.47-1.05-3.77l-.98.07c.14,1.74-.26,3.41-1.19,5.01-.84,1.45-1.91,2.52-3.22,3.19-2.15,1.11-2.97,2.66-2.45,4.64.33,1.06,1.02,1.74,2.07,2.03,1.05.29,2.11.15,3.19-.44,1.17-.63,2.1-1.64,2.8-3.05.75-1.6,1.1-3.01,1.05-5.14h13.8c-1.16,3.58-3.24,7.87-5.29,10.32-2.49-.13-5.01-.36-7.45-.14-1.49.16-3.06.39-4.29,1.32-3.22,2.21-2.17,7.15,1.97,7.14,3.78-.1,7.75-1.89,11.07-4.38.05-.03.07-.04.07-.04,1.29-.75,2.54-1.86,3.71-3.18,2.83-.52,5.42-1.64,7.72-4.02.31-.38.68-.9.95-1.32-.64.86-1.37,1.69-2.3,2.23-1.77,1.32-3.67,1.97-5.64,2.26,2.35-2.91,4.33-6.67,5.59-10.17h6.16l-.29,10.6c-.06,2.2.27,3.68.98,4.45.75.82,2.38,1.26,4.87,1.33l5.7.16c4.45.12,7.44-.04,8.96-.5,1.4-.41,2.12-1.26,2.15-2.56.03-1.1-.62-1.96-1.95-2.6l.62-4.29-1.08.31c-.83,2.02-1.76,3.46-2.18,3.9-.25.24-.71.41-1.36.49-.53.04-2,.02-4.41-.05l-4.96-.14c-.86-.02-1.39-.11-1.59-.27s-.29-.46-.28-.91l-.06-9.92h11.02c-.33,1.51-1.08,3.12-2.01,5.83l.63.44c3.13-1.4,5.91-3.22,8.33-5.44,1.35-.1,4.11.25,4.49-.19,0-.53-2.76-2.36-4.49-4.27v.02Zm-52.09,18.09c.12-.76.77-1.43,1.44-1.82.38-.24.84-.4,1.27-.51,2.49-.68,5.07-.67,7.65-.69-1.53,1.45-3.39,2.74-5.58,3.87-.25.1-.49.2-.75.29-.98.33-2.4.73-3.34.41-.53-.26-.81-.97-.7-1.55h.01Z"/>
    <path class="cls-1" d="m541.45,83.24c0-.47-1.34-1.35-3.11-2.55-1.77-1.2-2.9-1.8-3.38-1.8-.29,0-.75.34-1.38,1.03-.24.26-.44.45-.58.58l-1.38,1.61h-29.55l-7.33-2.78c-.2-.08-.41.07-.38.25.43,2.51.65,5.68.65,9.53v3.21c-.05.43-.07.99-.07,1.67-.1,1.5-.2,2.12-.29,2.93,0,.86.48,1.28,1.46,1.28,1.41,0,2.69-.19,3.86-.58.92-.34,1.38-.64,1.38-.9v-1.71h30.49v3.21h1.16c1.22.02,5.51.25,5.79-.14.02-1.24-.24-4.66-.33-7.05-.05-1.03-.07-1.88-.07-2.57v-4.17c1.21-.21,2.54-.53,3.08-1.04h-.02Zm-9.63,9.55h-30.49v-8.21h30.49v8.21Z"/>
    <path class="cls-1" d="m539.47,70.3c-.38,0-.73.15-.99.42l-2.44,2.61h-17.13v-6.21h17.55l-4.74-5.36c-.24-.27-.58-.43-.94-.43s-.7.14-.95.4l-2.24,2.4h-8.68v-3.58l1.45-1.55c.16-.18.24-.42.19-.66-.04-.24-.2-.44-.42-.55l-6.35-3.08.08,1.25c.15,2.23.23,4.98.24,8.17h-8l.64-1.02,2.84-1.52-6.77-4.34-.17,1.1c-.31,1.99-.94,4.18-1.87,6.49-.93,2.32-2.19,4.68-3.76,7.02l-.39.59,1.23.88h-11.24l3.61,3.85.43-.13c1.68-.49,3.54-.74,5.53-.74h49.2l-4.94-5.57c-.25-.28-.61-.44-.98-.45h0Zm-40.64,3.03c2.29-2.12,4.18-4.2,5.62-6.2h9.66v6.21h-15.29.02,0Z"/>
    <path class="cls-1" d="m198.76,59.96h23.33c1.13,0,1.8-.42,2-1.25v-.03c0-.37-.34-1.14-3.28-3.68-2.93-2.52-3.7-2.82-4.01-2.82-.23,0-.64.21-1.84,1.84-.32.43-.55.74-.69.93l-1.81,2.65h-14.89c.49-4.28.78-10.49.87-18.46h25.64c1.13,0,1.8-.42,2-1.25v-.03c0-.37-.34-1.15-3.35-3.75-3-2.59-3.77-2.89-4.08-2.89-.23,0-.64.23-1.84,1.99l-.09.13c-.23.32-.4.56-.53.73l-1.81,2.72h-39.45c-3.55-.09-6.63-.29-9.13-.57l-.27-.03,2.03,3.97.11-.02c3.6-.61,7.06-.95,10.29-1h13.12v1.92c-.09,7.52-.29,13.08-.61,16.54h-13.13c-3.55-.09-6.62-.29-9.13-.57l-.26-.03,1.88,3.97.11-.02c3.6-.61,7.06-.95,10.29-1h10.01c-.91,7.48-2.84,13.43-6.07,18.7-2.49,4.07-2.98,4.45-3.06,4.49,0,0,.04-.01.08,0l-.06.11-.15.03v.16c-1.54,1.88-3.2,3.77-5.02,5.45-.06-.02-.12-.05-.18-.07-5.4-2.1-15.25-4.27-17.12,3.38-.64,3.03,2,5.49,4.81,5.87,1.82.28,3.36.04,5.04-.29,1.03-.23,2.09-.55,3.07-.94,2.76-1.07,5.25-2.66,7.54-4.52,2.19.97,4.5,1.95,6.68,2.75,2.77,1.02,5.67,1.81,8.64,1.72,1.93-.03,3.94.02,5.81-.58.93-.3,1.82-.72,2.62-1.26-.84.48-1.75.84-2.68,1.06-1.89.46-3.82.27-5.74.17-1.9-.1-3.77-.49-5.55-1.16-2.71-1-5.28-2.28-7.85-3.6-.18-.09-.36-.19-.55-.29.84-.74,1.65-1.51,2.43-2.29,5.2-4.94,9.32-11.12,11.74-17.89,0,0-.03,0-.08-.03,1.24-3.31,2.13-6.97,2.65-10.99h.02c2.38,15.77,12.43,29.71,26.9,37.32l.18.1.03-.21c.45-3.33,4.17-5.5,7.44-6.1l.53-.1-2.21-.8c-16.78-6.35-28.5-17.63-31.39-30.21l.02.03Zm-29.98,33.63c-1.52.55-3.19,1.03-4.81.92-2.37-.28-2.68-1.71-1.4-3.48,1.58-1.8,4.83-1.66,7.08-1.47,1.52.16,3.04.46,4.52.88-1.65,1.3-3.43,2.4-5.39,3.15h0Z"/>
    <path class="cls-1" d="m306.07,89.55l-.21-10.78h-.77c-1.35,5.78-2.39,9.27-3.13,10.49-.42.68-1.14,1.04-2.16,1.09-1.35.19-4.13.29-8.35.29h-9.46c-1.81,0-3.06-.22-3.76-.66-.6-.44-.9-1.19-.9-2.26v-29.13l7.24-2.91v10.05c-.09,5.73-.3,11.48-.63,17.26-.05.53-.07.95-.07,1.24,0,.39.17.73.52,1.02.35.29.78.44,1.29.44,1.07,0,2.18-.29,3.34-.87,1.07-.53,1.74-1.09,2.02-1.67-.28-5.39-.46-11.09-.56-17.11v-12.74l8.21-3.28c-.09,8.06-.28,13.76-.56,17.11-.23,3.54-.65,5.63-1.25,6.26-.28.44-.83.66-1.67.66-1.21,0-2.64-.1-4.31-.29v1.16c1.58.44,2.69,1.09,3.34,1.97.46.58.7,2.06.7,4.44,2.74,0,4.87-.8,6.4-2.4,1.25-1.26,2.11-3.81,2.57-7.65.46-3.79.74-10.53.84-20.24,1.21-.19,2.04-.58,2.5-1.17,0-.53-.86-1.65-2.57-3.35-1.72-1.7-2.78-2.55-3.2-2.55-.28,0-.77.46-1.46,1.38-.23.29-.42.51-.56.66l-1.46,1.97h.07l-.63.22-6.96,2.84v-15.61l1.18-.8c.7-.48.7-.97,0-1.46-1.02-.58-3.6-1.43-7.72-2.55.42,2.96.63,6.63.63,11v11.83l-7.24,2.91v-15.1l1.18-.8c.7-.48.67-.97-.07-1.46-.97-.63-3.57-1.53-7.79-2.69.42,2.91.63,7.7.63,11.97v10.49l-8.56,3.5,1.25,1.75,7.31-2.91v28.33c0,3.06.74,5.12,2.23,6.19,1.39,1.02,4.04,1.53,7.93,1.53h9.6c7.19,0,12.01-.34,14.47-1.02,2.32-.63,3.48-1.82,3.48-3.57,0-1.21-.97-2.21-2.92-2.99v-.03Z"/>
    <path class="cls-1" d="m259.49,79.21v-22.14h8.14c1.07,0,1.62-.39,1.67-1.16,0-.53-.77-1.72-2.3-3.57-1.53-1.84-2.5-2.77-2.92-2.77-.28,0-.77.63-1.46,1.89-.23.34-.39.61-.49.8l-1.39,2.69h-1.25v-17.65l1.25-.8c.74-.48.72-.95-.07-1.38-1.07-.58-3.76-1.43-8.07-2.55.6,3.84.9,10.01.9,16.12v6.26h-2.57c-2.18-.1-4.04-.29-5.57-.58l1.74,3.71c1.39-.63,2.74-.97,4.04-1.02h2.37v24.61c-4.13,1.6-6.94,2.62-8.42,3.06l3.34,8.23c.74-.34,1.23-1.04,1.46-2.11,5.15-3.59,11.11-8.18,17.88-13.76.56-.48.97-.85,1.25-1.09l-.35-.8c-3.57,1.6-6.63,2.94-9.19,4h.01Z"/>
    <path class="cls-1" d="m368.21,68.41c-3.88-7.82-6.25-19.09-7.06-33.5l1.08-.74c.48-.34.71-.64.72-.92,0-.17-.08-.33-.25-.47-.48-.36-1.74-.55-3.83-.6l-6.06-1.38.03.21c.69,4.48,1.42,9.68,1.2,14.78-.2,4.61-.64,8.91-1.32,12.89l-.11-.02c-.4,2.81-1.01,5.6-1.81,8.34-.07.25-.15.5-.22.74-.02.08-.05.16-.07.23-.44,1.4-.92,2.74-1.44,4.02-3.07,7.46-7.9,14.18-14.4,20.04-3.02,2.25-6.63,3.76-10.47,3.57-2.44-.07-4.76-1.25-6.43-3.04.75,1,1.67,1.87,2.75,2.55,2.18,1.39,4.91,1.68,7.45,1.42,1.9-.17,3.74-.71,5.48-1.47h.04l.03-.02s.03-.02.05-.03c1.19-.53,2.33-1.17,3.41-1.87,1.16-.7,2.29-1.48,3.37-2.31,6.32-4.45,10.35-9.35,14.04-16.64,1.93-3.82,3.45-8.27,4.54-13.29.08-.3.17-.6.25-.9h-.05c.67-3.29,1.17-6.82,1.48-10.57,1.01,11.31,3.07,20.52,6.13,27.4,3.54,8.17,9.93,15.17,18.46,20.25l.17.1.04-.19c.9-3.9,6.6-5.48,9.01-5.98l.52-.11-3.95-1.37c-10.25-4.04-17.91-11.15-22.78-21.14v.02Z"/>
    <path class="cls-1" d="m466.08,33.85c-1.9-1.76-3.09-2.64-3.55-2.64-.33,0-.9.64-1.74,1.92-.23.29-.39.5-.49.64l-1.67,2.57h-25.68c-3.62-.09-6.7-.29-9.26-.57l1.81,3.64c2.78-.62,5.43-.95,7.93-1h4.31v10.34h-4.38l-7.38-3.07c.6,3.76.9,8.63.9,14.62v16.68c-.09,6.23-.35,12.41-.77,18.54,0,.38.17.71.52,1,.35.29.75.43,1.22.43,1.3,0,2.46-.24,3.48-.71.88-.48,1.39-.95,1.53-1.43-.05-.33-.12-.88-.21-1.64,0-.52-.02-.95-.07-1.28v-1.64h26.58v2.14c-.05.33-.09.74-.14,1.21-.05.67-.09,1.16-.14,1.5,0,.95.42,1.43,1.25,1.43,1.34,0,2.57-.26,3.69-.78.93-.43,1.55-.9,1.88-1.43-.28-5.28-.46-10.86-.56-16.75v-26.09c1.25-.24,2.18-.71,2.78-1.43,0-.52-.86-1.48-2.57-2.89-1.72-1.4-2.81-2.1-3.27-2.1-.28,0-.74.4-1.39,1.21-.23.29-.39.5-.49.64l-1.32,1.85h-6.19v-10.34h14.4c1.02,0,1.62-.38,1.81-1.14,0-.52-.95-1.66-2.85-3.42h.03Zm-22.52,4.55h4.59v10.34h-4.59v-10.34Zm-10.37,12.41h5.15v1.35c0,4.52-.26,8.06-.77,10.62-.79,3.61-2.25,6.66-4.38,9.13v-21.1Zm26.58,36.78h-26.58v-9.04h26.58v9.04Zm-6.47-36.78h6.47v12.62c-.19.05-.49.07-.9.07h-4.38c-.46,0-.78-.08-.94-.25s-.24-.49-.24-.96v-11.48h-.01Zm-.35,18.04h3.2c1.11,0,2.32-.05,3.62-.14v7.34h-26.58v-2.92l.21.21c4.18-2.42,7.03-5.66,8.56-9.7,1.07-2.85,1.6-6.7,1.6-11.55v-1.28h4.59v13.12c0,1.9.28,3.16.84,3.78.65.76,1.97,1.14,3.97,1.14h-.01Z"/>
    <path class="cls-1" d="m414.6,43.43c1.48.9,2.81.97,3.97.21,1.11-.76,1.6-1.9,1.46-3.42-.14-1.66-1.07-3.16-2.78-4.49-2.09-1.57-5.03-2.59-8.84-3.07l-.56.57c1.44,1.38,2.76,2.92,3.97,4.63,1.39,2,2.32,3.85,2.78,5.56h0Z"/>
    <path class="cls-1" d="m421.5,57.3c-1.73,3.45-3.49,6.89-5.38,10.28-1.23,2.21-2.29,4.57-4.05,6.47-.49.53-.96,1.12-1.65,1.47-.42.21-.84.26-1.11.27-.58-.08-1.33-.15-1.91-.23-.05.59-.15,1.24-.25,1.77,1.31.27,2.3.8,2.66,1.04,1.39.9,2.12,3.04,2.18,4.66.1,2.74-1,5.43-1.47,8.1-.35,1.96-.38,4.29,1.37,5.63.59.45,1.36.64,1.53.68.4.1,1.72.41,3.11-.25.27-.13.92-.45,1.43-1.1.92-1.19.79-2.74.73-3.42-.6-6.08-2.9-10.02-2.15-14.75.24-1.52,1.11-5.11,1.83-7.36.11-.36.23-.71.23-.71.29-.84.62-1.63,1.66-4.35,1.38-3.62,2.3-6.11,3-8.02,0,0-1.5-.61-1.51-.61-.24.48.02-.04-.22.44h-.03Z"/>
    <path class="cls-1" d="m410.15,54.24c1.21,1.85,1.95,3.59,2.23,5.2,1.39,1,2.67,1.17,3.83.5,1.11-.62,1.65-1.66,1.6-3.14-.05-1.62-.86-3.07-2.44-4.35-1.9-1.57-4.66-2.61-8.28-3.14l-.63.57c1.39,1.24,2.62,2.69,3.69,4.35h0Z"/>
  </g>
  <g>
    <path class="cls-1" d="m36.14,139.55c0-16.13-.15-34.43-.15-50.56v-24.45h.24c.12,0,.42,1.01.45,1.11.29.78.57,1.56.84,2.35,1.69,4.8,3.2,9.61,5.17,14.31l.03.07c.66,1.57,1.32,3.13,1.97,4.7,1.69,4.1,3.29,8.22,4.71,12.4,2.54,7.47,4.09,14.91,4.71,22.72.31,3.91.45,7.84.5,11.76.03,1.7.04,3.4.04,5.09v.63s7.71,0,7.71,0c.06-1.45.1-2.9.12-4.35.05-2.9.05-5.8,0-8.7-.17-7.96-1.3-15.89-3.39-23.6-2-7.35-4.82-14.5-8.33-21.34-5.56-10.83-9.49-22.15-11.48-34.01-.58-3.48-.61-13.22-.68-13.63h-11.17c0,.07-.03,5.32-.16,7-.13,1.72-.32,3.43-.53,5.14-.94,7.76-2.7,15.62-5.67,22.93-2.91,7.16-6.68,13.96-9.63,21.1-3.06,7.39-5.29,15.06-6.7,22.88-.54,2.99-.93,6-1.2,9.01-.28,2.99-.47,5.99-.55,8.98-.04,1.35-.07,2.69-.1,4.04l-.03,1.92c-.02,1.14,0,2.5,0,2.5,10.91-.06,22.25-.05,33.27-.02l.02.03Z"/>
    <path class="cls-1" d="m89.7,34.29c0,16.13.15,34.43.15,50.56v24.45h-.24c-.12,0-.42-1.01-.45-1.11-.29-.78-.57-1.56-.84-2.35-1.69-4.8-3.2-9.61-5.17-14.31l-.03-.07c-.66-1.57-1.32-3.13-1.97-4.7-1.69-4.1-3.29-8.22-4.71-12.4-2.54-7.47-4.09-14.91-4.71-22.72-.31-3.91-.45-7.84-.5-11.76-.03-1.7-.04-3.4-.04-5.09v-.63s-7.71,0-7.71,0c-.06,1.45-.1,2.9-.12,4.35-.05,2.9-.05,5.8,0,8.7.17,7.96,1.3,15.89,3.39,23.6,2,7.35,4.82,14.5,8.33,21.34,5.56,10.83,9.49,22.15,11.48,34.01.58,3.48.61,13.22.68,13.63h11.17c0-.07.03-5.32.16-7,.13-1.72.32-3.43.53-5.14.94-7.76,2.7-15.62,5.67-22.93,2.91-7.16,6.68-13.96,9.63-21.1,3.06-7.39,5.29-15.06,6.7-22.88.54-2.99.93-6,1.2-9.01.28-2.99.47-5.99.55-8.98.04-1.35.07-2.69.1-4.04.01-.64.02-1.28.03-1.92.02-1.14,0-2.5,0-2.5-10.91.06-22.25.05-33.27.02l-.02-.03Z"/>
  </g>
</svg>