<svg fill="#dc372d" height="512" viewBox="0 0 64 64" width="512" xmlns="http://www.w3.org/2000/svg"><g id="Layer_4" data-name="Layer 4"><path d="m32 2.5a29.5 29.5 0 1 0 29.5 29.5 29.53 29.53 0 0 0 -29.5-29.5zm0 56a26.5 26.5 0 1 1 26.5-26.5 26.53 26.53 0 0 1 -26.5 26.5z"/><path d="m32 12.32a5.91 5.91 0 0 0 -5.9 6.39l1.4 17.74a4.51 4.51 0 0 0 9 0l1.4-17.74a5.91 5.91 0 0 0 -5.9-6.39zm1.51 23.89a1.51 1.51 0 0 1 -3 0l-1.4-17.74a2.92 2.92 0 1 1 5.82 0z"/><path d="m32 43.11a4.29 4.29 0 1 0 4.29 4.28 4.29 4.29 0 0 0 -4.29-4.28zm0 5.57a1.29 1.29 0 1 1 1.29-1.29 1.29 1.29 0 0 1 -1.29 1.29z"/></g></svg>