<?xml version="1.0" encoding="UTF-8"?>
<svg id="_圖層_1" data-name="圖層 1" xmlns="http://www.w3.org/2000/svg" viewBox="0 0 500 30">
  <defs>
    <style>
      .cls-1 {
        fill: #736635;
      }
    </style>
  </defs>
  <path class="cls-1" d="m11.49,6.92c0-3.45-.8-4.51-3.45-4.51h-3.45v1.33h1.06c1.86,0,2.12,1.06,2.12,3.18v19.35h16.43v-1.86h-12.46l-.27-17.49h0Z"/>
  <path class="cls-1" d="m49.12,21.76l-7.95-19.08h-1.33l-10.07,23.85h2.12l2.92-6.63h9.54l.8,2.12c1.59,3.98,4.24,4.77,6.36,4.77.53,0,1.06,0,1.59-.27h.27v-1.06h-.27c-2.12-.53-2.92-1.06-3.98-3.71Zm-5.83-3.98h-7.95l3.98-9.28,3.98,9.28Z"/>
  <path class="cls-1" d="m97.88,20.17V2.41h-3.71l-8.22,18.02-8.22-18.02h-3.71v23.85h1.86V7.45l8.75,19.08h1.06l8.48-18.55v12.19c0,5.04,1.06,7.95,6.89,7.95h.27v-1.33h-.27c-2.65,0-3.18-3.71-3.18-6.63Z"/>
  <path class="cls-1" d="m126.5,21.76l-7.95-19.08h-1.33l-10.07,23.85h2.12l2.92-6.63h9.54l.8,2.12c1.59,3.98,4.24,4.77,6.36,4.77.53,0,1.06,0,1.59-.27h.27v-1.06h-.27c-2.12-.53-2.65-1.06-3.98-3.71Zm-5.83-3.98h-7.95l3.98-9.28,3.98,9.28Z"/>
  <path class="cls-1" d="m141.08,22.02V2.68h-3.71v19.35c0,3.45.8,4.51,3.45,4.51h3.45v-1.33h-1.06c-1.59,0-2.12-1.06-2.12-3.18Z"/>
  <path class="cls-1" d="m163.07,14.07l-4.24-2.65c-2.65-1.59-3.71-2.65-3.71-4.51,0-2.12,1.86-3.18,3.71-3.18,3.98,0,5.83,1.86,6.63,6.36v.27h1.06v-3.98c0-2.92-4.24-4.51-7.95-4.51-4.24,0-7.16,2.65-7.16,6.36,0,2.65,1.06,4.51,4.24,6.36l4.24,2.65c2.65,1.59,3.71,2.92,3.71,4.77,0,2.39-2.39,3.45-4.24,3.45-3.98,0-6.1-1.86-6.89-6.36v-.27h-.8v3.98c0,2.92,4.24,4.51,8.48,4.51,4.77,0,7.69-2.65,7.69-6.89-.27-3.18-1.86-4.51-4.77-6.36Z"/>
  <path class="cls-1" d="m186.66,1.88c-6.63,0-11.13,5.3-11.13,12.72s4.51,12.72,11.13,12.72,11.13-5.3,11.13-12.72c.27-7.69-4.51-12.72-11.13-12.72Zm7.16,12.72c0,6.63-2.65,10.6-7.16,10.6s-7.16-3.98-7.16-10.6,2.65-10.6,7.16-10.6,7.16,3.98,7.16,10.6Z"/>
  <path class="cls-1" d="m224.03,19.64l-11.93-14.84c-1.33-1.59-2.92-2.12-5.04-2.12h-2.65v1.33h.53c2.12,0,2.92,1.06,2.92,3.18v19.35h2.12V8.51l14.84,18.55h1.06V2.68h-1.86v16.96Z"/>
  <path class="cls-1" d="m257.95,2.41h-9.54v1.33h1.06c1.86,0,2.12,1.06,2.12,3.18v19.35h7.42c8.22,0,13.25-4.77,13.25-12.19,0-7.42-5.04-11.66-14.31-11.66Zm9.81,12.19c0,6.1-3.71,10.07-9.01,10.07-1.06,0-2.12-.27-3.45-.53V4.8c1.06-.27,2.39-.53,3.18-.53,5.57,0,9.28,4.24,9.28,10.34Z"/>
  <path class="cls-1" d="m298.5,16.19c0,6.36-1.86,8.75-6.89,8.75-4.24,0-6.1-2.39-6.1-7.69V7.18c0-3.45-.8-4.51-3.45-4.51h-3.45v1.33h1.06c1.86,0,2.12,1.06,2.12,3.18v9.01c0,7.69,2.65,10.6,9.28,10.6,7.69,0,9.28-3.98,9.28-10.6V2.68h-1.86v13.52Z"/>
  <path class="cls-1" d="m322.88,5.59v2.92h1.33v-.27c0-2.65,1.33-3.71,4.24-3.71h2.92v22h3.71V4.53h7.95v-1.86h-16.7c-2.39-.27-3.45.8-3.45,2.92Z"/>
  <path class="cls-1" d="m367.14,20.7c-1.06,2.65-2.65,3.71-5.83,3.71h-5.83v-9.28h9.54v-1.86h-9.54V4.53h6.36c2.92,0,4.24,1.33,4.24,3.71v.27h1.33v-2.92c0-2.12-1.06-3.18-3.18-3.18h-15.37v1.33h1.06c1.86,0,2.12,1.06,2.12,3.18v19.35h12.46c1.33,0,2.39-.8,2.92-1.86l1.33-3.71h-1.59Z"/>
  <path class="cls-1" d="m391.25,21.23l-3.45-5.83c3.71-1.06,5.57-2.92,5.57-6.36,0-6.1-6.36-6.63-9.01-6.63h-9.54v1.33h1.06c1.86,0,2.12,1.06,2.12,3.18v19.35h3.71v-10.87h2.12l3.45,5.83c2.39,3.98,3.98,5.3,6.63,5.3,1.06,0,1.86-.27,2.39-.27h.27v-1.06h-.27c-1.86-.27-3.18-.8-5.04-3.98Zm-2.12-12.19c0,3.71-3.71,4.77-5.3,4.77h-2.39V4.53c.8-.27,1.59-.27,2.39-.27,1.86,0,5.3,1.33,5.3,4.77Z"/>
  <path class="cls-1" d="m417.75,21.23l-3.45-5.83c3.71-1.06,5.57-2.92,5.57-6.36,0-6.1-6.36-6.63-9.01-6.63h-9.54v1.33h1.06c1.86,0,2.12,1.06,2.12,3.18v19.35h3.71v-10.87h2.12l3.45,5.83c2.39,3.98,3.98,5.3,6.63,5.3,1.06,0,1.86-.27,2.39-.27h.27v-1.06h-.27c-2.12-.27-3.18-.8-5.04-3.98Zm-2.12-12.19c0,3.71-3.71,4.77-5.3,4.77h-2.39V4.53c.8-.27,1.59-.27,2.39-.27,1.59,0,5.3,1.33,5.3,4.77Z"/>
  <path class="cls-1" d="m439.75,1.88c-6.63,0-11.13,5.3-11.13,12.72s4.51,12.72,11.13,12.72,11.13-5.3,11.13-12.72c.27-7.69-4.51-12.72-11.13-12.72Zm7.16,12.72c0,6.63-2.65,10.6-7.16,10.6s-7.16-3.98-7.16-10.6,2.65-10.6,7.16-10.6c4.51-.27,7.16,3.98,7.16,10.6Z"/>
  <path class="cls-1" d="m464.4,22.02V2.68h-3.71v19.35c0,3.45.8,4.51,3.45,4.51h3.45v-1.33h-1.06c-1.86,0-2.12-1.06-2.12-3.18Z"/>
  <path class="cls-1" d="m490.1,21.23l-3.45-5.83c3.71-1.06,5.57-2.92,5.57-6.36,0-6.1-6.36-6.63-9.01-6.63h-9.54v1.33h1.06c1.86,0,2.12,1.06,2.12,3.18v19.35h3.71v-10.87h2.12l3.45,5.83c2.39,3.98,3.98,5.3,6.63,5.3,1.06,0,1.86-.27,2.39-.27h.27v-1.06h-.27c-2.12-.27-3.18-.8-5.04-3.98Zm-2.12-12.19c0,3.71-3.71,4.77-5.3,4.77h-2.39V4.53c.8-.27,1.59-.27,2.39-.27,1.59,0,5.3,1.33,5.3,4.77Z"/>
</svg>