<?xml version="1.0" encoding="utf-8"?>
<!-- Generator: Adobe Illustrator 27.2.0, SVG Export Plug-In . SVG Version: 6.00 Build 0)  -->
<svg version="1.1" id="Layer_1" xmlns="http://www.w3.org/2000/svg" xmlns:xlink="http://www.w3.org/1999/xlink" x="0px" y="0px"
	 viewBox="0 0 485 485" style="enable-background:new 0 0 485 485;" xml:space="preserve">
<style type="text/css">
	.st0{fill:#FFFFFF;}
</style>
<g>
	<g>
		<g>
			<path class="st0" d="M411.5,58c-45.2-37.4-105.3-58-169-58s-123.8,20.6-169,58c-45.8,37.8-71,88.3-71,142
				c0,50.6,22,98.1,61.8,133.8c37.1,33.2,87.6,54.4,143.2,60.3V475c0,3.8,2.2,7.3,5.6,9c1.4,0.7,2.9,1,4.4,1c2.2,0,4.3-0.7,6.1-2.1
				l150-114.7c35.5-26.8,60-50.3,77.1-74c21.5-29.7,31.9-60.6,31.9-94.3C482.5,146.2,457.3,95.8,411.5,58L411.5,58z M361.4,352.4
				L227.5,454.8V385c0-5.2-4-9.6-9.3-10C163.4,371,113.5,351,77.7,319c-35.6-31.9-55.2-74.1-55.2-119c0-99.3,98.7-180,220-180
				s220,80.7,220,180C462.5,266.8,413.9,312.7,361.4,352.4z"/>
			<path class="st0" d="M299.7,156.7c0-7.5-4-11.6-10.2-11.6c-6.2,0.1-10,4.4-10,11.8c-0.1,13.8,0,27.6-0.1,41.4c0,2-0.2,4-0.4,7.7
				c-2.4-2.8-3.7-4.2-4.9-5.7c-12.8-16.6-25.5-33.2-38.3-49.9c-3.1-4.1-7.1-6.5-12.3-4.9c-5.2,1.6-7.4,5.8-7.4,10.9
				c-0.1,26.7-0.1,53.3,0,79.9c0,4.4,1.8,8.1,6,10.1c7.5,3.5,14.6-1.8,14.7-11.3c0.2-13,0.1-26.1,0.1-39.1c0-2.5,0-5,0-7.6
				c2.5,1.1,3.7,2.5,4.8,3.9c12.8,16.4,25.5,32.8,38.2,49.3c3.2,4.1,6.8,7.1,12.4,5.2c5.5-1.9,7.3-6,7.3-11.4
				C299.7,209.2,299.8,182.9,299.7,156.7L299.7,156.7z"/>
			<path class="st0" d="M338.8,166c1.9-0.1,4.1-0.4,6.4-0.5c7.5-0.1,15.1,0.1,22.6-0.1c2.8-0.1,5.8-0.3,8.2-1.4
				c4.8-2.2,6.2-6.7,4.9-11.5c-1.2-4.9-4.9-7.5-10.1-7.5c-13.4,0-26.8-0.1-40.2,0c-9.6,0-13.5,3.7-13.5,13.3
				c-0.1,25.3-0.1,50.6,0,76c0,9.4,4.1,13.4,13.5,13.5c12.5,0.1,25,0,37.4,0c2,0,4.1-0.3,6.1-0.9c4.5-1.3,6.9-4.4,7-9.1
				c0.2-5-2.1-8.4-6.8-9.8c-2.5-0.8-5.2-1-7.8-1c-9.4-0.1-18.7-0.1-28.3-0.1c0-7.1,0-13.2,0-19.6c1.8-0.2,3.2-0.4,4.7-0.4
				c8.9,0,17.8,0.2,26.6-0.1c7.7-0.3,11.8-4.5,11.5-11.1c-0.3-5.9-4.6-9.5-11.6-9.7c-4.9-0.1-9.8,0-14.8,0c-18.3,0-18.3,0-16.6-18.4
				C338.2,167.2,338.5,166.9,338.8,166L338.8,166z"/>
			<path class="st0" d="M156.3,227c-2.1-0.2-4.1-0.1-6.2-0.1c-8.7,0-17.3,0-26.8,0c0-3.2,0-5.5,0-7.7c0-20.2,0-40.4,0-60.6
				c0-8.6-3.8-13.4-10.4-13.5c-6.8-0.1-10.4,4.5-10.4,13.3c0,25.7,0,51.4,0,77.1c0,8.2,4,12.2,12.2,12.3c7.3,0.1,34.9,0.2,41.3-0.1
				c6.3-0.4,10.6-5,10.5-10.5C166.5,231.9,162.3,227.7,156.3,227z"/>
			<path class="st0" d="M198.6,155.3c-0.1-7.8-2.5-10.2-10-10.3c-7.6,0-10.2,2.3-10.3,10.1c-0.1,27.4-0.1,54.8,0,82.2
				c0,7.7,2.8,10.5,10,10.5c7.4,0,10.2-2.8,10.3-10.9c0-13.4,0-26.8,0-40.2C198.6,182.9,198.6,169.1,198.6,155.3z"/>
		</g>
	</g>
</g>
</svg>
