<?xml version="1.0" encoding="utf-8"?>
<!-- Generator: Adobe Illustrator 27.2.0, SVG Export Plug-In . SVG Version: 6.00 Build 0)  -->
<svg version="1.1" id="_圖層_1" xmlns="http://www.w3.org/2000/svg" xmlns:xlink="http://www.w3.org/1999/xlink" x="0px" y="0px"
	 viewBox="0 0 98 685" style="enable-background:new 0 0 98 685;" xml:space="preserve">
<style type="text/css">
	.st0{fill:#FFFFFF;}
</style>
<g>
	<path class="st0" d="M59.5,32.8c4.5,0,5.9-1,5.9-4.5v-4.5h-1.7v1.4c0,2.4-1.4,2.8-4.1,2.8H34.4v21.3h2.4V33.2L59.5,32.8L59.5,32.8z
		"/>
	<path class="st0" d="M40.2,81.7L65,71.4v-1.7L34,56.6v2.8l8.6,3.8v12.4l-2.8,1c-5.2,2.1-6.2,5.5-6.2,8.3c0,0.7,0,1.4,0.3,2.1v0.3
		h1.4v-0.3C36.1,84.1,36.8,83.1,40.2,81.7z M45.4,74.2V63.8L57.4,69L45.4,74.2z"/>
	<path class="st0" d="M42.3,145.1h23.1v-4.8l-23.4-10.7l23.4-10.7v-4.8h-31v2.4h24.4L34,127.9v1.4l24.1,11H42.3
		c-6.5,0-10.3,1.4-10.3,9v0.3h1.7v-0.3C33.7,145.8,38.5,145.1,42.3,145.1z"/>
	<path class="st0" d="M40.2,182.3L65,172v-1.7l-31-13.1v2.8l8.6,3.8v12.4l-2.8,1c-5.2,2.1-6.2,5.5-6.2,8.3c0,0.7,0,1.4,0.3,2.1v0.3
		h1.4v-0.3C36.1,184.7,36.8,184,40.2,182.3z M45.4,174.7v-10.3l12.1,5.2L45.4,174.7z"/>
	<path class="st0" d="M39.9,201.2H65v-4.8H39.9c-4.5,0-5.9,1-5.9,4.5v4.5h1.7V204C35.7,201.9,37.1,201.2,39.9,201.2z"/>
	<path class="st0" d="M50.2,229.8l3.4-5.5c2.1-3.4,3.4-4.8,5.9-4.8c2.8,0,4.1,2.4,4.1,4.8c0,5.2-2.4,7.6-8.3,8.6H55v1.4h5.2
		c3.8,0,5.9-5.5,5.9-10.3c0-5.5-3.4-9.3-8.3-9.3c-3.4,0-5.9,1.4-8.3,5.5l-3.4,5.5c-2.1,3.4-3.8,4.8-6.2,4.8c-3.1,0-4.5-3.1-4.5-5.5
		c0-5.2,2.4-7.9,8.3-9H44v-1h-5.2c-3.8,0-5.9,5.5-5.9,11c0,6.2,3.4,10,9,10C46.1,235.7,47.8,233.6,50.2,229.8z"/>
	<path class="st0" d="M66,260.5c0-8.6-6.9-14.5-16.5-14.5S33,251.8,33,260.5c0,8.6,6.9,14.5,16.5,14.5C59.5,275.3,66,269.1,66,260.5
		z M49.5,269.8c-8.6,0-13.8-3.4-13.8-9.3c0-5.9,5.2-9.3,13.8-9.3s13.8,3.4,13.8,9.3C63.3,266.3,58.1,269.8,49.5,269.8z"/>
	<path class="st0" d="M43,309l19.3-15.5c2.1-1.7,2.8-3.8,2.8-6.5v-3.4h-1.7v0.7c0,2.8-1.4,3.8-4.1,3.8H34v2.8h23.4L33.3,310v1.4H65
		V309H43z"/>
	<path class="st0" d="M65.4,353.1v-12.4h-1.7v1.4c0,2.4-1.4,2.8-4.1,2.8H34.4v9.6c0,10.7,6.2,17.2,15.8,17.2
		C59.8,371.7,65.4,365.1,65.4,353.1z M49.5,365.8c-7.9,0-13.1-4.8-13.1-11.7c0-1.4,0.3-2.8,0.7-4.5h25.1c0.3,1.4,0.7,3.1,0.7,4.1
		C62.9,361,57.4,365.8,49.5,365.8z"/>
	<path class="st0" d="M47.5,405.8c-8.3,0-11.4-2.4-11.4-9c0-5.5,3.1-7.9,10-7.9h13.1c4.5,0,5.9-1,5.9-4.5v-4.5h-1.7v1.4
		c0,2.4-1.4,2.8-4.1,2.8H47.5c-10,0-13.8,3.4-13.8,12.1c0,10,5.2,12.1,13.8,12.1H65v-2.4H47.5z"/>
	<path class="st0" d="M61.2,437.4h-3.8v1.7h0.3c3.4,0,4.8,1.7,4.8,5.5v3.8H34v4.8h28.6v10.3H65v-21.7
		C65.4,438.8,64,437.4,61.2,437.4z"/>
	<path class="st0" d="M41.6,495c-3.4-1.4-4.8-3.4-4.8-7.6v-7.6h12.1v12.4h2.4v-12.4h11.4v8.3c0,3.8-1.7,5.5-4.8,5.5h-0.3v1.7h3.8
		c2.8,0,4.1-1.4,4.1-4.1v-20h-1.7v1.4c0,2.4-1.4,2.8-4.1,2.8H34.4v16.2c0,1.7,1,3.1,2.4,3.8l4.8,1.7L41.6,495L41.6,495z"/>
	<path class="st0" d="M40.9,526.3l7.6-4.5c1.4,4.8,3.8,7.2,8.3,7.2c7.9,0,8.6-8.3,8.6-11.7v-12.4h-1.7v1.4c0,2.4-1.4,2.8-4.1,2.8
		H34.4v4.8h14.1v2.8l-7.6,4.5c-5.2,3.1-6.9,5.2-6.9,8.6c0,1.4,0.3,2.4,0.3,3.1v0.3h1.4v-0.3C36.1,530.4,36.8,528.7,40.9,526.3z
		 M56.7,523.5c-4.8,0-6.2-4.8-6.2-6.9v-3.1h12.1c0.3,1,0.3,2.1,0.3,3.1C62.9,519.1,61.2,523.5,56.7,523.5z"/>
	<path class="st0" d="M40.9,560.7l7.6-4.5c1.4,4.8,3.8,7.2,8.3,7.2c7.9,0,8.6-8.3,8.6-11.7v-12.4h-1.7v1.4c0,2.4-1.4,2.8-4.1,2.8
		H34.4v4.8h14.1v2.8l-7.6,4.5c-5.2,3.1-6.9,5.2-6.9,8.6c0,1.4,0.3,2.4,0.3,3.1v0.3h1.4v-0.3C36.1,564.5,36.8,563.1,40.9,560.7z
		 M56.7,558c-4.8,0-6.2-4.8-6.2-6.9V548h12.1c0.3,1,0.3,2.1,0.3,3.1C62.9,553.2,61.2,558,56.7,558z"/>
	<path class="st0" d="M66,589.3c0-8.6-6.9-14.5-16.5-14.5S33,580.7,33,589.3s6.9,14.5,16.5,14.5C59.5,604.1,66,597.9,66,589.3z
		 M49.5,598.6c-8.6,0-13.8-3.4-13.8-9.3s5.2-9.3,13.8-9.3s13.8,3.4,13.8,9.3C63.6,595.2,58.1,598.6,49.5,598.6z"/>
	<path class="st0" d="M39.9,621.3H65v-4.8H39.9c-4.5,0-5.9,1-5.9,4.5v4.5h1.7v-1.4C35.7,621.7,37.1,621.3,39.9,621.3z"/>
	<path class="st0" d="M40.9,654.7l7.6-4.5c1.4,4.8,3.8,7.2,8.3,7.2c7.9,0,8.6-8.3,8.6-11.7v-12.4h-1.7v1.4c0,2.4-1.4,2.8-4.1,2.8
		H34.4v4.8h14.1v2.8l-7.6,4.5c-5.2,3.1-6.9,5.2-6.9,8.6c0,1.4,0.3,2.4,0.3,3.1v0.3h1.4v-0.3C36.1,658.5,36.8,657.1,40.9,654.7z
		 M56.7,652c-4.8,0-6.2-4.8-6.2-6.9V642h12.1c0.3,1,0.3,2.1,0.3,3.1C62.9,647.2,61.2,652,56.7,652z"/>
</g>
</svg>
