<?xml version="1.0" encoding="utf-8"?>
<!-- Generator: Adobe Illustrator 27.2.0, SVG Export Plug-In . SVG Version: 6.00 Build 0)  -->
<svg version="1.1" id="Capa_1" xmlns="http://www.w3.org/2000/svg" xmlns:xlink="http://www.w3.org/1999/xlink" x="0px" y="0px"
	 viewBox="0 0 422.4 422.4" style="enable-background:new 0 0 422.4 422.4;" xml:space="preserve">
<style type="text/css">
	.st0{fill:#FFFFFF;}
</style>
<g>
	<g>
		<g>
			<path class="st0" d="M414.4,171c-4.8-4.8-11.6-8-18.8-8h-40L248.8,52.2c-1.2-8.8-4.8-16.4-10.8-22C231.2,23,221.6,19,211.2,19
				c-10.4,0-20,4.4-26.8,11.2c-6,6-9.6,13.6-10.8,22L66.8,163.4h-40c-7.2,0-14,2.8-18.8,8c-4.8,4.8-8,11.6-8,18.8v186.4
				c0,7.2,3.2,14,8,18.8s11.6,8,18.8,8h368.8c7.2,0,14-3.2,18.8-8s8-11.6,8-18.8V190.2C422.4,182.6,419.2,176.2,414.4,171z
				 M200,45.4c2.8-2.8,6.8-4.8,11.2-4.8s8.4,2,11.2,4.8s4.8,6.8,4.8,11.2s-2,8.4-4.8,11.2l-0.4,0.4c-2.8,2.8-6.8,4.4-10.8,4.4
				c-4.4,0-8.4-1.6-11.2-4.8c-2.8-2.8-4.8-6.8-4.8-11.2S196.8,48.2,200,45.4z M179.2,77.4c1.6,2.4,3.2,4.4,4.8,6
				c7.2,7.2,16.8,11.6,27.2,11.6c10,0,19.2-4,26-10.4c0.4-0.4,0.4-0.4,0.8-0.8c2-2,3.6-4,4.8-6l82.4,86H96.8L179.2,77.4z
				 M399.2,380.2c-0.8,0.8-2,1.2-3.6,1.2H26.8c-1.2,0-2.4-0.4-3.6-1.6c-0.8-0.8-1.6-2-1.6-3.6v-186c0-1.2,0.4-2.4,1.2-3.6
				c0.8-0.8,2-1.2,3.6-1.2h368.8c1.2,0,2.4,0.4,3.6,1.2c0.8,0.8,1.2,2,1.2,3.6v186.4h0.4C400.4,377.8,400,379,399.2,380.2z"/>
			<path class="st0" d="M203.2,241.4c-3.6-2.4-7.2-4-11.6-4.8c-4-1.2-8.8-1.6-13.6-1.6c-6,0-10.8,0.4-14,0.4c-3.6,0-5.6,0-6,0.4
				c-5.6,0.4-9.2,3.2-10.8,8c-0.4,0.8-0.4,2-0.8,3.2c0,0.4,0,1.2,0,1.6c0,0.8,0,1.2,0,1.6v1.6c0,0.4,0,1.2,0,2v1.6
				c0,0.4,0,0.8,0,1.2c0,1.2,0,4,0,9.2c0,2.4,0,4.4,0,6c0,1.2,0,2.4,0,3.2c0,24.4-0.4,40-0.4,46.8c0,6.4,4,10,11.6,10
				c3.6,0,6.8-0.8,8.8-2.4s3.2-4.4,3.2-7.6c0-2,0-5.6,0-10.8c0-2.4,0-4.4,0-6.8c0-1.2,0-2,0-2.8h3.2c4.4,0,8.4,0,11.6-0.4
				c3.2,0,5.6-0.4,7.2-0.8c3.6-0.8,6.8-2,10-4c2.8-2,5.6-4.4,7.6-7.6c2.4-2.8,4-6,5.2-9.6c1.2-3.2,1.6-6.8,2-10.4
				c0.4-6-0.4-11.2-2.8-16C211.2,248.2,208,244.2,203.2,241.4z M193.6,271.4c-0.4,1.2-1.2,2.4-1.6,3.6c-1.6,2.4-3.2,3.6-5.6,4.4
				c-1.2,0.4-2.8,0.4-4.8,0.8c-2,0-4.4,0-7.6,0h-4v-2.4c0-1.6,0-3.2,0-4.4c0-3.2,0-6.8,0-12v-5.2v-0.4h1.6c1.2,0,3.6,0,6.8,0
				c4.4,0,7.6,0.4,10,1.6c2,0.8,3.6,2,4.4,3.6c0.8,1.6,1.6,3.6,1.6,6C194.4,268.6,194,270.2,193.6,271.4z"/>
			<path class="st0" d="M107.6,237.8c-5.6-2.4-11.6-3.2-18-3.2c-12,0-23.2,4.4-32.4,14c-4.8,4.8-8.4,10.4-10.8,16.4
				c-2.4,6-3.6,12.8-3.6,20.4c0,14,4.8,25.2,14,34c4.8,4.4,9.6,7.6,15.2,9.6s11.2,3.2,17.2,3.2c6.8,0,12.8-1.2,18.4-3.6
				s10.8-6,15.2-10.8c4.4-4.8,8-10.4,10.4-16c2.4-6,3.6-12.4,3.6-19.2c0-13.6-4.8-25.2-14-34C118,243.4,113.2,240.2,107.6,237.8z
				 M112,293c-1.2,3.2-2.8,6.4-5.2,9.2c-4.4,5.6-10,8-16.4,8c-3.6,0-6.8-0.4-9.6-1.6c-2.8-1.2-5.2-2.8-7.6-5.6
				c-2.4-2.4-4-5.2-5.2-8.4c-1.2-3.2-1.6-6.8-1.6-10.8s0.4-8,1.6-11.2s2.8-6.4,4.8-8.8c4.4-5.2,9.6-7.6,16-7.6
				c3.6,0,6.4,0.8,9.6,1.6c2.8,1.2,5.6,3.2,8,5.6s4.4,5.2,5.6,8.4c0.8,3.2,1.6,6.8,1.6,10.8C113.6,286.2,113.2,289.8,112,293z"/>
			<path class="st0" d="M279.2,309.8c-0.8,0-2,0-4,0c-1.6,0-2.8,0-4.4,0c-3.2,0-6.8,0-11.2,0.4c-3.2,0-7.2,0-12.4,0V299
				c0-2,0-4,0-5.2h24c3.2,0,5.6-0.8,7.6-2.4c1.6-1.6,2.8-4,2.8-7.2c0-4-0.8-6.8-3.2-8.4c-1.2-0.8-2.4-1.2-4-1.6s-3.2-0.4-4.8-0.4
				c-5.6,0-12,0.4-19.6,0.4h-2l0.4-10.8v-7.2h2.4c8.4,0,15.6,0,20.8,0c5.2,0,8,0,9.2-0.4h0.4c2.4-0.8,4-2,4.8-4
				c0.8-1.6,1.6-4,1.2-6.8c0-1.2-0.4-2.8-0.8-3.6c-0.4-1.2-1.2-2.4-2-3.2s-2-1.6-3.2-2s-2.4-0.8-4-0.8H274h-8c-6.4,0-14,0-22.4,0
				h-5.2c-3.6,0-6.4,0.8-8.4,2.4c-1.2,0.8-2,2-2.8,3.2s-0.8,2.8-1.2,4.4c0,4.4,0,9.2,0,15.2v8.8v6.4c0,6,0,11.6,0,17.6
				c0,3.2,0,6,0,8.4s0,4.8,0,6.4v4.4v1.6c0,0.8,0,1.2,0,2s0,1.6,0,2.4c0,2,0.4,3.6,1.2,5.2s2,2.8,3.2,3.6s2.8,1.2,5.2,1.6
				c2,0.4,4.4,0.4,7.2,0.4h36.8c3.2,0,6-1.2,7.6-2.8c1.6-2,2.8-4.4,2.8-8c0-3.2-0.8-5.6-2.4-7.6C284.8,311,282.4,309.8,279.2,309.8z
				"/>
			<path class="st0" d="M379.2,292.2v-45.6c0-7.6-3.6-11.6-11.2-11.6c-2,0-3.6,0.4-5.2,0.8c-1.6,0.4-2.8,1.2-4,2.4s-1.6,2.4-2.4,4
				c-0.4,1.6-0.8,3.2-0.8,5.6l0.4,25.6c0,4.8,0,10,0,15.6l-2.8-4.4L323.6,243c-0.8-1.2-2-2.4-2.8-3.2s-2-2-2.8-2.4
				c-0.8-0.8-2-1.2-3.2-1.6c-1.2-0.4-2.4-0.4-3.6-0.4c-3.2,0-6.4,0.8-8.8,2.4c-1.6,0.8-2.4,2-3.2,3.2c-0.8,1.2-1.2,2.8-1.2,4.4v15.2
				v28.8c0,7.6,0,14,0,19.2c0,6.8,0,10.8,0,12c0,3.2,1.2,6,3.6,7.6c2,1.6,4.8,2.4,8.4,2.4s6.4-1.2,8-3.2c2-2,2.8-4.8,2.8-8.4
				c0-1.2,0-4,0-8.8c0-4,0-9.2,0-15.6s0-11.6,0-16.4c0-1.6,0-3.2,0-4.4l33.6,48c0.8,1.2,1.6,2.4,2.4,3.6s1.6,2,2.4,2.4
				c0.8,0.8,2,1.2,3.2,1.6s2.4,0.4,3.6,0.4c3.6,0,6.4-0.8,9.2-2.8c1.2-0.8,2.4-2,3.2-3.6c0.8-1.2,1.2-2.8,1.2-4.4c0-5.2,0-11.2,0-18
				l-0.4-5.2L379.2,292.2L379.2,292.2z"/>
		</g>
	</g>
</g>
</svg>
