<?xml version="1.0" encoding="UTF-8"?>
<svg id="_圖層_1" data-name="圖層 1" xmlns="http://www.w3.org/2000/svg" viewBox="0 0 140 40">
  <defs>
    <style>
      .cls-1 {
        fill: #736635;
      }
    </style>
  </defs>
  <path class="cls-1" d="m39.01,16.27V5.1h-1.62c-.72,0-1.27.17-1.66.5-.39.33-.59.85-.59,1.58h-.36v-1.35c0-.24.04-.47.13-.69s.24-.4.46-.54.54-.21.95-.21h8.37v.72h-4.05v11.16h-1.62Z"/>
  <path class="cls-1" d="m46.81,16.27V6.54c0-.54-.08-.97-.23-1.3-.15-.33-.5-.5-1.04-.5h-.36v-.36h7.67c.42,0,.74.07.95.21s.37.32.45.54c.08.22.13.45.13.69v1.35h-.36c0-.72-.2-1.25-.58-1.58s-.95-.5-1.67-.5h-3.35v4.68h4.86v.72h-4.86v5.04h3.15c.82,0,1.46-.15,1.94-.45.47-.3.85-.81,1.12-1.53l.36.09-.63,1.71c-.1.28-.25.5-.48.66-.22.16-.51.24-.87.24h-6.21Z"/>
  <path class="cls-1" d="m65.33,16.45c-.41,0-.78-.08-1.12-.24-.34-.16-.68-.43-1.01-.81s-.69-.9-1.09-1.56l-1.8-3.06h-1.26v5.49h-1.62V6.54c0-.54-.08-.97-.23-1.3-.15-.33-.49-.5-1.03-.5h-.36v-.36h4.68c.3,0,.65.02,1.04.06.4.04.79.12,1.2.24.4.12.77.3,1.12.54.34.24.62.55.83.94.21.38.31.86.31,1.44,0,.68-.15,1.23-.44,1.65-.29.41-.66.73-1.11.95-.44.22-.89.38-1.33.49l1.89,3.15c.46.77.86,1.29,1.22,1.58.36.28.76.45,1.21.5v.36c-.1.05-.24.09-.44.13s-.42.05-.66.05Zm-6.28-6.3h1.3c.26,0,.56-.05.88-.14.32-.1.64-.24.94-.44.3-.2.55-.46.74-.78.19-.32.29-.72.29-1.19s-.1-.86-.29-1.19c-.19-.32-.44-.59-.74-.79s-.61-.35-.94-.45-.62-.14-.88-.14c-.19,0-.41.02-.66.05-.25.04-.46.08-.64.13v4.95Z"/>
  <path class="cls-1" d="m76.04,16.45c-.41,0-.78-.08-1.12-.24-.34-.16-.68-.43-1.01-.81s-.69-.9-1.09-1.56l-1.8-3.06h-1.26v5.49h-1.62V6.54c0-.54-.08-.97-.23-1.3-.15-.33-.49-.5-1.03-.5h-.36v-.36h4.68c.3,0,.65.02,1.04.06.4.04.79.12,1.2.24.4.12.77.3,1.12.54.34.24.62.55.83.94.21.38.31.86.31,1.44,0,.68-.15,1.23-.44,1.65-.29.41-.66.73-1.11.95-.44.22-.89.38-1.33.49l1.89,3.15c.46.77.86,1.29,1.22,1.58.36.28.76.45,1.21.5v.36c-.1.05-.24.09-.44.13s-.42.05-.66.05Zm-6.28-6.3h1.3c.26,0,.56-.05.88-.14.32-.1.64-.24.94-.44.3-.2.55-.46.74-.78.19-.32.29-.72.29-1.19s-.1-.86-.29-1.19c-.19-.32-.44-.59-.74-.79s-.61-.35-.94-.45-.62-.14-.88-.14c-.19,0-.41.02-.66.05-.25.04-.46.08-.64.13v4.95Z"/>
  <path class="cls-1" d="m83.35,16.62c-1.14,0-2.13-.28-2.96-.84s-1.48-1.31-1.94-2.27-.68-2.02-.68-3.19.23-2.24.68-3.19c.46-.95,1.1-1.71,1.94-2.27.83-.56,1.82-.84,2.96-.84s2.13.28,2.96.84c.83.56,1.48,1.31,1.93,2.27.46.95.68,2.02.68,3.19s-.23,2.24-.68,3.19-1.1,1.71-1.93,2.27-1.82.84-2.96.84Zm0-.72c.79,0,1.47-.23,2.03-.68.56-.46,1-1.1,1.3-1.94.3-.83.45-1.82.45-2.96s-.15-2.13-.45-2.96c-.3-.83-.73-1.48-1.3-1.94-.56-.46-1.24-.68-2.03-.68s-1.46.23-2.03.68-1,1.1-1.3,1.94-.45,1.82-.45,2.96.15,2.13.45,2.96.73,1.48,1.3,1.94,1.25.68,2.03.68Z"/>
  <path class="cls-1" d="m92.98,16.27c-.42,0-.75-.05-.98-.16-.23-.11-.4-.32-.5-.63-.1-.31-.14-.77-.14-1.37V4.39h1.62v9.72c0,.54.08.98.23,1.31.15.33.5.5,1.04.5h.36v.36h-1.62Z"/>
  <path class="cls-1" d="m104.69,16.45c-.41,0-.78-.08-1.12-.24-.34-.16-.68-.43-1.01-.81s-.69-.9-1.09-1.56l-1.8-3.06h-1.26v5.49h-1.62V6.54c0-.54-.08-.97-.23-1.3-.15-.33-.49-.5-1.03-.5h-.36v-.36h4.68c.3,0,.65.02,1.04.06.4.04.79.12,1.2.24.4.12.77.3,1.12.54.34.24.62.55.83.94.21.38.31.86.31,1.44,0,.68-.15,1.23-.44,1.65-.29.41-.66.73-1.11.95-.44.22-.89.38-1.33.49l1.89,3.15c.46.77.86,1.29,1.22,1.58.36.28.76.45,1.21.5v.36c-.1.05-.24.09-.44.13s-.42.05-.66.05Zm-6.28-6.3h1.3c.26,0,.56-.05.88-.14.32-.1.64-.24.94-.44.3-.2.55-.46.74-.78.19-.32.29-.72.29-1.19s-.1-.86-.29-1.19c-.19-.32-.44-.59-.74-.79s-.61-.35-.94-.45-.62-.14-.88-.14c-.19,0-.41.02-.66.05-.25.04-.46.08-.64.13v4.95Z"/>
  <path class="cls-1" d="m13.89,37.87v-9.72c0-.54-.08-.98-.23-1.31-.15-.33-.5-.5-1.04-.5h-.36v-.36h7.67c.42,0,.74.07.95.21.22.14.37.32.45.54.08.22.13.45.13.69v1.35h-.36c0-.72-.2-1.25-.58-1.58-.39-.33-.94-.5-1.67-.5h-3.35v4.68h4.86v.72h-4.86v5.04h3.15c.82,0,1.46-.15,1.93-.45s.85-.81,1.12-1.53l.36.09-.63,1.71c-.1.28-.25.5-.48.66-.22.16-.51.24-.87.24h-6.21Z"/>
  <path class="cls-1" d="m23.33,37.87l4.5-5.85-2.52-3.69c-.2-.3-.43-.6-.67-.89-.24-.29-.53-.54-.88-.75-.35-.2-.79-.32-1.33-.34v-.36h2.16c.4,0,.74.1,1.04.31.3.2.57.46.81.77.24.31.46.61.67.91l1.8,2.7,3.6-4.68h.9l-4.05,5.31,2.88,4.23c.2.3.44.6.69.89.26.29.55.54.86.74.32.2.67.31,1.05.35v.36h-1.89c-.38,0-.73-.1-1.04-.31s-.58-.46-.83-.77c-.25-.31-.46-.61-.66-.91l-2.16-3.24-4.05,5.22h-.9Z"/>
  <path class="cls-1" d="m36.51,37.87v-9.72c0-.54-.08-.98-.23-1.31-.15-.33-.5-.5-1.04-.5h-.36v-.36h4.68c.31,0,.66.02,1.05.06.39.04.79.13,1.19.27.4.14.77.34,1.12.6.34.26.62.61.83,1.04.21.43.31.97.31,1.62,0,.61-.1,1.12-.31,1.54-.2.41-.47.75-.8,1s-.67.44-1.03.57c-.36.13-.7.21-1.03.25-.32.04-.59.06-.79.06h-1.98v4.86h-1.62Zm1.62-5.49h1.35c.25,0,.53-.05.85-.14.31-.1.62-.26.92-.49.3-.23.55-.52.74-.89s.29-.82.29-1.36-.1-.99-.29-1.36c-.19-.37-.44-.66-.74-.89-.3-.23-.61-.39-.92-.49-.31-.1-.59-.14-.85-.14-.23,0-.47.02-.71.05-.25.04-.46.08-.64.13v5.58Z"/>
  <path class="cls-1" d="m46.45,37.87v-9.72c0-.54-.08-.98-.23-1.31-.15-.33-.5-.5-1.04-.5h-.36v-.36h1.62c.42,0,.75.05.98.16.23.11.4.32.5.63.1.31.14.77.14,1.37v9h6.39v.72h-8.01Z"/>
  <path class="cls-1" d="m60.18,38.23c-1.14,0-2.13-.28-2.96-.84-.83-.56-1.48-1.31-1.94-2.27s-.68-2.02-.68-3.2.23-2.24.68-3.19,1.1-1.71,1.94-2.27c.83-.56,1.82-.84,2.96-.84s2.13.28,2.96.84c.83.56,1.48,1.31,1.93,2.27s.68,2.02.68,3.19-.23,2.24-.68,3.2-1.1,1.71-1.93,2.27c-.83.56-1.82.84-2.96.84Zm0-.72c.79,0,1.47-.23,2.03-.68.56-.46,1-1.1,1.3-1.93.3-.83.45-1.82.45-2.96s-.15-2.13-.45-2.96c-.3-.83-.73-1.48-1.3-1.93-.56-.46-1.24-.68-2.03-.68s-1.46.23-2.03.68-1,1.1-1.3,1.93c-.3.83-.45,1.82-.45,2.96s.15,2.13.45,2.96.73,1.48,1.3,1.93,1.25.68,2.03.68Z"/>
  <path class="cls-1" d="m76.27,38.04c-.41,0-.78-.08-1.12-.24-.34-.16-.68-.43-1.01-.81s-.69-.9-1.09-1.56l-1.8-3.06h-1.26v5.49h-1.62v-9.72c0-.54-.08-.98-.23-1.31-.15-.33-.49-.5-1.03-.5h-.36v-.36h4.68c.3,0,.65.02,1.04.06.4.04.79.12,1.2.24.4.12.77.3,1.12.54.34.24.62.55.83.94.21.38.31.86.31,1.44,0,.68-.15,1.23-.44,1.65-.29.41-.66.73-1.11.94-.44.22-.89.38-1.33.49l1.89,3.15c.46.77.86,1.29,1.22,1.57.36.28.76.45,1.21.5v.36c-.1.05-.24.09-.44.13s-.42.05-.66.05Zm-6.28-6.3h1.3c.26,0,.56-.05.88-.14.32-.1.64-.24.94-.44s.55-.46.74-.78c.19-.32.29-.72.29-1.19s-.1-.86-.29-1.19c-.19-.32-.44-.59-.74-.79-.3-.2-.61-.35-.94-.45s-.62-.14-.88-.14c-.19,0-.41.02-.66.05-.25.04-.46.08-.64.13v4.95Z"/>
  <path class="cls-1" d="m88.37,37.96c-.26,0-.59-.05-.97-.15-.38-.1-.76-.32-1.13-.65s-.69-.84-.95-1.54l-.45-1.17h-5.04l-1.44,3.42h-.81l5.04-11.88h.54l3.96,9.63c.29.67.56,1.14.83,1.41.26.27.65.43,1.15.48v.36c-.1.02-.21.04-.33.06-.13.02-.25.03-.39.03Zm-8.28-4.23h4.41l-2.16-5.22-2.25,5.22Z"/>
  <path class="cls-1" d="m92.11,37.87v-11.16h-1.62c-.72,0-1.28.17-1.67.5-.39.33-.58.86-.58,1.58h-.36v-1.35c0-.24.04-.47.13-.69.08-.22.24-.4.46-.54s.54-.21.95-.21h8.37v.72h-4.05v11.16h-1.62Z"/>
  <path class="cls-1" d="m101.22,37.87c-.42,0-.75-.05-.98-.16-.23-.11-.4-.32-.5-.63-.1-.31-.14-.77-.14-1.37v-9.72h1.62v9.72c0,.54.08.98.23,1.3.15.33.5.5,1.04.5h.36v.36h-1.62Z"/>
  <path class="cls-1" d="m109.41,38.23c-1.14,0-2.13-.28-2.96-.84-.83-.56-1.48-1.31-1.94-2.27s-.68-2.02-.68-3.2.23-2.24.68-3.19,1.1-1.71,1.94-2.27c.83-.56,1.82-.84,2.96-.84s2.13.28,2.96.84c.83.56,1.48,1.31,1.93,2.27s.68,2.02.68,3.19-.23,2.24-.68,3.2-1.1,1.71-1.93,2.27c-.83.56-1.82.84-2.96.84Zm0-.72c.79,0,1.47-.23,2.03-.68.56-.46,1-1.1,1.3-1.93.3-.83.45-1.82.45-2.96s-.15-2.13-.45-2.96c-.3-.83-.73-1.48-1.3-1.93-.56-.46-1.24-.68-2.03-.68s-1.46.23-2.03.68-1,1.1-1.3,1.93c-.3.83-.45,1.82-.45,2.96s.15,2.13.45,2.96.73,1.48,1.3,1.93,1.25.68,2.03.68Z"/>
  <path class="cls-1" d="m126.13,38.04l-7.74-9.63v9.45h-.72v-9.72c0-.54-.11-.98-.34-1.31-.23-.33-.65-.5-1.28-.5h-.18v-.36h1.17c.59,0,1.07.1,1.45.29s.71.46.98.79l6.3,7.83v-8.91h.72v12.06h-.36Z"/>
</svg>