<?xml version="1.0" encoding="UTF-8"?>
<svg id="_圖層_1" data-name="圖層 1" xmlns="http://www.w3.org/2000/svg" viewBox="0 0 340 30">
  <defs>
    <style>
      .cls-1 {
        fill: #736635;
      }
    </style>
  </defs>
  <path class="cls-1" d="m7.66,22.94v-13.5c0-.75-.1-1.35-.31-1.81-.21-.46-.69-.69-1.44-.69h-.5v-.5h6.5c.43,0,.92.03,1.46.09.54.06,1.09.18,1.65.38.56.19,1.07.47,1.55.84.48.37.86.85,1.15,1.45s.44,1.35.44,2.25c0,.85-.14,1.56-.42,2.14-.28.57-.65,1.04-1.11,1.39s-.94.61-1.44.79-.97.29-1.42.35c-.45.06-.82.09-1.1.09h-2.75v6.75h-2.25Zm2.25-7.62h1.88c.35,0,.74-.07,1.18-.2.43-.13.86-.36,1.27-.67.42-.32.76-.73,1.02-1.24s.4-1.14.4-1.89-.13-1.38-.4-1.89c-.27-.51-.61-.92-1.02-1.24-.42-.32-.84-.54-1.27-.67-.43-.13-.83-.2-1.18-.2-.32,0-.65.02-.99.08-.34.05-.64.11-.89.17v7.75Z"/>
  <path class="cls-1" d="m32.44,23.19c-.57,0-1.09-.11-1.56-.34-.48-.22-.94-.6-1.4-1.12-.46-.52-.96-1.25-1.51-2.16l-2.5-4.25h-1.75v7.62h-2.25v-13.5c0-.75-.1-1.35-.31-1.81-.21-.46-.69-.69-1.44-.69h-.5v-.5h6.5c.42,0,.9.03,1.45.09.55.06,1.1.17,1.66.34.56.17,1.07.42,1.55.75.48.33.86.77,1.15,1.3.29.53.44,1.2.44,2,0,.95-.2,1.71-.61,2.29-.41.57-.92,1.01-1.54,1.31-.62.3-1.23.52-1.85.67l2.62,4.38c.63,1.07,1.2,1.8,1.7,2.19s1.06.62,1.67.69v.5c-.13.07-.34.12-.61.17s-.58.08-.91.08Zm-8.73-8.75h1.8c.37,0,.77-.07,1.22-.2.45-.13.88-.34,1.3-.61.42-.27.76-.64,1.02-1.09.27-.45.4-1,.4-1.65s-.13-1.2-.4-1.65c-.27-.45-.61-.82-1.02-1.1-.42-.28-.85-.49-1.3-.62-.45-.13-.86-.2-1.22-.2-.27,0-.57.02-.91.08-.34.05-.64.11-.89.17v6.88Z"/>
  <path class="cls-1" d="m42.59,23.44c-1.58,0-2.95-.39-4.11-1.16-1.16-.77-2.05-1.82-2.69-3.15-.63-1.33-.95-2.8-.95-4.44s.32-3.11.95-4.44c.63-1.33,1.53-2.38,2.69-3.15,1.16-.77,2.53-1.16,4.11-1.16s2.95.39,4.11,1.16c1.16.77,2.05,1.82,2.69,3.15.63,1.33.95,2.8.95,4.44s-.32,3.11-.95,4.44c-.63,1.33-1.53,2.38-2.69,3.15-1.16.78-2.53,1.16-4.11,1.16Zm0-1c1.1,0,2.04-.32,2.83-.95.78-.63,1.38-1.53,1.8-2.69s.62-2.53.62-4.11-.21-2.95-.62-4.11-1.02-2.05-1.8-2.69c-.78-.63-1.73-.95-2.83-.95s-2.02.32-2.81.95-1.4,1.53-1.81,2.69-.62,2.53-.62,4.11.21,2.95.62,4.11,1.02,2.05,1.81,2.69c.79.63,1.73.95,2.81.95Z"/>
  <path class="cls-1" d="m53.96,22.94v-13.5c0-.75-.1-1.35-.31-1.81-.21-.46-.69-.69-1.44-.69h-.5v-.5h9.98c.58,0,1.02.1,1.33.29.3.19.51.44.62.75.12.31.17.63.17.96v1.88h-.5c0-1-.27-1.73-.81-2.19-.54-.46-1.31-.69-2.31-.69h-3.98v6.62h5.65v1h-5.65v7.88h-2.25Z"/>
  <path class="cls-1" d="m67.14,22.94v-13.5c0-.75-.1-1.35-.31-1.81-.21-.46-.69-.69-1.44-.69h-.5v-.5h10.65c.58,0,1.03.1,1.33.29.3.19.51.44.62.75.12.31.17.63.17.96v1.88h-.5c0-1-.27-1.73-.81-2.19-.54-.46-1.31-.69-2.31-.69h-4.65v6.5h6.75v1h-6.75v7h4.38c1.13,0,2.03-.21,2.69-.62.66-.42,1.18-1.12,1.56-2.12l.5.12-.88,2.38c-.13.38-.35.69-.66.91-.31.23-.71.34-1.21.34h-8.62Z"/>
  <path class="cls-1" d="m86.29,23.36c-.67,0-1.34-.07-2.01-.21-.68-.14-1.29-.35-1.85-.61-.56-.27-1-.59-1.34-.96-.33-.38-.5-.8-.5-1.26v-2.67h.45c.28,1.68.84,2.89,1.66,3.62.83.73,1.95,1.1,3.36,1.1.57,0,1.1-.1,1.6-.29s.9-.48,1.21-.86c.31-.38.46-.85.46-1.4,0-.73-.23-1.36-.69-1.88-.46-.52-1.15-1.04-2.06-1.58l-3.08-1.82c-1.07-.63-1.82-1.27-2.26-1.93-.44-.65-.66-1.44-.66-2.38,0-1.28.45-2.31,1.34-3.09s2.06-1.16,3.51-1.16c.62,0,1.24.07,1.88.2.63.13,1.22.33,1.75.59.53.26.96.57,1.29.94.33.37.49.79.49,1.27v2.68h-.45c-.28-1.68-.82-2.88-1.62-3.6-.8-.72-1.91-1.08-3.32-1.08-.48,0-.95.1-1.4.31-.45.21-.81.5-1.09.88s-.41.82-.41,1.34c0,.72.23,1.31.7,1.77.47.47,1.16.97,2.08,1.5l3.07,1.82c1.07.63,1.85,1.25,2.35,1.84s.75,1.35.75,2.29c0,1.4-.47,2.52-1.4,3.36-.93.84-2.2,1.26-3.8,1.26Z"/>
  <path class="cls-1" d="m99.61,23.36c-.67,0-1.34-.07-2.01-.21-.68-.14-1.29-.35-1.85-.61-.56-.27-1-.59-1.34-.96-.33-.38-.5-.8-.5-1.26v-2.67h.45c.28,1.68.84,2.89,1.66,3.62.83.73,1.95,1.1,3.36,1.1.57,0,1.1-.1,1.6-.29s.9-.48,1.21-.86c.31-.38.46-.85.46-1.4,0-.73-.23-1.36-.69-1.88-.46-.52-1.15-1.04-2.06-1.58l-3.08-1.82c-1.07-.63-1.82-1.27-2.26-1.93-.44-.65-.66-1.44-.66-2.38,0-1.28.45-2.31,1.34-3.09s2.06-1.16,3.51-1.16c.62,0,1.24.07,1.88.2.63.13,1.22.33,1.75.59.53.26.96.57,1.29.94.33.37.49.79.49,1.27v2.68h-.45c-.28-1.68-.82-2.88-1.62-3.6-.8-.72-1.91-1.08-3.32-1.08-.48,0-.95.1-1.4.31-.45.21-.81.5-1.09.88s-.41.82-.41,1.34c0,.72.23,1.31.7,1.77.47.47,1.16.97,2.08,1.5l3.07,1.82c1.07.63,1.85,1.25,2.35,1.84s.75,1.35.75,2.29c0,1.4-.47,2.52-1.4,3.36-.93.84-2.2,1.26-3.8,1.26Z"/>
  <path class="cls-1" d="m110.36,22.94c-.58,0-1.04-.08-1.36-.23-.32-.15-.55-.44-.69-.88-.13-.43-.2-1.07-.2-1.9V6.44h2.25v13.5c0,.75.1,1.35.31,1.81.21.46.69.69,1.44.69h.5v.5h-2.25Z"/>
  <path class="cls-1" d="m121.74,23.44c-1.58,0-2.95-.39-4.11-1.16-1.16-.77-2.05-1.82-2.69-3.15-.63-1.33-.95-2.8-.95-4.44s.32-3.11.95-4.44c.63-1.33,1.53-2.38,2.69-3.15,1.16-.77,2.53-1.16,4.11-1.16s2.95.39,4.11,1.16c1.16.77,2.05,1.82,2.69,3.15.63,1.33.95,2.8.95,4.44s-.32,3.11-.95,4.44c-.63,1.33-1.53,2.38-2.69,3.15-1.16.78-2.53,1.16-4.11,1.16Zm0-1c1.1,0,2.04-.32,2.83-.95.78-.63,1.38-1.53,1.8-2.69s.62-2.53.62-4.11-.21-2.95-.62-4.11-1.02-2.05-1.8-2.69c-.78-.63-1.73-.95-2.83-.95s-2.02.32-2.81.95-1.4,1.53-1.81,2.69-.62,2.53-.62,4.11.21,2.95.62,4.11,1.02,2.05,1.81,2.69c.79.63,1.73.95,2.81.95Z"/>
  <path class="cls-1" d="m144.96,23.19l-10.75-13.38v13.12h-1v-13.5c0-.75-.16-1.35-.48-1.81-.32-.46-.91-.69-1.77-.69h-.25v-.5h1.62c.82,0,1.49.13,2.01.4.52.27.98.63,1.36,1.1l8.75,10.88V6.44h1v16.75h-.5Z"/>
  <path class="cls-1" d="m162.99,23.06c-.37,0-.82-.07-1.35-.21-.53-.14-1.06-.44-1.58-.9-.52-.46-.96-1.17-1.33-2.14l-.62-1.62h-7l-2,4.75h-1.12l7-16.5h.75l5.5,13.38c.4.93.78,1.59,1.15,1.96.37.38.9.6,1.6.66v.5c-.13.03-.29.06-.46.09-.17.03-.35.04-.54.04Zm-11.5-5.88h6.12l-3-7.25-3.12,7.25Z"/>
  <path class="cls-1" d="m165.96,22.94v-13.5c0-.75-.1-1.35-.31-1.81-.21-.46-.69-.69-1.44-.69h-.5v-.5h2.25c.58,0,1.04.08,1.36.23s.55.44.69.88c.13.43.2,1.07.2,1.9v12.5h8.88v1h-11.12Z"/>
  <path class="cls-1" d="m190.56,23.36c-.67,0-1.34-.07-2.01-.21-.67-.14-1.29-.35-1.85-.61s-1-.59-1.34-.96c-.33-.38-.5-.8-.5-1.26v-2.67h.45c.28,1.68.84,2.89,1.66,3.62.82.73,1.95,1.1,3.36,1.1.57,0,1.1-.1,1.6-.29s.9-.48,1.21-.86c.31-.38.46-.85.46-1.4,0-.73-.23-1.36-.69-1.88-.46-.52-1.15-1.04-2.06-1.58l-3.07-1.82c-1.07-.63-1.82-1.27-2.26-1.93-.44-.65-.66-1.44-.66-2.38,0-1.28.45-2.31,1.34-3.09s2.06-1.16,3.51-1.16c.62,0,1.24.07,1.88.2.63.13,1.22.33,1.75.59.53.26.96.57,1.29.94.33.37.49.79.49,1.27v2.68h-.45c-.28-1.68-.83-2.88-1.62-3.6-.8-.72-1.91-1.08-3.33-1.08-.48,0-.95.1-1.4.31-.45.21-.81.5-1.09.88-.28.38-.41.82-.41,1.34,0,.72.23,1.31.7,1.77.47.47,1.16.97,2.08,1.5l3.08,1.82c1.07.63,1.85,1.25,2.35,1.84s.75,1.35.75,2.29c0,1.4-.47,2.52-1.4,3.36-.93.84-2.2,1.26-3.8,1.26Z"/>
  <path class="cls-1" d="m205.74,23.44c-1.58,0-2.96-.39-4.11-1.16-1.16-.77-2.05-1.82-2.69-3.15-.63-1.33-.95-2.8-.95-4.44s.32-3.11.95-4.44c.63-1.33,1.53-2.38,2.69-3.15s2.53-1.16,4.11-1.16,2.95.39,4.11,1.16c1.16.77,2.05,1.82,2.69,3.15.63,1.33.95,2.8.95,4.44s-.32,3.11-.95,4.44c-.63,1.33-1.53,2.38-2.69,3.15-1.16.78-2.53,1.16-4.11,1.16Zm0-1c1.1,0,2.04-.32,2.82-.95.78-.63,1.38-1.53,1.8-2.69.42-1.16.62-2.53.62-4.11s-.21-2.95-.62-4.11c-.42-1.16-1.02-2.05-1.8-2.69s-1.72-.95-2.82-.95-2.02.32-2.81.95c-.79.63-1.4,1.53-1.81,2.69-.42,1.16-.62,2.53-.62,4.11s.21,2.95.62,4.11c.42,1.16,1.02,2.05,1.81,2.69.79.63,1.73.95,2.81.95Z"/>
  <path class="cls-1" d="m235.66,24.06c-1.2,0-2.14-.19-2.81-.56-.68-.38-1.15-.96-1.41-1.75s-.4-1.81-.4-3.06v-9.62l-6.25,13.88h-.5l-6.5-14.12v14.12h-1V6.44h2.38l6,13,5.88-13h2.25v12.25c0,1.52.19,2.71.57,3.58.38.87.98,1.3,1.8,1.3v.5Z"/>
  <path class="cls-1" d="m257.04,24.06c-1.2,0-2.14-.19-2.81-.56-.68-.38-1.15-.96-1.41-1.75s-.4-1.81-.4-3.06v-9.62l-6.25,13.88h-.5l-6.5-14.12v14.12h-1V6.44h2.38l6,13,5.88-13h2.25v12.25c0,1.52.19,2.71.57,3.58.38.87.98,1.3,1.8,1.3v.5Z"/>
  <path class="cls-1" d="m259.89,22.94v-13.5c0-.75-.1-1.35-.31-1.81-.21-.46-.69-.69-1.44-.69h-.5v-.5h10.65c.58,0,1.03.1,1.33.29.3.19.51.44.62.75.12.31.17.63.17.96v1.88h-.5c0-1-.27-1.73-.81-2.19-.54-.46-1.31-.69-2.31-.69h-4.65v6.5h6.75v1h-6.75v7h4.38c1.13,0,2.03-.21,2.69-.62.66-.42,1.18-1.12,1.56-2.12l.5.12-.88,2.38c-.13.38-.35.69-.66.91-.31.23-.71.34-1.21.34h-8.62Z"/>
  <path class="cls-1" d="m274.64,22.94v-13.5c0-.75-.1-1.35-.31-1.81-.21-.46-.69-.69-1.44-.69h-.5v-.5h2.25c.58,0,1.04.08,1.36.23s.55.44.69.88c.13.43.2,1.07.2,1.9v12.5h8.88v1h-11.12Z"/>
  <path class="cls-1" d="m290.06,22.94c-.58,0-1.04-.08-1.36-.23-.33-.15-.55-.44-.69-.88-.13-.43-.2-1.07-.2-1.9V6.44h2.25v13.5c0,.75.1,1.35.31,1.81.21.46.69.69,1.44.69h.5v.5h-2.25Z"/>
  <path class="cls-1" d="m295.36,22.94v-13.5c0-.75-.1-1.35-.31-1.81-.21-.46-.69-.69-1.44-.69h-.5v-.5h10.65c.58,0,1.03.1,1.33.29.3.19.51.44.62.75.12.31.17.63.17.96v1.88h-.5c0-1-.27-1.73-.81-2.19-.54-.46-1.31-.69-2.31-.69h-4.65v6.5h6.75v1h-6.75v7h4.38c1.13,0,2.03-.21,2.69-.62.66-.42,1.18-1.12,1.56-2.12l.5.12-.88,2.38c-.13.38-.35.69-.66.91-.31.23-.71.34-1.21.34h-8.62Z"/>
  <path class="cls-1" d="m321.09,23.19c-.57,0-1.09-.11-1.56-.34-.47-.22-.94-.6-1.4-1.12-.46-.52-.96-1.25-1.51-2.16l-2.5-4.25h-1.75v7.62h-2.25v-13.5c0-.75-.1-1.35-.31-1.81-.21-.46-.69-.69-1.44-.69h-.5v-.5h6.5c.42,0,.9.03,1.45.09.55.06,1.1.17,1.66.34.56.17,1.08.42,1.55.75.47.33.86.77,1.15,1.3.29.53.44,1.2.44,2,0,.95-.21,1.71-.61,2.29-.41.57-.92,1.01-1.54,1.31-.62.3-1.23.52-1.85.67l2.62,4.38c.63,1.07,1.2,1.8,1.7,2.19s1.06.62,1.68.69v.5c-.13.07-.34.12-.61.17-.27.05-.58.08-.91.08Zm-8.72-8.75h1.8c.37,0,.77-.07,1.22-.2.45-.13.88-.34,1.3-.61.42-.27.76-.64,1.03-1.09.27-.45.4-1,.4-1.65s-.13-1.2-.4-1.65c-.27-.45-.61-.82-1.03-1.1-.42-.28-.85-.49-1.3-.62s-.86-.2-1.22-.2c-.27,0-.57.02-.91.08-.34.05-.64.11-.89.17v6.88Z"/>
  <path class="cls-1" d="m329.39,23.36c-.67,0-1.34-.07-2.01-.21-.67-.14-1.29-.35-1.85-.61s-1-.59-1.34-.96c-.33-.38-.5-.8-.5-1.26v-2.67h.45c.28,1.68.84,2.89,1.66,3.62.82.73,1.95,1.1,3.36,1.1.57,0,1.1-.1,1.6-.29s.9-.48,1.21-.86c.31-.38.46-.85.46-1.4,0-.73-.23-1.36-.69-1.88-.46-.52-1.15-1.04-2.06-1.58l-3.07-1.82c-1.07-.63-1.82-1.27-2.26-1.93-.44-.65-.66-1.44-.66-2.38,0-1.28.45-2.31,1.34-3.09s2.06-1.16,3.51-1.16c.62,0,1.24.07,1.88.2.63.13,1.22.33,1.75.59.53.26.96.57,1.29.94.33.37.49.79.49,1.27v2.68h-.45c-.28-1.68-.83-2.88-1.62-3.6-.8-.72-1.91-1.08-3.33-1.08-.48,0-.95.1-1.4.31-.45.21-.81.5-1.09.88-.28.38-.41.82-.41,1.34,0,.72.23,1.31.7,1.77.47.47,1.16.97,2.08,1.5l3.08,1.82c1.07.63,1.85,1.25,2.35,1.84s.75,1.35.75,2.29c0,1.4-.47,2.52-1.4,3.36-.93.84-2.2,1.26-3.8,1.26Z"/>
</svg>