<?xml version="1.0" encoding="UTF-8"?>
<svg id="_圖層_1" data-name="圖層 1" xmlns="http://www.w3.org/2000/svg" viewBox="0 0 340 30">
  <defs>
    <style>
      .cls-1 {
        fill: #736635;
      }
    </style>
  </defs>
  <path class="cls-1" d="m44.05,23.25V7.75h-2.25c-1,0-1.77.23-2.31.69-.54.46-.81,1.19-.81,2.19h-.5v-1.88c0-.33.06-.65.18-.96.12-.31.33-.56.64-.75.31-.19.75-.29,1.31-.29h11.62v1h-5.62v15.5h-2.25Z"/>
  <path class="cls-1" d="m54.88,23.25v-13.5c0-.75-.1-1.35-.31-1.81-.21-.46-.69-.69-1.44-.69h-.5v-.5h10.65c.58,0,1.03.1,1.33.29.3.19.51.44.62.75.12.31.17.63.17.96v1.88h-.5c0-1-.27-1.73-.81-2.19-.54-.46-1.31-.69-2.31-.69h-4.65v6.5h6.75v1h-6.75v7h4.38c1.13,0,2.03-.21,2.69-.62.66-.42,1.18-1.12,1.56-2.12l.5.12-.88,2.38c-.13.38-.35.69-.66.91-.31.22-.71.34-1.21.34h-8.62Z"/>
  <path class="cls-1" d="m80.6,23.5c-.57,0-1.09-.11-1.56-.34-.48-.23-.94-.6-1.4-1.12-.46-.53-.96-1.25-1.51-2.16l-2.5-4.25h-1.75v7.62h-2.25v-13.5c0-.75-.1-1.35-.31-1.81-.21-.46-.69-.69-1.44-.69h-.5v-.5h6.5c.42,0,.9.03,1.45.09.55.06,1.1.17,1.66.34.56.17,1.07.42,1.55.75.48.33.86.77,1.15,1.3.29.53.44,1.2.44,2,0,.95-.2,1.71-.61,2.29-.41.57-.92,1.01-1.54,1.31-.62.3-1.23.52-1.85.67l2.62,4.37c.63,1.07,1.2,1.8,1.7,2.19s1.06.62,1.67.69v.5c-.13.07-.34.12-.61.17-.27.05-.58.08-.91.08Zm-8.73-8.75h1.8c.37,0,.77-.07,1.22-.2.45-.13.88-.34,1.3-.61.42-.27.76-.64,1.02-1.09.27-.45.4-1,.4-1.65s-.13-1.2-.4-1.65c-.27-.45-.61-.82-1.02-1.1-.42-.28-.85-.49-1.3-.62-.45-.13-.86-.2-1.22-.2-.27,0-.57.02-.91.08-.34.05-.64.11-.89.17v6.88Z"/>
  <path class="cls-1" d="m95.48,23.5c-.57,0-1.09-.11-1.56-.34-.48-.23-.94-.6-1.4-1.12-.46-.53-.96-1.25-1.51-2.16l-2.5-4.25h-1.75v7.62h-2.25v-13.5c0-.75-.1-1.35-.31-1.81-.21-.46-.69-.69-1.44-.69h-.5v-.5h6.5c.42,0,.9.03,1.45.09.55.06,1.1.17,1.66.34.56.17,1.07.42,1.55.75.48.33.86.77,1.15,1.3.29.53.44,1.2.44,2,0,.95-.2,1.71-.61,2.29-.41.57-.92,1.01-1.54,1.31-.62.3-1.23.52-1.85.67l2.62,4.37c.63,1.07,1.2,1.8,1.7,2.19s1.06.62,1.67.69v.5c-.13.07-.34.12-.61.17-.27.05-.58.08-.91.08Zm-8.73-8.75h1.8c.37,0,.77-.07,1.22-.2.45-.13.88-.34,1.3-.61.42-.27.76-.64,1.02-1.09.27-.45.4-1,.4-1.65s-.13-1.2-.4-1.65c-.27-.45-.61-.82-1.02-1.1-.42-.28-.85-.49-1.3-.62-.45-.13-.86-.2-1.22-.2-.27,0-.57.02-.91.08-.34.05-.64.11-.89.17v6.88Z"/>
  <path class="cls-1" d="m105.62,23.75c-1.58,0-2.95-.39-4.11-1.16-1.16-.78-2.05-1.83-2.69-3.15-.63-1.33-.95-2.8-.95-4.44s.32-3.11.95-4.44c.63-1.33,1.53-2.38,2.69-3.15,1.16-.77,2.53-1.16,4.11-1.16s2.95.39,4.11,1.16c1.16.77,2.05,1.82,2.69,3.15.63,1.33.95,2.8.95,4.44s-.32,3.11-.95,4.44c-.63,1.33-1.53,2.38-2.69,3.15-1.16.77-2.53,1.16-4.11,1.16Zm0-1c1.1,0,2.04-.32,2.83-.95.78-.63,1.38-1.53,1.8-2.69.42-1.16.62-2.53.62-4.11s-.21-2.95-.62-4.11-1.02-2.05-1.8-2.69c-.78-.63-1.73-.95-2.83-.95s-2.02.32-2.81.95-1.4,1.53-1.81,2.69-.62,2.53-.62,4.11.21,2.95.62,4.11c.42,1.16,1.02,2.05,1.81,2.69.79.63,1.73.95,2.81.95Z"/>
  <path class="cls-1" d="m119,23.25c-.58,0-1.04-.08-1.36-.22-.32-.15-.55-.44-.69-.88s-.2-1.07-.2-1.9V6.75h2.25v13.5c0,.75.1,1.35.31,1.81.21.46.69.69,1.44.69h.5v.5h-2.25Z"/>
  <path class="cls-1" d="m135.27,23.5c-.57,0-1.09-.11-1.56-.34-.48-.23-.94-.6-1.4-1.12-.46-.53-.96-1.25-1.51-2.16l-2.5-4.25h-1.75v7.62h-2.25v-13.5c0-.75-.1-1.35-.31-1.81-.21-.46-.69-.69-1.44-.69h-.5v-.5h6.5c.42,0,.9.03,1.45.09.55.06,1.1.17,1.66.34.56.17,1.07.42,1.55.75.48.33.86.77,1.15,1.3.29.53.44,1.2.44,2,0,.95-.2,1.71-.61,2.29-.41.57-.92,1.01-1.54,1.31-.62.3-1.23.52-1.85.67l2.62,4.37c.63,1.07,1.2,1.8,1.7,2.19s1.06.62,1.67.69v.5c-.13.07-.34.12-.61.17-.27.05-.58.08-.91.08Zm-8.73-8.75h1.8c.37,0,.77-.07,1.22-.2.45-.13.88-.34,1.3-.61.42-.27.76-.64,1.02-1.09.27-.45.4-1,.4-1.65s-.13-1.2-.4-1.65c-.27-.45-.61-.82-1.02-1.1-.42-.28-.85-.49-1.3-.62-.45-.13-.86-.2-1.22-.2-.27,0-.57.02-.91.08-.34.05-.64.11-.89.17v6.88Z"/>
  <path class="cls-1" d="m145.42,23.25v-13.5c0-.75-.1-1.35-.31-1.81-.21-.46-.69-.69-1.44-.69h-.5v-.5h10.65c.58,0,1.03.1,1.33.29.3.19.51.44.62.75.12.31.17.63.17.96v1.88h-.5c0-1-.27-1.73-.81-2.19-.54-.46-1.31-.69-2.31-.69h-4.65v6.5h6.75v1h-6.75v7h4.38c1.13,0,2.03-.21,2.69-.62.66-.42,1.18-1.12,1.56-2.12l.5.12-.88,2.38c-.13.38-.35.69-.66.91-.31.22-.71.34-1.21.34h-8.62Z"/>
  <path class="cls-1" d="m158.55,23.25l6.25-8.12-3.5-5.12c-.28-.42-.59-.83-.92-1.24-.33-.41-.74-.75-1.23-1.04-.48-.28-1.1-.44-1.85-.48v-.5h3c.55,0,1.03.14,1.45.42.42.28.79.64,1.12,1.06.33.43.64.85.92,1.26l2.5,3.75,5-6.5h1.25l-5.62,7.38,4,5.87c.28.42.6.83.96,1.24.36.41.76.75,1.2,1.03.44.28.93.44,1.46.49v.5h-2.62c-.53,0-1.01-.14-1.44-.42-.42-.28-.81-.64-1.15-1.06-.34-.42-.65-.85-.91-1.26l-3-4.5-5.62,7.25h-1.25Z"/>
  <path class="cls-1" d="m176.85,23.25v-13.5c0-.75-.1-1.35-.31-1.81-.21-.46-.69-.69-1.44-.69h-.5v-.5h6.5c.43,0,.92.03,1.46.09.54.06,1.09.18,1.65.38.56.19,1.07.47,1.55.84.48.37.86.85,1.15,1.45s.44,1.35.44,2.25c0,.85-.14,1.56-.42,2.14-.28.57-.65,1.04-1.11,1.39s-.94.61-1.44.79-.97.29-1.42.35c-.45.06-.82.09-1.1.09h-2.75v6.75h-2.25Zm2.25-7.62h1.88c.35,0,.74-.07,1.18-.2.43-.13.86-.36,1.27-.67.42-.32.76-.73,1.02-1.24s.4-1.14.4-1.89-.13-1.38-.4-1.89c-.27-.51-.61-.92-1.02-1.24-.42-.32-.84-.54-1.27-.67-.43-.13-.83-.2-1.18-.2-.32,0-.65.02-.99.08-.34.05-.64.11-.89.17v7.75Z"/>
  <path class="cls-1" d="m190.65,23.25v-13.5c0-.75-.1-1.35-.31-1.81-.21-.46-.69-.69-1.44-.69h-.5v-.5h2.25c.58,0,1.04.08,1.36.23.32.15.55.44.69.88.13.43.2,1.07.2,1.9v12.5h8.88v1h-11.13Z"/>
  <path class="cls-1" d="m209.72,23.75c-1.58,0-2.96-.39-4.11-1.16-1.16-.78-2.05-1.83-2.69-3.15-.63-1.33-.95-2.8-.95-4.44s.32-3.11.95-4.44c.63-1.33,1.53-2.38,2.69-3.15s2.53-1.16,4.11-1.16,2.95.39,4.11,1.16c1.16.77,2.05,1.82,2.69,3.15.63,1.33.95,2.8.95,4.44s-.32,3.11-.95,4.44c-.63,1.33-1.53,2.38-2.69,3.15-1.16.77-2.53,1.16-4.11,1.16Zm0-1c1.1,0,2.04-.32,2.82-.95.78-.63,1.38-1.53,1.8-2.69.42-1.16.62-2.53.62-4.11s-.21-2.95-.62-4.11c-.42-1.16-1.02-2.05-1.8-2.69s-1.72-.95-2.82-.95-2.02.32-2.81.95c-.79.63-1.4,1.53-1.81,2.69-.42,1.16-.62,2.53-.62,4.11s.21,2.95.62,4.11c.42,1.16,1.02,2.05,1.81,2.69.79.63,1.73.95,2.81.95Z"/>
  <path class="cls-1" d="m232.07,23.5c-.57,0-1.09-.11-1.56-.34-.47-.23-.94-.6-1.4-1.12-.46-.53-.96-1.25-1.51-2.16l-2.5-4.25h-1.75v7.62h-2.25v-13.5c0-.75-.1-1.35-.31-1.81-.21-.46-.69-.69-1.44-.69h-.5v-.5h6.5c.42,0,.9.03,1.45.09.55.06,1.1.17,1.66.34.56.17,1.08.42,1.55.75.47.33.86.77,1.15,1.3.29.53.44,1.2.44,2,0,.95-.21,1.71-.61,2.29-.41.57-.92,1.01-1.54,1.31-.62.3-1.23.52-1.85.67l2.62,4.37c.63,1.07,1.2,1.8,1.7,2.19s1.06.62,1.68.69v.5c-.13.07-.34.12-.61.17-.27.05-.58.08-.91.08Zm-8.72-8.75h1.8c.37,0,.77-.07,1.22-.2.45-.13.88-.34,1.3-.61.42-.27.76-.64,1.03-1.09.27-.45.4-1,.4-1.65s-.13-1.2-.4-1.65c-.27-.45-.61-.82-1.03-1.1-.42-.28-.85-.49-1.3-.62s-.86-.2-1.22-.2c-.27,0-.57.02-.91.08-.34.05-.64.11-.89.17v6.88Z"/>
  <path class="cls-1" d="m248.87,23.37c-.37,0-.82-.07-1.35-.21-.53-.14-1.06-.44-1.58-.9-.52-.46-.96-1.17-1.33-2.14l-.62-1.62h-7l-2,4.75h-1.12l7-16.5h.75l5.5,13.37c.4.93.78,1.59,1.15,1.96.37.38.9.6,1.6.66v.5c-.13.03-.29.06-.46.09-.18.02-.35.04-.54.04Zm-11.5-5.87h6.12l-3-7.25-3.12,7.25Z"/>
  <path class="cls-1" d="m254.07,23.25V7.75h-2.25c-1,0-1.77.23-2.31.69-.54.46-.81,1.19-.81,2.19h-.5v-1.88c0-.33.06-.65.17-.96.12-.31.33-.56.64-.75.31-.19.75-.29,1.31-.29h11.62v1h-5.62v15.5h-2.25Z"/>
  <path class="cls-1" d="m266.72,23.25c-.58,0-1.04-.08-1.36-.22-.33-.15-.55-.44-.69-.88s-.2-1.07-.2-1.9V6.75h2.25v13.5c0,.75.1,1.35.31,1.81.21.46.69.69,1.44.69h.5v.5h-2.25Z"/>
  <path class="cls-1" d="m278.1,23.75c-1.58,0-2.96-.39-4.11-1.16-1.16-.78-2.05-1.83-2.69-3.15-.63-1.33-.95-2.8-.95-4.44s.32-3.11.95-4.44c.63-1.33,1.53-2.38,2.69-3.15s2.53-1.16,4.11-1.16,2.95.39,4.11,1.16c1.16.77,2.05,1.82,2.69,3.15.63,1.33.95,2.8.95,4.44s-.32,3.11-.95,4.44c-.63,1.33-1.53,2.38-2.69,3.15-1.16.77-2.53,1.16-4.11,1.16Zm0-1c1.1,0,2.04-.32,2.82-.95.78-.63,1.38-1.53,1.8-2.69.42-1.16.62-2.53.62-4.11s-.21-2.95-.62-4.11c-.42-1.16-1.02-2.05-1.8-2.69s-1.72-.95-2.82-.95-2.02.32-2.81.95c-.79.63-1.4,1.53-1.81,2.69-.42,1.16-.62,2.53-.62,4.11s.21,2.95.62,4.11c.42,1.16,1.02,2.05,1.81,2.69.79.63,1.73.95,2.81.95Z"/>
  <path class="cls-1" d="m301.32,23.5l-10.75-13.37v13.12h-1v-13.5c0-.75-.16-1.35-.47-1.81-.32-.46-.91-.69-1.78-.69h-.25v-.5h1.62c.82,0,1.49.13,2.01.4.52.27.98.63,1.36,1.1l8.75,10.87V6.75h1v16.75h-.5Z"/>
</svg>