<?xml version="1.0" encoding="UTF-8"?>
<svg id="_圖層_1" data-name="圖層 1" xmlns="http://www.w3.org/2000/svg" viewBox="0 0 140 40">
  <defs>
    <style>
      .cls-1 {
        fill: #736635;
      }
    </style>
  </defs>
  <path class="cls-1" d="m8.78,16.27V6.54c0-.54-.08-.97-.23-1.3-.15-.33-.5-.5-1.04-.5h-.36v-.36h4.68c.31,0,.66.02,1.05.06.39.04.79.13,1.19.27.4.14.77.34,1.12.6.34.26.62.61.83,1.04s.31.97.31,1.62c0,.61-.1,1.12-.31,1.54-.2.41-.47.75-.8,1s-.67.44-1.03.57c-.36.13-.7.21-1.03.25-.32.04-.59.06-.79.06h-1.98v4.86h-1.62Zm1.62-5.49h1.35c.25,0,.53-.05.85-.14.31-.1.62-.26.92-.49.3-.23.55-.52.74-.89.19-.37.29-.82.29-1.36s-.1-.99-.29-1.36c-.19-.37-.44-.66-.74-.89-.3-.23-.61-.39-.92-.49-.31-.1-.59-.14-.85-.14-.23,0-.47.02-.71.05-.25.04-.46.08-.64.13v5.58Z"/>
  <path class="cls-1" d="m18.72,16.27V6.54c0-.54-.08-.97-.23-1.3-.15-.33-.5-.5-1.04-.5h-.36v-.36h7.67c.42,0,.74.07.95.21.22.14.37.32.45.54s.13.45.13.69v1.35h-.36c0-.72-.2-1.25-.58-1.58-.39-.33-.94-.5-1.67-.5h-3.35v4.68h4.86v.72h-4.86v5.04h3.15c.82,0,1.46-.15,1.93-.45s.85-.81,1.12-1.53l.36.09-.63,1.71c-.1.28-.25.5-.48.66-.22.16-.51.24-.87.24h-6.21Z"/>
  <path class="cls-1" d="m37.24,16.45c-.41,0-.78-.08-1.12-.24-.34-.16-.68-.43-1.01-.81s-.69-.9-1.09-1.56l-1.8-3.06h-1.26v5.49h-1.62V6.54c0-.54-.08-.97-.23-1.3-.15-.33-.5-.5-1.04-.5h-.36v-.36h4.68c.3,0,.65.02,1.04.06s.79.12,1.2.24c.4.12.77.3,1.12.54.34.24.62.55.83.94.21.38.31.86.31,1.44,0,.68-.15,1.23-.44,1.65-.29.41-.66.73-1.11.95-.44.22-.89.38-1.33.49l1.89,3.15c.46.77.86,1.29,1.22,1.58.36.28.76.45,1.21.5v.36c-.1.05-.24.09-.44.13-.2.04-.42.05-.66.05Zm-6.28-6.3h1.3c.26,0,.56-.05.88-.14.32-.1.64-.24.94-.44.3-.2.55-.46.74-.78.19-.32.29-.72.29-1.19s-.1-.86-.29-1.19c-.19-.32-.44-.59-.74-.79-.3-.2-.61-.35-.94-.45-.32-.1-.62-.14-.88-.14-.19,0-.41.02-.66.05-.25.04-.46.08-.64.13v4.95Z"/>
  <path class="cls-1" d="m43.22,16.57c-.48,0-.96-.05-1.45-.15s-.93-.25-1.33-.44c-.4-.19-.72-.42-.96-.69-.24-.27-.36-.57-.36-.91v-1.93h.32c.2,1.21.6,2.08,1.2,2.61.59.53,1.4.79,2.42.79.41,0,.79-.07,1.15-.21.36-.14.65-.34.87-.62.22-.28.33-.61.33-1.01,0-.53-.17-.98-.5-1.35-.33-.37-.83-.75-1.48-1.13l-2.21-1.31c-.77-.46-1.31-.92-1.63-1.39-.32-.47-.48-1.04-.48-1.71,0-.92.32-1.67.96-2.22.64-.56,1.48-.84,2.53-.84.44,0,.89.05,1.35.14.46.1.88.24,1.26.42.38.19.69.41.93.68.23.26.35.57.35.92v1.93h-.32c-.2-1.21-.59-2.08-1.17-2.59-.58-.52-1.37-.77-2.39-.77-.35,0-.68.08-1.01.23-.32.15-.58.36-.78.63-.2.27-.3.59-.3.96,0,.52.17.94.5,1.28.34.34.83.7,1.49,1.08l2.21,1.31c.77.46,1.33.9,1.69,1.32.36.43.54.98.54,1.65,0,1.01-.34,1.81-1.01,2.42-.67.61-1.58.91-2.74.91Z"/>
  <path class="cls-1" d="m54.14,16.62c-1.14,0-2.13-.28-2.96-.84-.83-.56-1.48-1.31-1.94-2.27s-.68-2.02-.68-3.19.23-2.24.68-3.19c.46-.95,1.1-1.71,1.94-2.27.83-.56,1.82-.84,2.96-.84s2.13.28,2.96.84c.83.56,1.48,1.31,1.93,2.27.46.95.68,2.02.68,3.19s-.23,2.24-.68,3.19-1.1,1.71-1.93,2.27-1.82.84-2.96.84Zm0-.72c.79,0,1.47-.23,2.03-.68.56-.46,1-1.1,1.3-1.94.3-.83.45-1.82.45-2.96s-.15-2.13-.45-2.96c-.3-.83-.73-1.48-1.3-1.94-.56-.46-1.24-.68-2.03-.68s-1.46.23-2.03.68-1,1.1-1.31,1.94c-.3.83-.45,1.82-.45,2.96s.15,2.13.45,2.96c.3.83.73,1.48,1.31,1.94s1.25.68,2.03.68Z"/>
  <path class="cls-1" d="m70.86,16.45l-7.74-9.63v9.45h-.72V6.54c0-.54-.11-.97-.34-1.3-.23-.33-.65-.5-1.28-.5h-.18v-.36h1.17c.59,0,1.07.1,1.45.29s.71.46.98.79l6.3,7.83V4.39h.72v12.06h-.36Z"/>
  <path class="cls-1" d="m83.84,16.35c-.26,0-.59-.05-.97-.15-.38-.1-.76-.32-1.13-.65s-.69-.84-.95-1.54l-.45-1.17h-5.04l-1.44,3.42h-.81l5.04-11.88h.54l3.96,9.63c.29.67.56,1.14.83,1.41s.65.43,1.15.48v.36c-.1.02-.21.04-.33.06s-.25.03-.39.03Zm-8.28-4.23h4.41l-2.16-5.22-2.25,5.22Z"/>
  <path class="cls-1" d="m85.98,16.27V6.54c0-.54-.08-.97-.23-1.3-.15-.33-.49-.5-1.03-.5h-.36v-.36h1.62c.42,0,.75.05.98.16.23.11.4.32.5.63s.14.77.14,1.37v9h6.39v.72h-8.01Z"/>
  <path class="cls-1" d="m97.09,16.27c-.42,0-.75-.05-.98-.16-.23-.11-.4-.32-.5-.63-.1-.31-.14-.77-.14-1.37V4.39h1.62v9.72c0,.54.08.98.23,1.31.15.33.5.5,1.04.5h.36v.36h-1.62Z"/>
  <path class="cls-1" d="m99.43,16.27v-.36l7.47-10.8h-4.32c-.72,0-1.28.17-1.67.5s-.58.85-.58,1.58h-.36v-1.35c0-.24.04-.47.13-.69s.24-.4.46-.54c.22-.14.54-.21.95-.21h7.83l-7.65,11.16h7.38v.72h-9.63Z"/>
  <path class="cls-1" d="m111.54,16.27V6.54c0-.54-.08-.97-.23-1.3-.15-.33-.49-.5-1.03-.5h-.36v-.36h7.67c.42,0,.74.07.95.21s.37.32.45.54c.08.22.13.45.13.69v1.35h-.36c0-.72-.2-1.25-.58-1.58s-.95-.5-1.67-.5h-3.35v4.68h4.86v.72h-4.86v5.04h3.15c.82,0,1.46-.15,1.94-.45.47-.3.85-.81,1.12-1.53l.36.09-.63,1.71c-.1.28-.25.5-.48.66-.22.16-.51.24-.87.24h-6.21Z"/>
  <path class="cls-1" d="m122.16,16.27V6.54c0-.54-.08-.97-.23-1.3-.15-.33-.49-.5-1.03-.5h-.36v-.36h4.72c2.38,0,4.15.53,5.32,1.58s1.75,2.48,1.75,4.28c0,1.16-.25,2.2-.75,3.1-.5.91-1.24,1.62-2.21,2.13-.98.52-2.19.77-3.65.77h-3.56Zm3.51-.63c.89,0,1.69-.22,2.39-.65.71-.43,1.27-1.05,1.68-1.85.41-.8.62-1.74.62-2.82s-.2-2-.61-2.79-.97-1.41-1.67-1.85-1.52-.67-2.45-.67c-.26,0-.55.02-.85.07-.31.05-.62.12-.95.22v10.1c.24.05.46.09.67.13.21.04.41.06.61.08.2.02.38.03.55.03Z"/>
  <path class="cls-1" d="m35.47,38.17c-.48,0-.96-.05-1.45-.15-.49-.1-.93-.25-1.33-.44-.4-.19-.72-.42-.96-.69-.24-.27-.36-.57-.36-.91v-1.93h.32c.2,1.21.6,2.08,1.2,2.61.59.53,1.4.79,2.42.79.41,0,.79-.07,1.15-.21.36-.14.65-.34.87-.62.22-.28.33-.61.33-1.01,0-.53-.17-.98-.5-1.35s-.83-.75-1.48-1.13l-2.21-1.31c-.77-.46-1.31-.92-1.63-1.39-.32-.47-.48-1.04-.48-1.71,0-.92.32-1.67.96-2.22.64-.56,1.48-.84,2.53-.84.44,0,.89.05,1.35.14.46.1.88.24,1.26.42.38.19.69.41.93.68.23.26.35.57.35.92v1.93h-.32c-.2-1.21-.59-2.08-1.17-2.59-.58-.52-1.37-.77-2.39-.77-.35,0-.68.08-1.01.23-.32.15-.58.36-.78.63-.2.27-.3.59-.3.96,0,.52.17.94.5,1.28s.83.7,1.49,1.08l2.21,1.31c.77.46,1.33.9,1.69,1.32.36.43.54.97.54,1.65,0,1.01-.34,1.82-1.01,2.42-.67.61-1.58.91-2.74.91Z"/>
  <path class="cls-1" d="m41.89,37.87v-9.72c0-.54-.08-.98-.23-1.31-.15-.33-.5-.5-1.04-.5h-.36v-.36h7.67c.42,0,.74.07.95.21s.37.32.45.54c.08.22.13.45.13.69v1.35h-.36c0-.72-.2-1.25-.58-1.58s-.94-.5-1.67-.5h-3.35v4.68h4.86v.72h-4.86v5.04h3.15c.82,0,1.46-.15,1.94-.45.47-.3.85-.81,1.12-1.53l.36.09-.63,1.71c-.1.28-.25.5-.48.66-.22.16-.51.24-.87.24h-6.21Z"/>
  <path class="cls-1" d="m60.42,38.04c-.41,0-.78-.08-1.12-.24-.34-.16-.68-.43-1.01-.81s-.69-.9-1.09-1.56l-1.8-3.06h-1.26v5.49h-1.62v-9.72c0-.54-.08-.98-.23-1.31-.15-.33-.49-.5-1.03-.5h-.36v-.36h4.68c.3,0,.65.02,1.04.06.4.04.79.12,1.2.24.4.12.77.3,1.12.54.34.24.62.55.83.94.21.38.31.86.31,1.44,0,.68-.15,1.23-.44,1.65-.29.41-.66.73-1.11.94-.44.22-.89.38-1.33.49l1.89,3.15c.46.77.86,1.29,1.22,1.57.36.28.76.45,1.21.5v.36c-.1.05-.24.09-.44.13s-.42.05-.66.05Zm-6.28-6.3h1.3c.26,0,.56-.05.88-.14.32-.1.64-.24.94-.44s.55-.46.74-.78c.19-.32.29-.72.29-1.19s-.1-.86-.29-1.19c-.19-.32-.44-.59-.74-.79-.3-.2-.61-.35-.94-.45s-.62-.14-.88-.14c-.19,0-.41.02-.66.05-.25.04-.46.08-.64.13v4.95Z"/>
  <path class="cls-1" d="m66.7,38.04l-4.18-9.95c-.29-.67-.56-1.14-.83-1.41s-.65-.43-1.15-.48v-.36s.14,0,.28-.02c.14-.01.25-.02.33-.02.3,0,.64.05,1.01.14.37.1.75.31,1.12.63.38.32.71.83,1,1.51l3.08,7.25,3.96-9.36h.86l-5.17,12.06h-.32Z"/>
  <path class="cls-1" d="m75.64,37.87c-.42,0-.75-.05-.98-.16-.23-.11-.4-.32-.5-.63-.1-.31-.14-.77-.14-1.37v-9.72h1.62v9.72c0,.54.08.98.23,1.3.15.33.5.5,1.04.5h.36v.36h-1.62Z"/>
  <path class="cls-1" d="m83.8,38.23c-1.14,0-2.13-.27-2.96-.82s-1.48-1.28-1.94-2.21-.68-1.96-.68-3.09c0-.9.14-1.74.43-2.53s.69-1.47,1.21-2.06c.52-.59,1.11-1.05,1.78-1.39s1.39-.5,2.16-.5c1,0,1.85.14,2.57.42.72.28,1.24.62,1.57,1.02.23.28.36.66.4,1.15s.05,1.01.05,1.55h-.36c-.23-1.18-.65-2.04-1.27-2.59-.62-.55-1.42-.83-2.42-.83-.78,0-1.5.18-2.16.54s-1.19.96-1.58,1.8-.58,1.98-.58,3.42c0,.67.08,1.33.24,1.97.16.64.42,1.22.76,1.74.35.52.79.93,1.34,1.23.55.31,1.2.46,1.97.46.9,0,1.67-.22,2.32-.65.65-.43,1.22-1.06,1.73-1.87l.36.27c-.58,1.13-1.28,1.91-2.11,2.33s-1.78.64-2.84.64Z"/>
  <path class="cls-1" d="m91.3,37.87v-9.72c0-.54-.08-.98-.23-1.31-.15-.33-.49-.5-1.03-.5h-.36v-.36h7.67c.42,0,.74.07.95.21s.37.32.45.54c.08.22.13.45.13.69v1.35h-.36c0-.72-.2-1.25-.58-1.58s-.95-.5-1.67-.5h-3.35v4.68h4.86v.72h-4.86v5.04h3.15c.82,0,1.46-.15,1.94-.45.47-.3.85-.81,1.12-1.53l.36.09-.63,1.71c-.1.28-.25.5-.48.66-.22.16-.51.24-.87.24h-6.21Z"/>
  <path class="cls-1" d="m105.09,38.17c-.48,0-.96-.05-1.45-.15-.49-.1-.93-.25-1.33-.44-.4-.19-.72-.42-.96-.69-.24-.27-.36-.57-.36-.91v-1.93h.32c.2,1.21.6,2.08,1.2,2.61s1.4.79,2.42.79c.41,0,.79-.07,1.15-.21.36-.14.65-.34.87-.62.22-.28.33-.61.33-1.01,0-.53-.17-.98-.5-1.35-.33-.37-.83-.75-1.49-1.13l-2.21-1.31c-.77-.46-1.31-.92-1.63-1.39-.32-.47-.48-1.04-.48-1.71,0-.92.32-1.67.96-2.22.64-.56,1.49-.84,2.53-.84.44,0,.89.05,1.35.14.46.1.88.24,1.26.42.38.19.69.41.93.68.23.26.35.57.35.92v1.93h-.32c-.2-1.21-.59-2.08-1.17-2.59-.58-.52-1.38-.77-2.39-.77-.35,0-.68.08-1.01.23s-.58.36-.78.63-.3.59-.3.96c0,.52.17.94.5,1.28s.83.7,1.49,1.08l2.21,1.31c.77.46,1.33.9,1.69,1.32.36.43.54.97.54,1.65,0,1.01-.34,1.82-1.01,2.42-.67.61-1.58.91-2.74.91Z"/>
</svg>