<svg fill="none" height="24" viewBox="0 0 24 24" width="24" xmlns="http://www.w3.org/2000/svg"><g fill="rgb(0,0,0)"><path clip-rule="evenodd" d="m8 2.5c-3.03757 0-5.5 2.46243-5.5 5.5v8c0 .0634.00107.1265.0032.1894l3.93155-1.9658c.98535-.4927 2.14515-.4927 3.1305 0l.90345.4517c.8884.4442 1.9555.3204 2.7185-.3155l2.3881-1.99c1.3906-1.1589 3.4355-1.0661 4.7155.2139l1.2092 1.2092v-2.2929c0-.2761.2239-.5.5-.5s.5.2239.5.5v4.5c0 3.5899-2.9101 6.5-6.5 6.5h-8c-3.58985 0-6.5-2.9101-6.5-6.5v-8c0-3.58985 2.91015-6.5 6.5-6.5h6.5c.2761 0 .5.22386.5.5s-.2239.5-.5.5zm0 19c-2.61153 0-4.79794-1.8201-5.35989-4.261l4.24186-2.121c.70382-.3519 1.53225-.3519 2.23606 0l.90347.4518c1.2437.6218 2.7376.4484 3.8059-.4418l2.388-1.99c.9934-.8278 2.454-.7615 3.3683.1528l1.9163 1.9163v.7929c0 3.0376-2.4624 5.5-5.5 5.5z" fill-rule="evenodd"/><path clip-rule="evenodd" d="m11 7.5c0 1.38071-1.11929 2.5-2.5 2.5s-2.5-1.11929-2.5-2.5 1.11929-2.5 2.5-2.5 2.5 1.11929 2.5 2.5zm-1 0c0 .82843-.67157 1.5-1.5 1.5s-1.5-.67157-1.5-1.5.67157-1.5 1.5-1.5 1.5.67157 1.5 1.5z" fill-rule="evenodd"/><path d="m19 2.5c.2761 0 .5.22386.5.5v1.51577l1.5031.00949c.2761.00174.4986.22701.4968.50315-.0017.27613-.227.49857-.5031.49683l-1.4968-.00945v1.48421c0 .27614-.2239.5-.5.5s-.5-.22386-.5-.5v-1.49052l-1.5032-.00949c-.2761-.00175-.4985-.22701-.4968-.50315.0018-.27614.227-.49858.5032-.49683l1.4968.00945v-1.50946c0-.27614.2239-.5.5-.5z"/></g></svg>