<?xml version="1.0" encoding="utf-8"?>
<!-- Generator: Adobe Illustrator 28.1.0, SVG Export Plug-In . SVG Version: 6.00 Build 0)  -->
<svg version="1.1" id="_圖層_1" xmlns="http://www.w3.org/2000/svg" xmlns:xlink="http://www.w3.org/1999/xlink" x="0px" y="0px"
	 viewBox="0 0 430 100" style="enable-background:new 0 0 430 100;" xml:space="preserve">
<style type="text/css">
	.st0{display:none;}
	.st1{fill:#FFFFFF;}
</style>
<rect class="st0" width="430" height="100"/>
<g>
	<g>
		<path class="st1" d="M158.3,27.8v-4.2c-1.2,1.8-2.5,3.1-3.9,4.2c-0.4-0.7-1-1.3-1.6-1.8c1.8-1.1,3.4-2.7,4.8-4.8h-3.7V19h4.4v-2.6
			h2.4V19h3.7v2.1h-3.7v0.1c0.6,0.4,1.9,1.3,3.9,2.6c0.1,0.1,0.2,0.2,0.3,0.2l-1.4,1.7c-0.5-0.5-1.5-1.3-2.9-2.4v4.4H158.3z
			 M155.3,41.5c-0.7-0.6-1.4-1.2-2-1.6c1-0.5,2-1.2,2.9-1.9c0.9-0.8,1.7-1.6,2.3-2.4l2.4,0.8c-0.7,0.9-1.5,1.9-2.6,2.8
			C157.3,40.1,156.3,40.8,155.3,41.5z M161.2,41.8c-0.1-0.7-0.4-1.4-0.9-2.2c1.7,0.1,2.9,0.1,3.6,0c0.2,0,0.4-0.1,0.5-0.1
			c0.1-0.1,0.1-0.2,0.1-0.4v-4.3h-10.8v-2.2h24v2.2h-10.7v4.4c0,0.7-0.1,1.2-0.2,1.5c-0.2,0.4-0.5,0.6-1,0.8
			C165.1,41.7,163.6,41.8,161.2,41.8z M156.8,30.8v-2.1H175v2.1H156.8z M170.3,27.8v-4.5c-1.3,1.8-2.8,3.3-4.3,4.3
			c-0.6-0.8-1.1-1.4-1.6-1.8c0.9-0.5,1.8-1.1,2.8-2c0.9-0.8,1.7-1.7,2.3-2.7h-3.9V19h4.8v-2.6h2.4V19h4.7v2.1h-4.1
			c0.7,0.9,1.5,1.8,2.4,2.7c0.9,0.8,1.8,1.5,2.7,2c-0.6,0.5-1.1,1.1-1.6,1.8c-1.4-1-2.7-2.4-4-4.2v4.4H170.3z M175.4,41.4
			c-0.6-0.6-1.4-1.4-2.4-2.3c-1-0.9-2-1.7-3-2.4l2-1.2c2.5,1.7,4.3,3.2,5.6,4.5L175.4,41.4z"/>
		<path class="st1" d="M186.5,40.5v-2.6h3.7V22.3h2.7v15.6h5.8V16.5h2.7v8.9h8.6v2.6h-8.6v10h10v2.6H186.5z"/>
		<path class="st1" d="M223.9,28.8c-1.2-0.8-2.7-1.7-4.6-2.7l1.4-1.9c2.3,1.2,3.9,2,4.7,2.5L223.9,28.8z M222.1,41.4l-2.3-1.4
			c1.6-2.7,3-5.7,4.3-8.9l2,1.5C224.9,35.7,223.5,38.7,222.1,41.4z M224.7,21.6c-0.7-0.6-2.2-1.5-4.5-2.9l1.5-1.9
			c2,1.1,3.6,2,4.5,2.6L224.7,21.6z M227.3,41.8V23.4h4.6v-3.2h-5.4v-2.4h18.2v2.4h-5.8v3.2h5v18.3h-2.5v-1.2h-11.6v1.2H227.3z
			 M229.7,33.4h11.6v-2.3h-0.2h-2.4c-0.9,0-1.6-0.2-1.9-0.5c-0.3-0.4-0.5-1-0.5-2v-2.9h-2.1v0.9c0,2.6-1.2,4.5-3.6,5.8
			c-0.2-0.3-0.5-0.6-1-1.1V33.4z M229.7,30.6c1.7-1,2.6-2.4,2.6-4.1v-0.8h-2.6V30.6z M229.7,38.3h11.6v-2.7h-11.6V38.3z M234.2,23.4
			h2.3v-3.2h-2.3V23.4z M239,29.1h1.8c0.2,0,0.4,0,0.5-0.1v-3.4h-2.9v2.9c0,0.3,0,0.4,0.1,0.5C238.6,29.1,238.7,29.1,239,29.1z"/>
		<path class="st1" d="M254,26.3c-0.3-0.7-0.7-1.3-1.4-1.8c2.3-0.8,3.8-2.2,4.5-4.2h-3.7v-2h4.2c0.1-0.4,0.1-1.1,0.2-1.9h2.4
			c0,0.5-0.1,1.1-0.2,1.9h5.7c0,0.3,0,0.6-0.1,0.9c-0.1,1.6-0.3,2.7-0.4,3.5c-0.2,0.8-0.4,1.3-0.6,1.6c-0.4,0.4-0.9,0.6-1.5,0.7
			c-0.7,0.1-1.6,0.1-2.6,0c0-0.7-0.2-1.3-0.6-1.9c0.8,0.1,1.5,0.1,2,0.1c0.3,0,0.5-0.1,0.7-0.2c0.2-0.2,0.4-1.1,0.6-2.6h-3.7
			c-0.4,1.4-1,2.6-1.9,3.5C256.8,24.8,255.6,25.7,254,26.3z M254.9,41.8l-2.1-1.3c1.1-1,2.1-2.3,3.2-4.1l2.1,1.1
			c-0.1,0.2-0.3,0.5-0.6,0.9C256.3,40,255.5,41.2,254.9,41.8z M271.2,41.8c-0.1-0.8-0.3-1.5-0.6-2c0.9,0.1,1.7,0.1,2.2,0.1
			c0.4,0,0.6-0.1,0.8-0.2c0.3-0.4,0.6-1.5,0.8-3.4h-16.3v0h-1.8V25.8h18.8v1.7h-7.6v1.3h6.5v1.5h-6.5v1.3h6.5v1.5h-6.5v1.4h9.4
			c0,0.3,0,0.6-0.1,0.9c-0.2,1.8-0.4,3.1-0.6,4c-0.2,0.9-0.5,1.5-0.8,1.8c-0.4,0.4-0.9,0.7-1.6,0.7
			C273.5,41.9,272.5,41.9,271.2,41.8z M259,28.8h6.2v-1.3H259V28.8z M259,31.6h6.2v-1.3H259V31.6z M259,34.5h6.2v-1.4H259V34.5z
			 M260.4,41.5c-0.1-1-0.3-2.3-0.8-4l2.2-0.4c0.5,1.5,0.8,2.8,0.9,3.9L260.4,41.5z M265.6,41.1c-0.3-1.1-0.8-2.3-1.5-3.6l1.9-0.6
			c0.8,1.3,1.3,2.4,1.6,3.5L265.6,41.1z M267.1,24.6v-6.9h9.8v6.9H267.1z M270.3,40c-0.4-0.8-1.1-1.7-1.9-2.7l1.8-0.7
			c0.9,0.9,1.6,1.8,2,2.6L270.3,40z M269.5,22.6h5v-3h-5V22.6z"/>
	</g>
	<g>
		<g>
			<path class="st1" d="M35.9,36.9c9.3,0,16.8,7.5,16.9,16.9c0,9.3-7.5,16.9-16.8,16.9c-9.3,0-16.9-7.5-16.9-16.9
				C19,44.5,26.5,36.9,35.9,36.9z M27.7,43.1C34,49.4,40.3,55.7,46.6,62c3.8-4.8,4-12.6-1.2-17.8C40.2,39.1,32.5,39.3,27.7,43.1z
				 M25.2,45.6c-3.9,4.9-4.1,13,1.5,18.2c5.4,5,13.1,4.3,17.3,0.7C37.8,58.2,31.5,51.9,25.2,45.6z"/>
		</g>
		<g>
			<path class="st1" d="M394.1,36.9c9.3,0,16.8,7.5,16.9,16.9c0,9.3-7.5,16.9-16.8,16.9c-9.3,0-16.9-7.5-16.9-16.9
				C377.3,44.5,384.8,36.9,394.1,36.9z M386,43.1c6.3,6.3,12.6,12.6,18.9,18.9c3.8-4.8,4-12.6-1.2-17.8
				C398.5,39.1,390.7,39.3,386,43.1z M383.5,45.6c-3.9,4.9-4.1,13,1.5,18.2c5.4,5,13.1,4.3,17.3,0.7C396,58.2,389.8,51.9,383.5,45.6
				z"/>
		</g>
	</g>
	<g>
		<path class="st1" d="M82.2,79v-9.5c-1.3,1.7-2.8,3.2-4.5,4.6c-1.7,1.4-3.4,2.6-5.1,3.4c-0.5-0.8-1.2-1.5-1.9-2.2
			c1.9-0.8,3.7-2,5.5-3.4c1.8-1.5,3.3-3,4.5-4.7h-9.3v-2.5h10.6v-4.2h-8.6v-2.5h8.6v-4.3h2.7v4.3h8.9v2.5h-8.9v4.2h10.8v2.5h-9.5
			c1.2,1.7,2.8,3.2,4.6,4.7c1.8,1.5,3.7,2.6,5.5,3.4c-0.5,0.5-1.2,1.2-1.9,2.2c-1.7-0.9-3.4-2-5.1-3.5c-1.7-1.4-3.2-3-4.5-4.7V79
			H82.2z"/>
		<path class="st1" d="M108.2,65.9c-0.4-0.4-1.1-0.9-1.9-1.4c-0.9-0.5-1.7-0.9-2.5-1.3l1.4-1.9c2,0.8,3.5,1.6,4.4,2.5L108.2,65.9z
			 M106.7,78.7l-2.3-1.3c1.3-2.5,2.5-5.4,3.7-8.7l2.1,1.3C109,73.1,107.9,76,106.7,78.7z M111.2,79V64.2h7.3v-1.6h-3.9v-4.1h-3.9
			v-1.5l-1.5,1.9c-0.9-0.9-2.3-1.9-4.2-2.9l1.4-1.8c1.8,0.8,3.2,1.6,4.3,2.6v-0.6h3.9v-2.3h2.4v2.3h5.3v-2.3h2.5v2.3h4.1v2.3h-4.1
			v4.1h-4.1v1.6h7.5v12.5c0,0.5-0.1,0.9-0.2,1.2c-0.1,0.3-0.4,0.5-0.7,0.7c-0.5,0.2-1.6,0.3-3.4,0.3c-0.1-0.7-0.4-1.4-0.6-1.9
			c0.7,0,1.4,0,2.3,0c0.3,0,0.4-0.1,0.4-0.4v-2.2c-0.4,0.3-0.7,0.6-0.9,0.9c-0.7-0.7-1.2-1.7-1.6-2.9c-0.4,1.3-1.1,2.3-1.9,3
			c-0.3-0.4-0.6-0.7-0.9-0.9v4.3h-2.2v-4.2c-0.3,0.3-0.6,0.5-0.8,0.8c-0.6-0.7-1.1-1.6-1.5-2.9c-0.4,1.3-1,2.4-1.9,3.1
			c-0.2-0.4-0.5-0.7-1-1V79H111.2z M113.4,74.5c1.1-0.9,1.7-2.4,1.9-4.4h0.5c0-0.3,0-0.6-0.1-0.9h-1.4v-1.6h2.7
			c0.1,3,0.6,5.1,1.6,6.3v-7.6h-5.1V74.5z M117,60.4h5.3v-2H117V60.4z M120.7,74.2c1.1-0.9,1.7-2.3,1.8-4.1h0.5c0-0.2,0-0.5-0.1-0.9
			h-1.4v-1.6h2.6c0.1,3.1,0.7,5.2,1.8,6.3v-7.6h-5.3V74.2z"/>
		<path class="st1" d="M148.1,79V66.5h-10.8v-2.6h10.8v-10h2.8v10h10.9v2.6h-10.9V79H148.1z"/>
		<path class="st1" d="M171.8,79.1c-0.9-0.9-1.6-1.5-2.1-1.9c3.5-3.1,5.7-8.4,6.6-15.9l3,0.4c-0.6,3.7-1.5,6.9-2.4,9.5
			C175.5,74.6,173.9,77.2,171.8,79.1z M192.4,79c-2.2-2-4-4.9-5.2-8.6c-1-3.1-1.8-7-2.2-11.8h-9.4v-2.7h11.8
			c0.4,5.1,1.2,9.2,2.2,12.4c1.2,3.9,3,6.8,5.4,8.7C194.2,77.4,193.3,78,192.4,79z"/>
		<path class="st1" d="M204.5,79.1c-0.5-0.5-1.2-0.9-2.1-1.3c1.6-2,2.3-5.1,2.3-9.3V64h12.1c-0.1-0.9-0.1-1.6-0.1-2.1h-13.5v-2.1
			h4.3v-4.7h2.4v4.7h4.5v-5.9h2.5V56h8v1.9h-8v1.8h10.4v2.1h-4c1,0.6,1.8,1.1,2.3,1.5L225,64h2.1v2.1h-7.7c0.3,2.1,0.7,4,1.3,5.7
			c1-1.4,1.8-3,2.4-4.7l2.3,0.5c-0.9,2.4-2.1,4.6-3.6,6.6c1,1.7,1.9,2.6,3,2.6c0.3,0,0.6-0.3,0.7-0.8c0.2-0.6,0.3-1.5,0.3-2.8
			c0.6,0.5,1.2,0.9,1.9,1.1c-0.2,1.9-0.5,3.1-1,3.8c-0.4,0.6-1.2,1-2.1,1c-1.7,0-3.2-1-4.5-3.1c-1.2,1.1-2.4,2.1-3.9,3
			c-0.6-0.7-1.2-1.3-1.8-1.8c1.7-0.9,3.2-2,4.6-3.3c-0.9-2.1-1.6-4.7-2-7.7h-10v2.5c0,2-0.2,3.7-0.5,5.4c1-0.9,1.7-2.2,2.2-3.8
			l1.8,0.4c-0.5,1.8-1.4,3.3-2.5,4.5c-0.3-0.3-0.8-0.6-1.6-1C206.2,76.1,205.5,77.8,204.5,79.1z M208.5,79c-0.4-0.7-0.8-1.2-1.1-1.5
			c1.6-0.5,3.1-1.2,4.4-2.1c-0.2,0-0.6,0-1.2,0c-0.1-0.3-0.3-0.9-0.7-1.6c0.4,0,0.9,0,1.4,0c0.2,0,0.3-0.1,0.3-0.3v-4.4h-3.4v-1.8
			h8.5v1.8h-3v4.4v0.1c0.9-1.1,1.4-2.2,1.7-3.3l2,0.3c-0.6,2-1.7,3.7-3.2,5.1C212.6,77.2,210.7,78.3,208.5,79z M219.2,64h4.1
			c-0.8-0.5-1.6-1.1-2.6-1.5l0.6-0.5H219C219,62.4,219.1,63.1,219.2,64z"/>
		<path class="st1" d="M240.9,65.2V61c-1.2,1.7-2.5,3.1-3.8,4.1c-0.4-0.7-0.9-1.3-1.6-1.8c1.8-1.1,3.4-2.7,4.7-4.8h-3.7v-2.1h4.4
			v-2.6h2.4v2.6h3.6v2.1h-3.6v0.1c0.6,0.4,1.9,1.2,3.9,2.6c0.1,0.1,0.2,0.2,0.3,0.2l-1.3,1.7c-0.5-0.5-1.5-1.3-2.8-2.4v4.3H240.9z
			 M237.8,78.7c-0.7-0.6-1.3-1.2-2-1.6c1-0.5,2-1.1,2.9-1.9c0.9-0.8,1.7-1.5,2.2-2.3l2.4,0.8c-0.7,0.9-1.5,1.9-2.6,2.8
			C239.8,77.3,238.8,78.1,237.8,78.7z M243.7,79.1c-0.1-0.7-0.4-1.4-0.9-2.2c1.7,0.1,2.9,0.1,3.5,0c0.2,0,0.4-0.1,0.5-0.1
			c0.1-0.1,0.1-0.2,0.1-0.4v-4.3h-10.7v-2.2h23.8v2.2h-10.6v4.4c0,0.7-0.1,1.1-0.2,1.5c-0.2,0.3-0.5,0.6-1,0.8
			C247.5,78.9,246,79.1,243.7,79.1z M239.3,68.1V66h18v2.1H239.3z M252.7,65.2v-4.5c-1.3,1.8-2.8,3.2-4.3,4.3
			c-0.5-0.8-1.1-1.4-1.6-1.8c0.9-0.5,1.8-1.1,2.7-1.9c0.9-0.8,1.6-1.7,2.3-2.7H248v-2.1h4.7v-2.6h2.4v2.6h4.7v2.1h-4.1
			c0.7,0.9,1.4,1.8,2.3,2.6c0.9,0.8,1.8,1.5,2.6,2c-0.6,0.5-1.1,1-1.6,1.8c-1.4-1-2.7-2.4-4-4.1v4.3H252.7z M257.7,78.6
			c-0.5-0.6-1.4-1.4-2.4-2.2c-1-0.9-2-1.6-3-2.3l2-1.2c2.4,1.7,4.3,3.2,5.5,4.5L257.7,78.6z"/>
		<path class="st1" d="M268.7,77.7v-2.5h3.6V59.7h2.6v15.4h5.8V53.9h2.7v8.8h8.6v2.6h-8.6v9.9h9.9v2.5H268.7z"/>
		<path class="st1" d="M302.4,61.9c-0.5-0.6-1-1.1-1.6-1.6c1.2-0.9,2.3-1.9,3.2-3.2c0.8-1.1,1.5-2.2,2-3.3h2.5
			c2,1.7,3.6,3.3,4.6,4.7l-1.5,1.8c-0.3-0.5-0.7-1-1.1-1.5v1.6H305v-1C304.1,60.4,303.3,61.2,302.4,61.9z M303,79.1V61.8h8.8v2.6
			c1.7-2.3,2.8-5.9,3.5-10.6l2.4,0.4c-0.3,1.6-0.6,3.1-0.9,4.5h7.4l0.4-0.1l1.7,0.4c-0.6,3.3-1.2,5.7-2,7.3l-2-0.7
			c0.4-1.1,0.8-2.6,1.2-4.7h-3.2v3.2c0,1.9,0.4,3.8,1.2,5.9c1.1,3,2.8,5.2,5.1,6.7c-0.6,0.7-1.1,1.4-1.6,2.2
			c-1.8-1.2-3.2-2.9-4.3-5.1c-0.8-1.7-1.3-3.3-1.6-4.9c-0.2,1.6-0.8,3.2-1.7,4.8c-1.2,2.2-2.8,4-4.8,5.2c-0.5-0.9-1-1.6-1.5-2.1
			c0.2-0.1,0.5-0.3,0.7-0.5h-6.7v2.6H303z M312.1,76.3c2.1-1.6,3.7-3.7,4.7-6.5c0.7-1.9,1-3.7,1-5.5V61h-1.7
			c-0.7,2.2-1.6,3.9-2.5,5.1c-0.5-0.4-1.1-0.8-1.9-1.2v4.7h-6.7v1.4h6.7V73h-6.7v1.5h7V76.3z M305.2,64.9h4.6v-1.4h-4.6V64.9z
			 M305.2,68h4.6v-1.5h-4.6V68z M305.7,58.7h4.7c-0.9-1.1-1.8-2-2.7-2.9C307.1,56.8,306.4,57.8,305.7,58.7z"/>
		<path class="st1" d="M338.7,66.1c-1.2-0.8-2.7-1.7-4.6-2.7l1.4-1.9c2.3,1.2,3.8,2,4.6,2.5L338.7,66.1z M336.9,78.6l-2.3-1.4
			c1.6-2.7,3-5.6,4.3-8.8l2,1.5C339.6,73,338.3,75.9,336.9,78.6z M339.5,59c-0.7-0.6-2.2-1.5-4.4-2.8l1.5-1.8c2,1.1,3.5,1.9,4.5,2.6
			L339.5,59z M342,79V60.9h4.5v-3.2h-5.4v-2.3h18v2.3h-5.8v3.2h4.9v18.1h-2.4v-1.2h-11.5V79H342z M344.4,70.8h11.5v-2.2h-0.2h-2.3
			c-0.9,0-1.6-0.2-1.9-0.5c-0.3-0.3-0.5-1-0.5-2v-2.9h-2.1v0.9c0,2.5-1.2,4.4-3.5,5.7c-0.2-0.3-0.5-0.6-1-1V70.8z M344.4,68
			c1.7-1,2.6-2.4,2.6-4.1v-0.8h-2.6V68z M344.4,75.6h11.5v-2.6h-11.5V75.6z M348.8,60.9h2.3v-3.2h-2.3V60.9z M353.6,66.5h1.8
			c0.2,0,0.4,0,0.5-0.1v-3.3H353v2.9c0,0.3,0,0.4,0.1,0.5S353.3,66.5,353.6,66.5z"/>
	</g>
</g>
</svg>
