<?xml version="1.0" encoding="UTF-8"?>
<svg id="_圖層_1" data-name="圖層_1" xmlns="http://www.w3.org/2000/svg" version="1.1" viewBox="0 0 153 53">
  <!-- Generator: Adobe Illustrator 29.5.1, SVG Export Plug-In . SVG Version: 2.1.0 Build 141)  -->
  <defs>
    <style>
      .st0 {
        fill: #ffd7a1;
      }

      .st1 {
        font-family: NotoSansSC-SemiBold, 'Noto Sans SC';
        font-size: 16.82px;
        font-weight: 600;
      }

      .st2 {
        fill: #527b9f;
      }

      .st3 {
        fill: #fff;
      }
    </style>
  </defs>
  <text class="st1" transform="translate(-29.09 92.85)"><tspan x="0" y="0"> </tspan></text>
  <g>
    <g>
      <path class="st2" d="M42.04,25.93c-1.26-2.36-4.19-3.25-6.54-1.99-1.48.79-2.38,2.25-2.54,3.8-.39,3.2-2.28,6.17-5.35,7.81-5,2.67-11.22.78-13.88-4.22-2.67-5-.78-11.21,4.22-13.88,3.06-1.63,6.58-1.55,9.46-.1.05.03.11.05.16.08.02.01.04.02.06.03h0c1.34.64,2.95.66,4.35-.09,2.35-1.25,3.24-4.18,1.98-6.53-.49-.92-1.24-1.62-2.11-2.05h0c-5.61-2.87-12.47-3.04-18.45.15C3.7,14.11.03,26.17,5.21,35.88c5.18,9.7,17.24,13.37,26.94,8.19,5.84-3.11,9.48-8.72,10.33-14.81.25-1.09.12-2.27-.45-3.33Z"/>
      <path class="st0" d="M41.45,8.26c-2.27,1.21-3.63,3.46-3.83,5.84-.26,2.47-1.7,4.76-4.05,6.01-2.17,1.16-4.64,1.17-6.73.26-2.16-1.42-5.01-1.65-7.45-.35-3.55,1.9-4.9,6.32-3,9.87,1.9,3.55,6.32,4.9,9.87,3,2.29-1.22,3.66-3.5,3.83-5.91.31-2.4,1.73-4.62,4.03-5.85,2.35-1.25,5.06-1.17,7.25-.02l.02-.03c2.08,1.13,4.67,1.23,6.92.03,3.55-1.9,4.9-6.32,3-9.87-1.9-3.56-6.32-4.9-9.87-3Z"/>
    </g>
    <g>
      <g>
        <path class="st3" d="M66.59,18.32c-.11,1.92-1.07,2.88-2.86,2.88h-2.88c-.78,0-1.46-.28-2.03-.84-.57-.56-.85-1.24-.85-2.03v-7.17c0-.78.28-1.46.84-2.03.56-.57,1.24-.85,2.04-.85h2.88c1.8,0,2.76.96,2.86,2.88h-1.43c-.12-.97-.59-1.45-1.43-1.45h-1.45c-.39,0-.73.14-1.01.42-.28.28-.42.62-.42,1.03v7.17c0,.39.14.73.42,1.02.28.29.62.43,1.01.43h1.45c.85,0,1.33-.48,1.43-1.45h1.43Z"/>
        <path class="st3" d="M69.47,21.19v-10.05c0-.79.28-1.47.85-2.03.57-.56,1.24-.84,2.03-.84h2.88c.78,0,1.45.28,2.02.85s.84,1.24.84,2.03v10.05h-2.86v-5.74h-2.88v5.74h-2.88ZM72.35,14.01h2.88v-2.86c0-.4-.14-.74-.42-1.03-.28-.28-.62-.42-1.03-.42s-.73.14-1.01.42c-.28.28-.42.62-.42,1.03v2.86Z"/>
        <path class="st3" d="M86.72,8.27h2.86v10.05c0,.78-.28,1.46-.84,2.03-.56.57-1.24.85-2.02.85h-2.88c-.78,0-1.46-.28-2.03-.84-.57-.56-.85-1.24-.85-2.03v-10.05h2.88v10.05c0,.39.14.73.42,1.02.28.29.62.43,1.01.43s.74-.14,1.03-.43c.28-.29.42-.63.42-1.02v-10.05Z"/>
        <path class="st3" d="M92.47,21.19v-12.93h2.88v11.5h4.31v1.43h-7.19Z"/>
        <path class="st3" d="M102.51,21.19v-12.93h7.19v1.43h-4.31v4.31h2.88v1.45h-2.88v5.74h-2.88Z"/>
        <path class="st3" d="M114.01,21.19v-12.93h2.86v12.93h-2.86Z"/>
        <path class="st3" d="M121.18,21.19v-12.93h7.19v1.43h-4.31v4.31h2.88v1.45h-2.88v4.31h4.31v1.43h-7.19Z"/>
        <path class="st3" d="M131.23,21.19v-12.93h2.88v11.5h4.31v1.43h-7.19Z"/>
        <path class="st3" d="M141.28,21.19v-12.93h5.76c.78,0,1.45.28,2.02.85.56.57.84,1.24.84,2.03v7.17c0,.78-.28,1.46-.84,2.03-.56.57-1.24.85-2.02.85h-5.76ZM144.16,19.76h1.43c.4,0,.74-.14,1.03-.43.28-.29.42-.63.42-1.02v-7.17c0-.4-.14-.74-.42-1.03-.28-.28-.62-.42-1.03-.42h-1.43v10.07Z"/>
      </g>
      <g>
        <path class="st3" d="M58.17,31.1v-6.07h1.34v6.07h-1.34Z"/>
        <path class="st3" d="M61.54,31.1v-6.07h.32l3.73,3.38v-3.38h.68v6.07h-.31l-3.74-3.38v3.38h-.68Z"/>
        <path class="st3" d="M70.31,25.03h1.34v3.76c0,.63-.23,1.17-.68,1.63-.45.45-.99.68-1.62.68h-1.75v-6.07h1.35v5.4h.67c.19,0,.35-.07.48-.2s.2-.29.2-.48v-4.72Z"/>
        <path class="st3" d="M73.01,31.1v-6.07h3.38v.67h-2.02v2.02h1.35v.68h-1.35v2.02h2.02v.67h-3.38Z"/>
        <path class="st3" d="M81.1,26.38h-.67c-.06-.45-.27-.68-.64-.68-.24,0-.42.06-.53.17-.12.11-.18.28-.18.51,0,.17.07.33.19.48l1.43,1.6c.26.3.4.62.4.96v.33c0,.37-.13.68-.4.95-.26.27-.58.4-.96.4h-.67c-.45,0-.79-.11-1.01-.34s-.34-.56-.34-1.02h.68v.11c0,.18.07.32.21.42.14.1.29.15.46.15.24,0,.41-.06.51-.17s.16-.29.16-.51c0-.17-.06-.33-.19-.48l-1.43-1.6c-.26-.29-.4-.61-.4-.96v-.33c0-.37.13-.68.4-.95.26-.27.58-.4.96-.4h.67c.85,0,1.3.45,1.35,1.35Z"/>
        <path class="st3" d="M83.13,31.1v-5.4h-1.35v-.67h4.05v.67h-1.35v5.4h-1.34Z"/>
        <path class="st3" d="M86.5,31.1v-6.07h.32l2.88,2.87,2.87-2.87h.68v6.07h-1.35v-3.71l-2.36,2.36-2.36-2.36v3.71h-.68Z"/>
        <path class="st3" d="M94.59,31.1v-6.07h3.38v.67h-2.02v2.02h1.35v.68h-1.35v2.02h2.02v.67h-3.38Z"/>
        <path class="st3" d="M99.31,31.1v-6.07h.32l3.73,3.38v-3.38h.68v6.07h-.31l-3.74-3.38v3.38h-.68Z"/>
        <path class="st3" d="M106.06,31.1v-5.4h-1.35v-.67h4.05v.67h-1.35v5.4h-1.34Z"/>
        <path class="st3" d="M112.8,26.38h-.67c-.06-.45-.27-.68-.64-.68-.24,0-.42.06-.53.17-.12.11-.18.28-.18.51,0,.17.07.33.19.48l1.43,1.6c.26.3.4.62.4.96v.33c0,.37-.13.68-.4.95-.26.27-.58.4-.96.4h-.67c-.45,0-.79-.11-1.01-.34s-.34-.56-.34-1.02h.68v.11c0,.18.07.32.21.42.14.1.29.15.46.15.24,0,.41-.06.51-.17s.16-.29.16-.51c0-.17-.06-.33-.19-.48l-1.43-1.6c-.26-.29-.4-.61-.4-.96v-.33c0-.37.13-.68.4-.95.26-.27.58-.4.96-.4h.67c.85,0,1.3.45,1.35,1.35Z"/>
        <path class="st3" d="M116.17,31.1v-6.07h1.35v5.4h2.02v.67h-3.38Z"/>
        <path class="st3" d="M121.57,31.1v-6.07h1.34v6.07h-1.34Z"/>
        <path class="st3" d="M124.94,31.1v-6.07h.32l2.88,2.87,2.87-2.87h.68v6.07h-1.35v-3.71l-2.36,2.36-2.36-2.36v3.71h-.68Z"/>
        <path class="st3" d="M133.71,31.1v-6.07h1.34v6.07h-1.34Z"/>
        <path class="st3" d="M137.76,31.1v-5.4h-1.35v-.67h4.05v.67h-1.35v5.4h-1.34Z"/>
        <path class="st3" d="M141.13,31.1v-6.07h3.38v.67h-2.02v2.02h1.35v.68h-1.35v2.02h2.02v.67h-3.38Z"/>
        <path class="st3" d="M145.85,31.1v-6.07h2.7c.37,0,.68.13.95.4.26.27.4.58.4.95v3.37c0,.37-.13.68-.4.95-.26.27-.58.4-.95.4h-2.7ZM147.2,30.43h.67c.19,0,.35-.07.48-.2.13-.13.2-.29.2-.48v-3.37c0-.19-.07-.35-.2-.48-.13-.13-.29-.2-.48-.2h-.67v4.73Z"/>
      </g>
      <g>
        <path class="st3" d="M65,36.35l.78.45c-.46.59-.99,1.15-1.58,1.67s-1.22,1.02-1.88,1.48-1.36.87-2.08,1.25c-.72.38-1.45.71-2.18,1-.02-.08-.05-.18-.1-.29-.05-.11-.1-.22-.15-.34s-.1-.21-.15-.28c.71-.24,1.41-.54,2.1-.88s1.36-.72,2-1.14c.64-.42,1.24-.88,1.79-1.37.55-.49,1.03-1.01,1.45-1.55ZM57.95,38.63h8.21v.85h-8.21v-.85ZM58.77,36.97h5.2v.82h-5.2v-.82ZM60.63,40.64h1.03c-.14.34-.3.68-.47,1.04-.17.35-.32.66-.44.91h-1.08c.16-.27.33-.59.5-.94.17-.35.32-.69.45-1.01ZM60.66,41.78h3.54v.82h-3.78l.24-.82ZM60.78,40.24h4.44v.78h-4.7l.25-.78ZM61.04,35.96h.99v3.1h-.99v-3.1ZM63.9,41.78h1.02c-.01.1-.02.18-.03.25,0,.07-.02.12-.03.17-.1.62-.21,1.11-.32,1.44-.12.33-.25.57-.42.72-.13.11-.27.19-.42.23-.15.04-.33.07-.55.08-.17,0-.4,0-.7,0-.3,0-.61-.01-.95-.02,0-.14-.04-.3-.1-.47s-.14-.33-.23-.46c.22.02.44.03.67.05.22.01.43.02.61.02.18,0,.32,0,.41,0,.11,0,.2,0,.28-.01.07,0,.14-.03.19-.07.12-.08.23-.27.32-.55s.17-.7.24-1.25l.02-.12Z"/>
        <path class="st3" d="M67.07,42.3h2.99v.94h-2.99v-.94ZM67.21,36.54h8.37v.9h-8.37v-.9ZM67.32,38.86h2.93v.9h-2.93v-.9ZM67.54,40.56h2.66v.88h-2.66v-.88ZM69.31,35.96h.99v2.09h-.99v-2.09ZM69.78,38.22h1.05v6.49h-1.05v-6.49ZM71.96,38.22h1.04v6.46h-1.04v-6.46ZM72.43,35.96h1v2.09h-1v-2.09ZM72.52,40.54h2.71v.88h-2.71v-.88ZM72.53,38.85h2.94v.9h-2.94v-.9ZM72.56,42.26h3.14v.95h-3.14v-.95Z"/>
        <path class="st3" d="M78.42,37.24l.91.32c-.19.21-.41.42-.66.62-.25.2-.52.39-.79.56s-.54.32-.81.46c-.06-.06-.13-.13-.22-.22-.09-.08-.18-.16-.28-.24s-.18-.15-.25-.2c.39-.15.78-.34,1.17-.57.38-.23.7-.48.93-.73ZM76.63,36.5h8.29v.9h-8.29v-.9ZM77.19,38.42h6.64v.82h-5.71v5.48h-.93v-6.29ZM79.41,41.53l.62.15c-.15.44-.35.85-.6,1.25-.25.39-.51.73-.78.99-.06-.06-.14-.12-.25-.2s-.2-.14-.28-.17c.28-.25.53-.55.75-.9.22-.35.4-.72.53-1.11ZM79.4,39.38l.59.14c-.15.38-.34.74-.57,1.1-.23.36-.47.66-.72.91-.05-.05-.13-.11-.23-.19-.11-.07-.2-.13-.27-.17.25-.23.48-.5.69-.82.21-.32.38-.65.52-.98ZM78.27,42.29l.36-.46c.19.1.38.22.57.35.19.13.38.27.55.4.17.13.31.25.42.36l-.37.52c-.11-.12-.25-.25-.43-.39s-.35-.28-.54-.42-.38-.26-.56-.36ZM78.28,40.14l.36-.46c.18.08.37.18.55.3.19.12.36.24.53.36.16.12.3.23.4.33l-.37.51c-.11-.11-.24-.23-.4-.36s-.34-.25-.52-.37c-.18-.12-.37-.22-.55-.31ZM80.25,36.76h.96v7.88h-.96v-7.88ZM82.53,41.52l.61.15c-.16.42-.36.82-.62,1.21-.25.38-.52.71-.8.97-.06-.05-.14-.11-.24-.19-.11-.08-.2-.14-.27-.18.28-.24.54-.53.77-.87.23-.34.42-.7.55-1.08ZM82.49,39.38l.59.14c-.15.39-.34.76-.58,1.12-.24.36-.48.66-.73.91-.05-.04-.13-.1-.23-.18-.11-.08-.2-.13-.27-.17.26-.23.49-.51.7-.83.21-.32.39-.65.53-.99ZM81.34,40.1l.36-.45c.19.09.38.19.58.32.2.12.38.25.55.38s.31.24.42.36l-.38.5c-.11-.11-.25-.24-.43-.37-.17-.13-.35-.27-.54-.39-.19-.13-.38-.24-.56-.33ZM81.35,42.28l.36-.48c.19.09.39.2.59.33.2.12.39.25.57.38s.33.24.44.35l-.36.52c-.12-.11-.27-.23-.45-.36s-.37-.27-.57-.39-.39-.24-.58-.33ZM82.07,37.66l.73-.55c.27.12.56.26.85.41.29.16.57.31.84.47.27.16.49.3.67.44l-.74.62c-.18-.14-.4-.3-.67-.46-.27-.17-.55-.33-.85-.49-.3-.16-.58-.31-.85-.43ZM83.44,38.42h.95v5.31c0,.23-.03.4-.08.53-.06.13-.16.23-.32.29-.16.08-.35.12-.59.14s-.52.02-.85.02c-.02-.12-.06-.26-.12-.42s-.12-.29-.18-.41c.22,0,.43.01.62.01s.33,0,.39,0c.06,0,.11-.02.14-.04.03-.02.04-.07.04-.14v-5.3Z"/>
        <path class="st3" d="M87.73,38.02l.9.32c-.21.41-.44.83-.71,1.26-.27.43-.55.83-.84,1.22-.29.38-.58.72-.88,1.02-.03-.08-.08-.17-.15-.29-.07-.12-.14-.24-.21-.36-.07-.12-.14-.22-.2-.29.26-.24.51-.51.77-.82.26-.31.5-.64.73-.99s.43-.71.6-1.05ZM87.57,35.96l.9.38c-.2.29-.43.59-.69.9-.26.31-.53.61-.8.89-.28.28-.54.54-.8.76-.04-.08-.08-.16-.14-.27-.05-.1-.11-.21-.17-.3-.06-.1-.12-.18-.17-.25.22-.18.45-.39.68-.64.24-.24.46-.49.67-.75.21-.26.38-.49.51-.71ZM86.96,39.97l.47-.48.47.15v5.07h-.94v-4.74ZM88.8,42.19l.76.29c-.08.31-.19.63-.31.98-.13.35-.28.65-.45.91l-.76-.44c.11-.15.22-.32.31-.52.1-.2.18-.4.26-.61.08-.21.14-.42.19-.61ZM88.45,40.93h6.06v.81h-6.06v-.81ZM88.57,36.65h5.9v.81h-5.9v-.81ZM88.92,37.99h5.24v2.46h-5.24v-2.46ZM89.71,38.7v1.02h.72v-1.02h-.72ZM89.77,42.35h.88v1.22c0,.11.02.18.07.22s.15.05.31.05h1.01c.09,0,.16-.02.21-.06.05-.04.08-.12.1-.23.02-.12.03-.29.05-.53.09.06.21.12.36.18.15.06.29.1.41.12-.03.34-.08.6-.15.78-.08.18-.18.31-.32.38-.14.07-.33.11-.56.11h-1.23c-.31,0-.54-.03-.71-.09-.17-.06-.28-.17-.34-.31-.06-.15-.09-.35-.09-.6v-1.23ZM90.78,41.92l.74-.25c.11.17.23.37.35.58.12.21.22.39.29.53l-.78.3c-.06-.15-.15-.34-.27-.56-.12-.22-.23-.42-.33-.6ZM91.03,35.93l1.05.04c-.03.28-.07.55-.11.83-.04.28-.08.54-.12.79-.04.25-.08.47-.12.66l-.94-.06c.04-.21.07-.44.1-.71s.06-.53.08-.81c.02-.27.04-.52.05-.75ZM91.14,38.7v1.02h.75v-1.02h-.75ZM92.57,38.7v1.02h.77v-1.02h-.77ZM92.85,42.45l.73-.32c.14.18.27.38.4.59.13.21.25.42.36.63.11.21.18.4.23.56l-.79.36c-.05-.16-.12-.35-.22-.56-.09-.21-.2-.43-.33-.65-.13-.22-.26-.42-.39-.6Z"/>
        <path class="st3" d="M95.08,40.78c.39-.09.86-.2,1.39-.33.53-.13,1.08-.27,1.63-.42l.12.93c-.49.14-.98.28-1.49.41-.51.14-.97.26-1.38.38l-.27-.97ZM95.2,37.78h3.19v.94h-3.19v-.94ZM96.37,35.96h.98v7.6c0,.24-.03.44-.08.58s-.16.25-.31.32c-.14.08-.33.12-.56.15-.23.02-.5.03-.83.03-.02-.13-.05-.29-.11-.46-.05-.17-.11-.33-.17-.46.19,0,.37,0,.54,0h.36c.07,0,.12-.01.14-.04.02-.03.04-.07.04-.14v-7.59ZM102.29,40.05h.19l.18-.04.66.27c-.2.64-.47,1.21-.8,1.7-.33.49-.73.91-1.17,1.27-.45.35-.94.65-1.48.89-.54.24-1.11.43-1.72.57-.03-.09-.07-.2-.12-.31-.06-.11-.12-.22-.18-.33-.07-.11-.13-.2-.19-.27.56-.11,1.08-.26,1.57-.46.49-.2.94-.44,1.35-.74s.76-.65,1.05-1.05c.29-.4.52-.85.67-1.36v-.15ZM99.19,36.28h.95v1.05c0,.3-.04.61-.12.92s-.23.62-.45.91c-.22.29-.53.54-.95.75-.04-.07-.1-.15-.18-.25-.08-.1-.17-.19-.26-.28-.09-.09-.16-.16-.22-.21.37-.17.64-.37.82-.57.17-.21.29-.42.34-.64.05-.22.08-.44.08-.66v-1.01ZM98.35,40.05h4.28v.94h-4.28v-.94ZM99.44,40.79c.25.51.59.97,1.01,1.37.43.4.93.74,1.51,1.02.58.27,1.22.48,1.94.62-.07.08-.14.17-.22.28s-.16.22-.23.34c-.07.12-.13.22-.18.31-1.11-.26-2.06-.7-2.84-1.31-.78-.61-1.4-1.38-1.86-2.32l.88-.31ZM99.4,36.28h2.52v.93h-2.52v-.93ZM101.47,36.28h.95v2.08c0,.14.01.23.03.29.02.06.07.08.14.08h.57c.08,0,.16,0,.26-.01.1,0,.18-.02.24-.04.01.12.02.27.03.43,0,.16.02.29.04.41-.07.03-.15.05-.26.06-.1,0-.21,0-.3,0h-.67c-.29,0-.51-.04-.66-.12-.15-.08-.25-.21-.3-.4s-.08-.42-.08-.72v-2.06Z"/>
        <path class="st3" d="M104.55,38.5c.34-.08.75-.19,1.22-.32.47-.13.96-.26,1.45-.39l.11.79c-.41.14-.83.28-1.24.42-.42.14-.8.27-1.15.38l-.39-.87ZM107.38,43.1l.92.41c-.26.16-.55.32-.89.47-.33.15-.68.29-1.03.42-.35.12-.69.23-1.01.32-.06-.07-.14-.15-.22-.24-.09-.09-.18-.19-.27-.28s-.18-.16-.25-.22c.33-.06.67-.14,1.01-.23s.66-.19.97-.3c.3-.11.56-.23.78-.35ZM104.98,36.8l.44-.68c.21.05.44.12.69.2.25.08.49.16.72.25.23.08.42.16.58.24l-.45.77c-.15-.08-.34-.17-.56-.26-.22-.09-.46-.19-.71-.28s-.48-.17-.7-.23ZM105.83,39.33h6.24v3.82h-6.24v-3.82ZM106.8,39.95v.47h4.26v-.47h-4.26ZM106.8,41v.47h4.26v-.47h-4.26ZM106.8,42.06v.48h4.26v-.48h-4.26ZM108.7,35.96l.89.14c-.17.36-.39.71-.63,1.05s-.55.65-.91.94c-.09-.09-.21-.19-.35-.28-.15-.09-.28-.16-.41-.21.35-.24.64-.5.87-.8.23-.29.41-.58.54-.85ZM109.75,37.32l.9.15c-.21.51-.58.92-1.09,1.25-.51.33-1.1.56-1.77.7-.04-.09-.11-.21-.2-.35-.09-.14-.17-.25-.24-.33.38-.06.74-.16,1.07-.29.33-.13.61-.29.85-.48s.39-.41.48-.65ZM108.68,36.6h3.65v.71h-4.22l.57-.71ZM110.34,37.6c.17.19.39.36.67.52.28.16.59.29.93.4s.7.19,1.07.25c-.09.08-.18.19-.29.34s-.19.27-.25.38c-.39-.08-.77-.2-1.12-.36s-.67-.34-.97-.56c-.29-.22-.53-.46-.73-.71l.68-.24ZM109.67,43.6l.67-.53c.33.11.66.22.99.35.34.13.66.25.96.38s.56.24.78.35l-.9.54c-.19-.11-.42-.22-.68-.35s-.56-.25-.87-.38c-.31-.13-.62-.25-.94-.37ZM112.08,36.6h.15l.15-.04.67.18c-.12.25-.27.5-.43.76-.16.26-.32.47-.47.64l-.79-.24c.13-.15.26-.33.4-.55.13-.22.24-.43.32-.62v-.12Z"/>
        <path class="st3" d="M117.06,35.96l1.04.23c-.22.69-.49,1.38-.82,2.07s-.72,1.32-1.18,1.91c-.46.59-.99,1.1-1.6,1.52-.04-.08-.11-.16-.19-.26-.08-.1-.16-.19-.24-.29s-.16-.17-.23-.23c.42-.28.8-.6,1.14-.98.34-.38.65-.79.91-1.23.27-.44.5-.89.69-1.36.19-.46.35-.93.47-1.39ZM114.11,37.12h8.33v.94h-8.33v-.94ZM115.83,38.9h4.75v.88h-3.76v4.92h-.99v-5.8ZM116.57,40.49h4.16v.84h-4.16v-.84ZM116.57,42.04h4.16v.84h-4.16v-.84ZM120.38,38.9h.98v4.69c0,.26-.03.46-.09.61-.06.15-.18.27-.37.35-.18.07-.41.12-.68.14-.27.02-.6.02-.99.02-.02-.14-.06-.3-.12-.49s-.12-.35-.19-.48c.18,0,.35.01.52.01.17,0,.32,0,.45,0h.28c.08,0,.13-.01.16-.04s.05-.08.05-.15v-4.67Z"/>
        <path class="st3" d="M123.71,36.33h2.25v.9h-1.37v7.46h-.88v-8.35ZM125.78,36.33h.17l.14-.04.66.38c-.13.39-.26.8-.41,1.24-.15.44-.29.85-.44,1.21.3.38.5.73.59,1.06s.14.64.14.93-.03.53-.09.73-.17.36-.32.47c-.07.05-.15.09-.24.12s-.19.06-.29.08c-.09,0-.18.01-.29.01-.11,0-.21,0-.32,0,0-.12-.03-.26-.07-.43-.04-.17-.09-.32-.16-.44.09,0,.17.01.24.01.08,0,.14,0,.21,0,.11,0,.19-.03.26-.08.06-.04.11-.12.13-.22.02-.11.04-.23.04-.37,0-.23-.04-.5-.14-.8-.09-.3-.28-.63-.57-.97.07-.21.14-.44.22-.68.08-.24.15-.48.21-.72.07-.24.12-.47.18-.68.05-.21.1-.39.14-.53v-.28ZM127.1,44.73c-.02-.08-.06-.16-.11-.26-.05-.1-.1-.2-.16-.3-.06-.1-.11-.18-.16-.23.09-.06.18-.15.27-.27.09-.12.14-.29.14-.51v-6.81h.98v7.45c-.12.09-.23.16-.33.23s-.19.14-.29.22-.18.16-.24.24c-.06.08-.09.16-.09.24ZM127.1,44.73l-.08-.88.42-.33,2.04-.45c0,.14,0,.3,0,.48,0,.17.02.32.04.43-.47.12-.85.22-1.14.3-.29.08-.52.15-.69.2s-.3.1-.38.14c-.08.04-.15.08-.2.11ZM127.55,36.35h3.75v4.26h-3.75v-.86h2.78v-2.53h-2.78v-.86ZM127.63,38.06h3.24v.82h-3.24v-.82ZM129.46,40.1c.13.56.31,1.08.54,1.56.23.48.51.91.85,1.28.34.37.75.65,1.21.86-.07.07-.15.16-.23.26-.09.1-.17.21-.24.31s-.14.21-.2.3c-.5-.27-.93-.62-1.28-1.05s-.65-.93-.89-1.5c-.23-.57-.43-1.19-.58-1.87l.82-.15ZM131.21,40.77l.65.7c-.17.14-.36.28-.55.42-.19.14-.39.28-.58.41-.19.13-.38.24-.54.33l-.54-.63c.16-.1.34-.22.53-.36s.38-.29.56-.45.34-.3.47-.43Z"/>
        <path class="st3" d="M135.18,36.19l1.1.3c-.21.51-.45,1.01-.73,1.49-.28.48-.58.93-.91,1.34-.32.41-.65.78-.99,1.09-.07-.07-.16-.15-.27-.24s-.23-.18-.35-.27c-.12-.09-.23-.16-.31-.22.34-.27.67-.59.98-.96.31-.37.59-.77.84-1.21s.47-.88.64-1.33ZM133.77,44.21c-.02-.08-.05-.18-.09-.31-.04-.13-.09-.27-.15-.41-.05-.14-.1-.26-.16-.35.14-.04.28-.13.42-.25.13-.12.29-.29.46-.5.09-.11.23-.28.41-.52.18-.24.38-.53.59-.86.22-.33.43-.69.65-1.07.22-.38.41-.77.6-1.17l1.12.48c-.29.55-.6,1.09-.95,1.61s-.7,1.02-1.06,1.49c-.37.47-.73.89-1.09,1.26v.03c-.15.08-.27.15-.37.21-.1.06-.18.12-.26.18-.08.07-.11.13-.11.18ZM133.77,44.21l-.03-.85.65-.38,4.94-.31c.03.15.06.32.11.5.05.18.09.34.12.46-.79.06-1.48.12-2.05.16s-1.06.09-1.46.12-.73.06-.99.09c-.26.03-.47.05-.64.07-.16.02-.29.04-.39.07-.1.02-.18.05-.25.08ZM138.74,36.12c.14.3.32.61.53.93.21.32.43.63.67.93.24.3.49.59.75.86.25.27.5.5.73.7-.09.06-.18.15-.29.25-.1.1-.21.21-.3.31-.1.11-.18.21-.24.3-.24-.24-.48-.52-.74-.82-.26-.3-.51-.62-.76-.96-.25-.34-.49-.69-.72-1.04-.23-.36-.43-.71-.61-1.06l.99-.4ZM137.95,41.36l.95-.43c.27.34.54.71.82,1.1s.53.77.77,1.14c.24.37.43.7.59.99l-1.01.54c-.14-.29-.32-.63-.56-1.02-.23-.39-.49-.79-.76-1.19-.27-.41-.54-.78-.79-1.12Z"/>
        <path class="st3" d="M142.47,36.54h7v.96h-7v-.96ZM142.55,38.25h5.59v.88h-5.59v-.88ZM143.07,39.91h.97v3.83h-.97v-3.83ZM143.93,39.91h3.67v3.13h-3.67v-.86h2.68v-1.4h-2.68v-.87ZM149.11,36.54h1.03v6.85c0,.3-.03.53-.1.7-.07.17-.2.3-.38.39-.19.09-.43.14-.73.16-.3.02-.66.03-1.09.02-.01-.1-.04-.22-.07-.35-.03-.13-.07-.26-.12-.4-.05-.13-.1-.25-.15-.34.19,0,.38.01.56.02.19,0,.35,0,.5,0,.15,0,.25,0,.31,0,.09,0,.15-.02.18-.06s.05-.09.05-.18v-6.83Z"/>
      </g>
    </g>
  </g>
</svg>