<?xml version="1.0" encoding="utf-8"?>
<!-- Generator: Adobe Illustrator 28.1.0, SVG Export Plug-In . SVG Version: 6.00 Build 0)  -->
<svg version="1.1" id="_圖層_1" xmlns="http://www.w3.org/2000/svg" xmlns:xlink="http://www.w3.org/1999/xlink" x="0px" y="0px"
	 viewBox="0 0 992 100" style="enable-background:new 0 0 992 100;" xml:space="preserve">
<style type="text/css">
	.st0{display:none;}
	.st1{fill:#FFFFFF;}
</style>
<rect class="st0" width="992" height="100"/>
<g>
	<g>
		<path class="st1" d="M333.3,35.2c9.2,0,16.7,7.5,16.7,16.7c0,9.2-7.4,16.7-16.7,16.7c-9.2,0-16.7-7.5-16.7-16.7
			C316.6,42.7,324,35.2,333.3,35.2z M325.2,41.3c6.2,6.3,12.5,12.5,18.7,18.7c3.8-4.7,3.9-12.5-1.2-17.6
			C337.6,37.4,329.9,37.5,325.2,41.3z M322.7,43.8c-3.9,4.8-4,12.9,1.5,18c5.4,5,13,4.2,17.1,0.7C335.2,56.3,329,50.1,322.7,43.8z"
			/>
	</g>
	<g>
		<path class="st1" d="M658.7,35.2c9.2,0,16.7,7.5,16.7,16.7c0,9.2-7.4,16.7-16.7,16.7c-9.2,0-16.7-7.5-16.7-16.7
			C642,42.7,649.5,35.2,658.7,35.2z M650.6,41.3c6.2,6.3,12.5,12.5,18.7,18.7c3.8-4.7,3.9-12.5-1.2-17.6
			C663,37.4,655.3,37.5,650.6,41.3z M648.2,43.8c-3.9,4.8-4,12.9,1.5,18c5.4,5,13,4.2,17.1,0.7C660.6,56.3,654.4,50.1,648.2,43.8z"
			/>
	</g>
	<g>
		<g>
			<path class="st1" d="M124.5,35.7v-3.4c-1,1.4-2,2.6-3.2,3.4c-0.3-0.6-0.8-1-1.3-1.4c1.5-0.9,2.8-2.2,3.9-3.9h-3v-1.7h3.6v-2.1
				h1.9v2.1h3v1.7h-3v0.1c0.5,0.3,1.6,1,3.2,2.1c0.1,0.1,0.2,0.1,0.2,0.2l-1.1,1.4c-0.4-0.4-1.2-1.1-2.3-1.9v3.6H124.5z M122,46.8
				c-0.6-0.5-1.1-1-1.6-1.3c0.8-0.4,1.6-0.9,2.4-1.6c0.8-0.6,1.4-1.3,1.8-1.9l2,0.6c-0.5,0.8-1.2,1.5-2.1,2.3
				C123.6,45.7,122.8,46.3,122,46.8z M126.8,47.1c-0.1-0.6-0.4-1.2-0.7-1.8c1.4,0,2.4,0.1,2.9,0c0.2,0,0.3,0,0.4-0.1
				c0.1,0,0.1-0.1,0.1-0.3v-3.5h-8.8v-1.8h19.5v1.8h-8.7V45c0,0.5-0.1,0.9-0.2,1.2c-0.2,0.3-0.4,0.5-0.8,0.6
				C130,47,128.7,47.1,126.8,47.1z M123.3,38.1v-1.7H138v1.7H123.3z M134.2,35.7V32c-1.1,1.5-2.3,2.7-3.5,3.5
				c-0.5-0.6-0.9-1.1-1.3-1.4c0.8-0.4,1.5-0.9,2.3-1.6c0.7-0.7,1.4-1.4,1.9-2.2h-3.2v-1.7h3.9v-2.1h2v2.1h3.8v1.7h-3.3
				c0.5,0.8,1.2,1.5,1.9,2.2c0.7,0.7,1.5,1.2,2.2,1.6c-0.5,0.4-0.9,0.9-1.3,1.4c-1.1-0.8-2.2-2-3.3-3.4v3.6H134.2z M138.3,46.7
				c-0.5-0.5-1.1-1.1-2-1.8c-0.8-0.7-1.6-1.3-2.5-1.9l1.7-1c2,1.4,3.5,2.6,4.5,3.7L138.3,46.7z"/>
			<path class="st1" d="M147.4,46v-2.1h3V31.2h2.2v12.7h4.7V26.5h2.2v7.2h7v2.1h-7v8.1h8.1V46H147.4z"/>
			<path class="st1" d="M177.8,36.5c-1-0.6-2.2-1.4-3.7-2.2l1.2-1.6c1.9,0.9,3.1,1.6,3.8,2L177.8,36.5z M176.3,46.7l-1.9-1.2
				c1.3-2.2,2.5-4.6,3.5-7.3l1.7,1.2C178.6,42.1,177.5,44.5,176.3,46.7z M178.5,30.6c-0.6-0.5-1.8-1.2-3.6-2.3l1.2-1.5
				c1.7,0.9,2.9,1.6,3.7,2.1L178.5,30.6z M180.6,47.1V32.1h3.7v-2.6h-4.4v-1.9h14.8v1.9h-4.8v2.6h4.1V47h-2V46h-9.5v1H180.6z
				 M182.5,40.3h9.5v-1.8h-0.2h-1.9c-0.8,0-1.3-0.1-1.5-0.4c-0.3-0.3-0.4-0.8-0.4-1.7V34h-1.7v0.7c0,2.1-1,3.6-2.9,4.7
				c-0.2-0.2-0.4-0.5-0.8-0.9V40.3z M182.5,38c1.4-0.8,2.1-1.9,2.1-3.3V34h-2.1V38z M182.5,44.2h9.5v-2.2h-9.5V44.2z M186.1,32.1
				h1.9v-2.6h-1.9V32.1z M190.1,36.8h1.5c0.2,0,0.3,0,0.4,0V34h-2.4v2.3c0,0.2,0,0.3,0.1,0.4C189.7,36.7,189.9,36.8,190.1,36.8z"/>
			<path class="st1" d="M202.3,34.4c-0.2-0.5-0.6-1-1.1-1.5c1.9-0.7,3.1-1.8,3.7-3.4h-3V28h3.4c0.1-0.3,0.1-0.9,0.2-1.6h1.9
				c0,0.4-0.1,0.9-0.2,1.6h4.7c0,0.2,0,0.5,0,0.7c-0.1,1.3-0.2,2.2-0.3,2.8c-0.1,0.6-0.3,1-0.5,1.3c-0.3,0.3-0.7,0.5-1.2,0.5
				c-0.6,0.1-1.3,0.1-2.1,0c0-0.6-0.2-1.1-0.5-1.6c0.6,0.1,1.2,0.1,1.6,0.1c0.3,0,0.4-0.1,0.6-0.2c0.2-0.2,0.4-0.9,0.5-2.1h-3
				c-0.3,1.2-0.8,2.1-1.5,2.9C204.6,33.3,203.6,33.9,202.3,34.4z M203,47.1l-1.7-1c0.9-0.8,1.7-1.9,2.6-3.3l1.7,0.9
				c-0.1,0.2-0.3,0.4-0.5,0.7C204.2,45.6,203.5,46.6,203,47.1z M216.3,47.1c-0.1-0.7-0.2-1.2-0.5-1.6c0.8,0.1,1.4,0.1,1.8,0.1
				c0.3,0,0.5-0.1,0.7-0.2c0.3-0.3,0.5-1.2,0.7-2.8h-13.2v0h-1.4V34h15.3v1.4h-6.2v1.1h5.3v1.2h-5.3v1.1h5.3V40h-5.3v1.1h7.7
				c0,0.2,0,0.5-0.1,0.7c-0.2,1.5-0.3,2.5-0.5,3.2c-0.2,0.7-0.4,1.2-0.7,1.4c-0.3,0.4-0.8,0.5-1.3,0.6
				C218.1,47.1,217.4,47.1,216.3,47.1z M206.3,36.5h5v-1.1h-5V36.5z M206.3,38.8h5v-1.1h-5V38.8z M206.3,41.1h5V40h-5V41.1z
				 M207.4,46.8c0-0.8-0.3-1.9-0.6-3.2l1.8-0.3c0.4,1.2,0.6,2.3,0.7,3.2L207.4,46.8z M211.7,46.5c-0.2-0.9-0.6-1.9-1.2-2.9l1.6-0.5
				c0.6,1,1.1,2,1.3,2.9L211.7,46.5z M213,33.1v-5.6h8v5.6H213z M215.5,45.6c-0.3-0.7-0.9-1.4-1.6-2.2l1.4-0.6
				c0.8,0.8,1.3,1.5,1.6,2.1L215.5,45.6z M214.9,31.5h4v-2.4h-4V31.5z"/>
		</g>
		<g>
			<path class="st1" d="M62.6,73.5v-7.7c-1.1,1.4-2.3,2.6-3.6,3.8c-1.4,1.2-2.7,2.1-4.1,2.8c-0.4-0.6-0.9-1.2-1.5-1.8
				c1.5-0.7,3-1.6,4.5-2.8c1.5-1.2,2.7-2.5,3.7-3.8H54V62h8.6v-3.4h-7v-2.1h7v-3.5h2.2v3.5H72v2.1h-7.2V62h8.8v2.1h-7.7
				c1,1.4,2.2,2.6,3.7,3.8c1.5,1.2,3,2.1,4.5,2.8c-0.4,0.4-0.9,1-1.5,1.8c-1.4-0.7-2.8-1.6-4.1-2.8c-1.4-1.2-2.6-2.4-3.6-3.9v7.8
				H62.6z"/>
			<path class="st1" d="M83.7,62.8c-0.4-0.3-0.9-0.7-1.6-1.1c-0.7-0.4-1.4-0.8-2-1l1.2-1.5c1.6,0.6,2.8,1.3,3.6,2L83.7,62.8z
				 M82.5,73.2l-1.9-1.1c1-2,2-4.4,3-7.1l1.7,1.1C84.4,68.7,83.5,71,82.5,73.2z M86.1,73.5v-12h5.9v-1.3h-3.2v-3.4h-3.2v-1.2
				l-1.2,1.6c-0.7-0.8-1.9-1.5-3.4-2.3l1.2-1.5c1.5,0.6,2.6,1.3,3.5,2.1v-0.5h3.2V53h2v1.9h4.3V53h2v1.9h3.3v1.9h-3.3v3.4h-3.4v1.3
				h6.1v10.2c0,0.4-0.1,0.8-0.2,1c-0.1,0.2-0.3,0.4-0.6,0.6c-0.4,0.2-1.3,0.2-2.8,0.2c-0.1-0.6-0.3-1.1-0.5-1.5c0.5,0,1.2,0,1.9,0
				c0.2,0,0.3-0.1,0.3-0.3v-1.8c-0.3,0.3-0.6,0.5-0.7,0.7c-0.5-0.6-1-1.4-1.3-2.4c-0.3,1.1-0.9,1.9-1.6,2.4
				c-0.2-0.3-0.5-0.6-0.7-0.8v3.5h-1.8v-3.4c-0.3,0.2-0.5,0.4-0.7,0.7c-0.5-0.5-0.9-1.3-1.2-2.3c-0.3,1.1-0.8,1.9-1.5,2.5
				c-0.2-0.3-0.4-0.6-0.8-0.8v3.5H86.1z M87.9,69.9c0.9-0.8,1.4-1.9,1.5-3.5h0.4c0-0.3,0-0.5-0.1-0.7h-1.2v-1.3h2.2
				c0.1,2.4,0.5,4.1,1.3,5.1v-6.2h-4.2V69.9z M90.9,58.4h4.3v-1.6h-4.3V58.4z M93.9,69.6c0.9-0.7,1.4-1.9,1.5-3.3h0.4
				c0-0.1,0-0.4-0.1-0.7h-1.1v-1.3h2.1c0.1,2.5,0.6,4.2,1.4,5.2v-6.2h-4.3V69.6z"/>
			<path class="st1" d="M116.1,73.5V63.3h-8.8v-2.1h8.8v-8.1h2.3v8.1h8.9v2.1h-8.9v10.2H116.1z"/>
			<path class="st1" d="M135.5,73.6c-0.7-0.7-1.3-1.2-1.7-1.5c2.8-2.5,4.6-6.8,5.4-12.9l2.4,0.3c-0.5,3-1.2,5.6-2,7.7
				C138.5,69.9,137.1,72.1,135.5,73.6z M152.2,73.5c-1.8-1.6-3.2-3.9-4.3-7c-0.8-2.5-1.4-5.7-1.8-9.6h-7.6v-2.2h9.6
				c0.4,4.1,0.9,7.5,1.8,10.1c1,3.2,2.5,5.6,4.4,7C153.6,72.2,152.9,72.7,152.2,73.5z"/>
			<path class="st1" d="M162,73.6c-0.4-0.4-1-0.7-1.7-1c1.3-1.7,1.9-4.2,1.9-7.5v-3.7h9.8c-0.1-0.7-0.1-1.3-0.1-1.7h-11v-1.7h3.5V54
				h1.9v3.8h3.7v-4.8h2v1.7h6.5v1.6H172v1.5h8.5v1.7h-3.3c0.8,0.5,1.4,0.9,1.9,1.2l-0.4,0.4h1.7V63h-6.2c0.2,1.7,0.6,3.3,1.1,4.6
				c0.8-1.1,1.4-2.4,1.9-3.8l1.9,0.4c-0.7,2-1.7,3.8-2.9,5.4c0.8,1.4,1.6,2.1,2.4,2.1c0.3,0,0.5-0.2,0.6-0.7
				c0.1-0.5,0.2-1.2,0.3-2.3c0.5,0.4,1,0.7,1.5,0.9c-0.1,1.5-0.4,2.6-0.8,3.1c-0.4,0.5-0.9,0.8-1.7,0.8c-1.4,0-2.6-0.8-3.6-2.5
				c-0.9,0.9-2,1.7-3.2,2.4c-0.5-0.6-0.9-1-1.4-1.4c1.4-0.7,2.6-1.6,3.7-2.7c-0.7-1.7-1.3-3.8-1.6-6.3h-8.1v2c0,1.6-0.1,3-0.4,4.4
				c0.8-0.7,1.4-1.8,1.8-3.1l1.5,0.3c-0.4,1.4-1.1,2.7-2,3.6c-0.3-0.2-0.7-0.5-1.3-0.8C163.4,71.1,162.8,72.5,162,73.6z M165.3,73.5
				c-0.3-0.6-0.6-1-0.9-1.2c1.3-0.4,2.5-1,3.6-1.7c-0.2,0-0.5,0-1,0c-0.1-0.3-0.3-0.7-0.6-1.3c0.4,0,0.7,0,1.1,0
				c0.1,0,0.2-0.1,0.2-0.2v-3.6H165v-1.5h6.9v1.5h-2.5v3.6v0.1c0.7-0.9,1.2-1.8,1.4-2.7l1.7,0.2c-0.5,1.6-1.4,3-2.6,4.1
				C168.6,72.1,167.1,72.9,165.3,73.5z M174,61.3h3.3c-0.6-0.4-1.3-0.9-2.1-1.2l0.5-0.4h-1.8C173.9,60,173.9,60.5,174,61.3z"/>
			<path class="st1" d="M191.6,62.2v-3.4c-1,1.4-2,2.5-3.1,3.3c-0.3-0.5-0.8-1-1.3-1.4c1.5-0.9,2.7-2.2,3.8-3.9h-3v-1.7h3.6v-2.1
				h1.9v2.1h3v1.7h-3V57c0.5,0.3,1.6,1,3.2,2.1c0.1,0.1,0.2,0.1,0.2,0.2l-1.1,1.4c-0.4-0.4-1.2-1-2.3-1.9v3.5H191.6z M189.1,73.2
				c-0.6-0.5-1.1-0.9-1.6-1.3c0.8-0.4,1.6-0.9,2.3-1.5c0.8-0.6,1.4-1.3,1.8-1.9l1.9,0.6c-0.5,0.8-1.2,1.5-2.1,2.3
				C190.8,72.1,189.9,72.7,189.1,73.2z M193.9,73.6c-0.1-0.6-0.4-1.2-0.7-1.8c1.4,0,2.4,0.1,2.9,0c0.2,0,0.3,0,0.4-0.1
				c0.1,0,0.1-0.1,0.1-0.3v-3.5h-8.7v-1.8h19.3v1.8h-8.6v3.6c0,0.5-0.1,0.9-0.2,1.2c-0.2,0.3-0.4,0.5-0.8,0.6
				C197,73.5,195.8,73.6,193.9,73.6z M190.4,64.7V63H205v1.7H190.4z M201.2,62.2v-3.6c-1.1,1.5-2.2,2.6-3.5,3.5
				c-0.4-0.6-0.9-1.1-1.3-1.4c0.7-0.4,1.5-0.9,2.2-1.6c0.7-0.7,1.3-1.4,1.9-2.2h-3.2v-1.7h3.8v-2.1h1.9v2.1h3.8v1.7h-3.3
				c0.5,0.7,1.2,1.5,1.9,2.1c0.7,0.7,1.5,1.2,2.2,1.6c-0.5,0.4-0.9,0.8-1.3,1.4c-1.1-0.8-2.2-1.9-3.2-3.3v3.5H201.2z M205.3,73.2
				c-0.4-0.5-1.1-1.1-2-1.8c-0.8-0.7-1.6-1.3-2.4-1.9l1.7-1c2,1.4,3.5,2.6,4.5,3.6L205.3,73.2z"/>
			<path class="st1" d="M214.2,72.4v-2.1h3V57.8h2.1v12.6h4.7V53.1h2.2v7.1h7v2.1h-7v8h8v2.1H214.2z"/>
			<path class="st1" d="M241.7,59.6c-0.4-0.5-0.8-0.9-1.3-1.3c1-0.7,1.8-1.6,2.6-2.6c0.7-0.9,1.2-1.8,1.7-2.7h2
				c1.7,1.4,2.9,2.7,3.7,3.9l-1.2,1.4c-0.3-0.4-0.6-0.8-0.9-1.2v1.3h-4.5v-0.8C243,58.4,242.4,59.1,241.7,59.6z M242.1,73.6v-14h7.2
				v2.1c1.4-1.9,2.3-4.8,2.8-8.6l2,0.3c-0.2,1.3-0.5,2.5-0.7,3.7h6l0.3-0.1l1.4,0.4c-0.5,2.6-1,4.6-1.6,6l-1.6-0.6
				c0.3-0.9,0.6-2.1,1-3.8h-2.6v2.6c0,1.5,0.3,3.1,0.9,4.8c0.9,2.4,2.3,4.2,4.1,5.4c-0.5,0.6-0.9,1.2-1.3,1.8
				c-1.4-1-2.6-2.3-3.5-4.2c-0.7-1.4-1.1-2.7-1.3-4c-0.2,1.3-0.7,2.6-1.4,3.9c-1,1.8-2.3,3.2-3.9,4.2c-0.4-0.7-0.8-1.3-1.2-1.7
				c0.2-0.1,0.4-0.2,0.6-0.4h-5.4v2.1H242.1z M249.6,71.3c1.7-1.3,3-3,3.8-5.3c0.6-1.5,0.8-3,0.8-4.5v-2.6h-1.4
				c-0.6,1.8-1.3,3.1-2,4.2c-0.4-0.3-0.9-0.7-1.5-1v3.9h-5.4v1.2h5.4v1.6h-5.4v1.2h5.7V71.3z M243.9,62.1h3.7v-1.2h-3.7V62.1z
				 M243.9,64.5h3.7v-1.2h-3.7V64.5z M244.3,57h3.8c-0.7-0.9-1.4-1.7-2.2-2.3C245.4,55.5,244.9,56.3,244.3,57z"/>
			<path class="st1" d="M271.1,63c-1-0.6-2.2-1.4-3.7-2.2l1.2-1.5c1.9,0.9,3.1,1.6,3.7,2L271.1,63z M269.7,73.2l-1.9-1.2
				c1.3-2.2,2.4-4.6,3.5-7.2L273,66C271.9,68.6,270.8,71,269.7,73.2z M271.8,57.2c-0.6-0.5-1.8-1.2-3.6-2.3l1.2-1.5
				c1.6,0.9,2.9,1.6,3.7,2.1L271.8,57.2z M273.9,73.5V58.7h3.7v-2.6h-4.4v-1.9h14.6v1.9h-4.7v2.6h4v14.7h-2v-0.9h-9.4v1H273.9z
				 M275.8,66.8h9.4V65H285h-1.9c-0.8,0-1.3-0.1-1.5-0.4c-0.3-0.3-0.4-0.8-0.4-1.7v-2.3h-1.7v0.7c0,2.1-1,3.6-2.9,4.6
				c-0.2-0.2-0.4-0.5-0.8-0.8V66.8z M275.8,64.5c1.4-0.8,2.1-1.9,2.1-3.3v-0.7h-2.1V64.5z M275.8,70.7h9.4v-2.1h-9.4V70.7z
				 M279.4,58.7h1.9v-2.6h-1.9V58.7z M283.3,63.3h1.5c0.2,0,0.3,0,0.4,0v-2.7h-2.3v2.3c0,0.2,0,0.3,0.1,0.4
				C282.9,63.3,283.1,63.3,283.3,63.3z"/>
		</g>
	</g>
	<g>
		<g>
			<path class="st1" d="M449.9,35.7v-3.4c-1,1.4-2,2.6-3.2,3.4c-0.3-0.6-0.8-1-1.3-1.4c1.5-0.9,2.8-2.2,3.9-3.9h-3v-1.7h3.6v-2.1
				h1.9v2.1h3v1.7h-3v0.1c0.5,0.3,1.6,1,3.2,2.1c0.1,0.1,0.2,0.1,0.2,0.2l-1.1,1.4c-0.4-0.4-1.2-1.1-2.3-1.9v3.6H449.9z M447.4,46.8
				c-0.6-0.5-1.1-1-1.6-1.3c0.8-0.4,1.6-0.9,2.4-1.6c0.8-0.6,1.4-1.3,1.8-1.9l2,0.6c-0.5,0.8-1.2,1.5-2.1,2.3
				C449.1,45.7,448.3,46.3,447.4,46.8z M452.3,47.1c-0.1-0.6-0.4-1.2-0.7-1.8c1.4,0,2.4,0.1,2.9,0c0.2,0,0.3,0,0.4-0.1
				c0.1,0,0.1-0.1,0.1-0.3v-3.5h-8.8v-1.8h19.5v1.8H457V45c0,0.5-0.1,0.9-0.2,1.2c-0.2,0.3-0.4,0.5-0.8,0.6
				C455.4,47,454.2,47.1,452.3,47.1z M448.7,38.1v-1.7h14.8v1.7H448.7z M459.7,35.7V32c-1.1,1.5-2.3,2.7-3.5,3.5
				c-0.5-0.6-0.9-1.1-1.3-1.4c0.8-0.4,1.5-0.9,2.3-1.6c0.7-0.7,1.4-1.4,1.9-2.2h-3.2v-1.7h3.9v-2.1h2v2.1h3.8v1.7h-3.3
				c0.5,0.8,1.2,1.5,1.9,2.2c0.7,0.7,1.5,1.2,2.2,1.6c-0.5,0.4-0.9,0.9-1.3,1.4c-1.1-0.8-2.2-2-3.3-3.4v3.6H459.7z M463.8,46.7
				c-0.5-0.5-1.1-1.1-2-1.8c-0.8-0.7-1.6-1.3-2.5-1.9l1.7-1c2,1.4,3.5,2.6,4.5,3.7L463.8,46.7z"/>
			<path class="st1" d="M472.8,46v-2.1h3V31.2h2.2v12.7h4.7V26.5h2.2v7.2h7v2.1h-7v8.1h8.1V46H472.8z"/>
			<path class="st1" d="M503.2,36.5c-1-0.6-2.2-1.4-3.7-2.2l1.2-1.6c1.9,0.9,3.1,1.6,3.8,2L503.2,36.5z M501.8,46.7l-1.9-1.2
				c1.3-2.2,2.5-4.6,3.5-7.3l1.7,1.2C504,42.1,502.9,44.5,501.8,46.7z M503.9,30.6c-0.6-0.5-1.8-1.2-3.6-2.3l1.2-1.5
				c1.7,0.9,2.9,1.6,3.7,2.1L503.9,30.6z M506,47.1V32.1h3.7v-2.6h-4.4v-1.9h14.8v1.9h-4.8v2.6h4.1V47h-2V46h-9.5v1H506z
				 M507.9,40.3h9.5v-1.8h-0.2h-1.9c-0.8,0-1.3-0.1-1.5-0.4c-0.3-0.3-0.4-0.8-0.4-1.7V34h-1.7v0.7c0,2.1-1,3.6-2.9,4.7
				c-0.2-0.2-0.4-0.5-0.8-0.9V40.3z M507.9,38c1.4-0.8,2.1-1.9,2.1-3.3V34h-2.1V38z M507.9,44.2h9.5v-2.2h-9.5V44.2z M511.6,32.1
				h1.9v-2.6h-1.9V32.1z M515.5,36.8h1.5c0.2,0,0.3,0,0.4,0V34H515v2.3c0,0.2,0,0.3,0.1,0.4C515.2,36.7,515.3,36.8,515.5,36.8z"/>
			<path class="st1" d="M527.7,34.4c-0.2-0.5-0.6-1-1.1-1.5c1.9-0.7,3.1-1.8,3.7-3.4h-3V28h3.4c0.1-0.3,0.1-0.9,0.2-1.6h1.9
				c0,0.4-0.1,0.9-0.2,1.6h4.7c0,0.2,0,0.5,0,0.7c-0.1,1.3-0.2,2.2-0.3,2.8c-0.1,0.6-0.3,1-0.5,1.3c-0.3,0.3-0.7,0.5-1.2,0.5
				c-0.6,0.1-1.3,0.1-2.1,0c0-0.6-0.2-1.1-0.5-1.6c0.6,0.1,1.2,0.1,1.6,0.1c0.3,0,0.4-0.1,0.6-0.2c0.2-0.2,0.4-0.9,0.5-2.1h-3
				c-0.3,1.2-0.8,2.1-1.5,2.9C530,33.3,529,33.9,527.7,34.4z M528.5,47.1l-1.7-1c0.9-0.8,1.7-1.9,2.6-3.3l1.7,0.9
				c-0.1,0.2-0.3,0.4-0.5,0.7C529.6,45.6,528.9,46.6,528.5,47.1z M541.7,47.1c-0.1-0.7-0.2-1.2-0.5-1.6c0.8,0.1,1.4,0.1,1.8,0.1
				c0.3,0,0.5-0.1,0.7-0.2c0.3-0.3,0.5-1.2,0.7-2.8h-13.2v0h-1.4V34H545v1.4h-6.2v1.1h5.3v1.2h-5.3v1.1h5.3V40h-5.3v1.1h7.7
				c0,0.2,0,0.5-0.1,0.7c-0.2,1.5-0.3,2.5-0.5,3.2c-0.2,0.7-0.4,1.2-0.7,1.4c-0.3,0.4-0.8,0.5-1.3,0.6
				C543.6,47.1,542.8,47.1,541.7,47.1z M531.8,36.5h5v-1.1h-5V36.5z M531.8,38.8h5v-1.1h-5V38.8z M531.8,41.1h5V40h-5V41.1z
				 M532.9,46.8c0-0.8-0.3-1.9-0.6-3.2l1.8-0.3c0.4,1.2,0.6,2.3,0.7,3.2L532.9,46.8z M537.1,46.5c-0.2-0.9-0.6-1.9-1.2-2.9l1.6-0.5
				c0.6,1,1.1,2,1.3,2.9L537.1,46.5z M538.4,33.1v-5.6h8v5.6H538.4z M541,45.6c-0.3-0.7-0.9-1.4-1.6-2.2l1.4-0.6
				c0.8,0.8,1.3,1.5,1.6,2.1L541,45.6z M540.3,31.5h4v-2.4h-4V31.5z"/>
		</g>
		<g>
			<path class="st1" d="M388,73.5v-7.7c-1.1,1.4-2.3,2.6-3.6,3.8c-1.4,1.2-2.7,2.1-4.1,2.8c-0.4-0.6-0.9-1.2-1.5-1.8
				c1.5-0.7,3-1.6,4.5-2.8c1.5-1.2,2.7-2.5,3.7-3.8h-7.5V62h8.6v-3.4h-7v-2.1h7v-3.5h2.2v3.5h7.2v2.1h-7.2V62h8.8v2.1h-7.7
				c1,1.4,2.2,2.6,3.7,3.8c1.5,1.2,3,2.1,4.5,2.8c-0.4,0.4-0.9,1-1.5,1.8c-1.4-0.7-2.8-1.6-4.1-2.8c-1.4-1.2-2.6-2.4-3.6-3.9v7.8
				H388z"/>
			<path class="st1" d="M409.2,62.8c-0.4-0.3-0.9-0.7-1.6-1.1c-0.7-0.4-1.4-0.8-2-1l1.2-1.5c1.6,0.6,2.8,1.3,3.6,2L409.2,62.8z
				 M407.9,73.2l-1.9-1.1c1-2,2-4.4,3-7.1l1.7,1.1C409.8,68.7,408.9,71,407.9,73.2z M411.6,73.5v-12h5.9v-1.3h-3.2v-3.4h-3.2v-1.2
				l-1.2,1.6c-0.7-0.8-1.9-1.5-3.4-2.3l1.2-1.5c1.5,0.6,2.6,1.3,3.5,2.1v-0.5h3.2V53h2v1.9h4.3V53h2v1.9h3.3v1.9h-3.3v3.4h-3.4v1.3
				h6.1v10.2c0,0.4-0.1,0.8-0.2,1c-0.1,0.2-0.3,0.4-0.6,0.6c-0.4,0.2-1.3,0.2-2.8,0.2c-0.1-0.6-0.3-1.1-0.5-1.5c0.5,0,1.2,0,1.9,0
				c0.2,0,0.3-0.1,0.3-0.3v-1.8c-0.3,0.3-0.6,0.5-0.7,0.7c-0.5-0.6-1-1.4-1.3-2.4c-0.3,1.1-0.9,1.9-1.6,2.4
				c-0.2-0.3-0.5-0.6-0.7-0.8v3.5h-1.8v-3.4c-0.3,0.2-0.5,0.4-0.7,0.7c-0.5-0.5-0.9-1.3-1.2-2.3c-0.3,1.1-0.8,1.9-1.5,2.5
				c-0.2-0.3-0.4-0.6-0.8-0.8v3.5H411.6z M413.3,69.9c0.9-0.8,1.4-1.9,1.5-3.5h0.4c0-0.3,0-0.5-0.1-0.7h-1.2v-1.3h2.2
				c0.1,2.4,0.5,4.1,1.3,5.1v-6.2h-4.2V69.9z M416.3,58.4h4.3v-1.6h-4.3V58.4z M419.3,69.6c0.9-0.7,1.4-1.9,1.5-3.3h0.4
				c0-0.1,0-0.4-0.1-0.7H420v-1.3h2.1c0.1,2.5,0.6,4.2,1.4,5.2v-6.2h-4.3V69.6z"/>
			<path class="st1" d="M441.6,73.5V63.3h-8.8v-2.1h8.8v-8.1h2.3v8.1h8.9v2.1h-8.9v10.2H441.6z"/>
			<path class="st1" d="M460.9,73.6c-0.7-0.7-1.3-1.2-1.7-1.5c2.8-2.5,4.6-6.8,5.4-12.9l2.4,0.3c-0.5,3-1.2,5.6-2,7.7
				C463.9,69.9,462.5,72.1,460.9,73.6z M477.6,73.5c-1.8-1.6-3.2-3.9-4.3-7c-0.8-2.5-1.4-5.7-1.8-9.6H464v-2.2h9.6
				c0.4,4.1,0.9,7.5,1.8,10.1c1,3.2,2.5,5.6,4.4,7C479.1,72.2,478.4,72.7,477.6,73.5z"/>
			<path class="st1" d="M487.5,73.6c-0.4-0.4-1-0.7-1.7-1c1.3-1.7,1.9-4.2,1.9-7.5v-3.7h9.8c-0.1-0.7-0.1-1.3-0.1-1.7h-11v-1.7h3.5
				V54h1.9v3.8h3.7v-4.8h2v1.7h6.5v1.6h-6.5v1.5h8.5v1.7h-3.3c0.8,0.5,1.4,0.9,1.9,1.2l-0.4,0.4h1.7V63h-6.2
				c0.2,1.7,0.6,3.3,1.1,4.6c0.8-1.1,1.4-2.4,1.9-3.8l1.9,0.4c-0.7,2-1.7,3.8-2.9,5.4c0.8,1.4,1.6,2.1,2.4,2.1
				c0.3,0,0.5-0.2,0.6-0.7c0.1-0.5,0.2-1.2,0.3-2.3c0.5,0.4,1,0.7,1.5,0.9c-0.1,1.5-0.4,2.6-0.8,3.1c-0.4,0.5-0.9,0.8-1.7,0.8
				c-1.4,0-2.6-0.8-3.6-2.5c-0.9,0.9-2,1.7-3.2,2.4c-0.5-0.6-0.9-1-1.4-1.4c1.4-0.7,2.6-1.6,3.7-2.7c-0.7-1.7-1.3-3.8-1.6-6.3h-8.1
				v2c0,1.6-0.1,3-0.4,4.4c0.8-0.7,1.4-1.8,1.8-3.1l1.5,0.3c-0.4,1.4-1.1,2.7-2,3.6c-0.3-0.2-0.7-0.5-1.3-0.8
				C488.8,71.1,488.3,72.5,487.5,73.6z M490.7,73.5c-0.3-0.6-0.6-1-0.9-1.2c1.3-0.4,2.5-1,3.6-1.7c-0.2,0-0.5,0-1,0
				c-0.1-0.3-0.3-0.7-0.6-1.3c0.4,0,0.7,0,1.1,0c0.1,0,0.2-0.1,0.2-0.2v-3.6h-2.7v-1.5h6.9v1.5h-2.5v3.6v0.1
				c0.7-0.9,1.2-1.8,1.4-2.7l1.7,0.2c-0.5,1.6-1.4,3-2.6,4.1C494.1,72.1,492.5,72.9,490.7,73.5z M499.4,61.3h3.3
				c-0.6-0.4-1.3-0.9-2.1-1.2l0.5-0.4h-1.8C499.3,60,499.3,60.5,499.4,61.3z"/>
			<path class="st1" d="M517,62.2v-3.4c-1,1.4-2,2.5-3.1,3.3c-0.3-0.5-0.8-1-1.3-1.4c1.5-0.9,2.7-2.2,3.8-3.9h-3v-1.7h3.6v-2.1h1.9
				v2.1h3v1.7h-3V57c0.5,0.3,1.6,1,3.2,2.1c0.1,0.1,0.2,0.1,0.2,0.2l-1.1,1.4c-0.4-0.4-1.2-1-2.3-1.9v3.5H517z M514.6,73.2
				c-0.6-0.5-1.1-0.9-1.6-1.3c0.8-0.4,1.6-0.9,2.3-1.5c0.8-0.6,1.4-1.3,1.8-1.9l1.9,0.6c-0.5,0.8-1.2,1.5-2.1,2.3
				C516.2,72.1,515.4,72.7,514.6,73.2z M519.3,73.6c-0.1-0.6-0.4-1.2-0.7-1.8c1.4,0,2.4,0.1,2.9,0c0.2,0,0.3,0,0.4-0.1
				c0.1,0,0.1-0.1,0.1-0.3v-3.5h-8.7v-1.8h19.3v1.8H524v3.6c0,0.5-0.1,0.9-0.2,1.2c-0.2,0.3-0.4,0.5-0.8,0.6
				C522.4,73.5,521.2,73.6,519.3,73.6z M515.8,64.7V63h14.6v1.7H515.8z M526.7,62.2v-3.6c-1.1,1.5-2.2,2.6-3.5,3.5
				c-0.4-0.6-0.9-1.1-1.3-1.4c0.7-0.4,1.5-0.9,2.2-1.6c0.7-0.7,1.3-1.4,1.9-2.2h-3.2v-1.7h3.8v-2.1h1.9v2.1h3.8v1.7h-3.3
				c0.5,0.7,1.2,1.5,1.9,2.1c0.7,0.7,1.5,1.2,2.2,1.6c-0.5,0.4-0.9,0.8-1.3,1.4c-1.1-0.8-2.2-1.9-3.2-3.3v3.5H526.7z M530.7,73.2
				c-0.4-0.5-1.1-1.1-2-1.8c-0.8-0.7-1.6-1.3-2.4-1.9l1.7-1c2,1.4,3.5,2.6,4.5,3.6L530.7,73.2z"/>
			<path class="st1" d="M539.7,72.4v-2.1h3V57.8h2.1v12.6h4.7V53.1h2.2v7.1h7v2.1h-7v8h8v2.1H539.7z"/>
			<path class="st1" d="M567.1,59.6c-0.4-0.5-0.8-0.9-1.3-1.3c1-0.7,1.8-1.6,2.6-2.6c0.7-0.9,1.2-1.8,1.6-2.7h2
				c1.7,1.4,2.9,2.7,3.7,3.9l-1.2,1.4c-0.3-0.4-0.6-0.8-0.9-1.2v1.3h-4.5v-0.8C568.5,58.4,567.8,59.1,567.1,59.6z M567.6,73.6v-14
				h7.2v2.1c1.4-1.9,2.3-4.8,2.8-8.6l2,0.3c-0.2,1.3-0.5,2.5-0.7,3.7h6l0.3-0.1l1.4,0.4c-0.5,2.6-1,4.6-1.6,6l-1.6-0.6
				c0.3-0.9,0.6-2.1,1-3.8h-2.6v2.6c0,1.5,0.3,3.1,0.9,4.8c0.9,2.4,2.3,4.2,4.1,5.4c-0.5,0.6-0.9,1.2-1.3,1.8
				c-1.4-1-2.6-2.3-3.5-4.2c-0.7-1.4-1.1-2.7-1.3-4c-0.2,1.3-0.7,2.6-1.4,3.9c-1,1.8-2.3,3.2-3.9,4.2c-0.4-0.7-0.8-1.3-1.2-1.7
				c0.2-0.1,0.4-0.2,0.6-0.4h-5.4v2.1H567.6z M575,71.3c1.7-1.3,3-3,3.8-5.3c0.6-1.5,0.8-3,0.8-4.5v-2.6h-1.4
				c-0.6,1.8-1.3,3.1-2,4.2c-0.4-0.3-0.9-0.7-1.5-1v3.9h-5.4v1.2h5.4v1.6h-5.4v1.2h5.7V71.3z M569.3,62.1h3.7v-1.2h-3.7V62.1z
				 M569.3,64.5h3.7v-1.2h-3.7V64.5z M569.7,57h3.8c-0.7-0.9-1.4-1.7-2.2-2.3C570.9,55.5,570.3,56.3,569.7,57z"/>
			<path class="st1" d="M596.6,63c-1-0.6-2.2-1.4-3.7-2.2l1.2-1.5c1.9,0.9,3.1,1.6,3.7,2L596.6,63z M595.1,73.2l-1.9-1.2
				c1.3-2.2,2.4-4.6,3.5-7.2l1.7,1.2C597.4,68.6,596.3,71,595.1,73.2z M597.2,57.2c-0.6-0.5-1.8-1.2-3.6-2.3l1.2-1.5
				c1.7,0.9,2.9,1.6,3.7,2.1L597.2,57.2z M599.3,73.5V58.7h3.7v-2.6h-4.4v-1.9h14.6v1.9h-4.7v2.6h4v14.7h-2v-0.9h-9.4v1H599.3z
				 M601.2,66.8h9.4V65h-0.2h-1.9c-0.8,0-1.3-0.1-1.5-0.4c-0.3-0.3-0.4-0.8-0.4-1.7v-2.3h-1.7v0.7c0,2.1-1,3.6-2.9,4.6
				c-0.2-0.2-0.4-0.5-0.8-0.8V66.8z M601.2,64.5c1.4-0.8,2.1-1.9,2.1-3.3v-0.7h-2.1V64.5z M601.2,70.7h9.4v-2.1h-9.4V70.7z
				 M604.8,58.7h1.9v-2.6h-1.9V58.7z M608.7,63.3h1.5c0.2,0,0.3,0,0.4,0v-2.7h-2.3v2.3c0,0.2,0,0.3,0.1,0.4
				C608.4,63.3,608.5,63.3,608.7,63.3z"/>
		</g>
	</g>
	<g>
		<g>
			<path class="st1" d="M775.4,35.7v-3.4c-1,1.4-2,2.6-3.2,3.4c-0.3-0.6-0.8-1-1.3-1.4c1.5-0.9,2.8-2.2,3.9-3.9h-3v-1.7h3.6v-2.1
				h1.9v2.1h3v1.7h-3v0.1c0.5,0.3,1.6,1,3.2,2.1c0.1,0.1,0.2,0.1,0.2,0.2l-1.1,1.4c-0.4-0.4-1.2-1.1-2.3-1.9v3.6H775.4z M772.9,46.8
				c-0.6-0.5-1.1-1-1.6-1.3c0.8-0.4,1.6-0.9,2.4-1.6c0.8-0.6,1.4-1.3,1.8-1.9l2,0.6c-0.5,0.8-1.2,1.5-2.1,2.3
				C774.5,45.7,773.7,46.3,772.9,46.8z M777.7,47.1c-0.1-0.6-0.4-1.2-0.7-1.8c1.4,0,2.4,0.1,2.9,0c0.2,0,0.3,0,0.4-0.1
				c0.1,0,0.1-0.1,0.1-0.3v-3.5h-8.8v-1.8h19.5v1.8h-8.7V45c0,0.5-0.1,0.9-0.2,1.2c-0.2,0.3-0.4,0.5-0.8,0.6
				C780.8,47,779.6,47.1,777.7,47.1z M774.1,38.1v-1.7h14.8v1.7H774.1z M785.1,35.7V32c-1.1,1.5-2.3,2.7-3.5,3.5
				c-0.5-0.6-0.9-1.1-1.3-1.4c0.8-0.4,1.5-0.9,2.3-1.6c0.7-0.7,1.4-1.4,1.9-2.2h-3.2v-1.7h3.9v-2.1h2v2.1h3.8v1.7h-3.3
				c0.5,0.8,1.2,1.5,1.9,2.2c0.7,0.7,1.5,1.2,2.2,1.6c-0.5,0.4-0.9,0.9-1.3,1.4c-1.1-0.8-2.2-2-3.3-3.4v3.6H785.1z M789.2,46.7
				c-0.5-0.5-1.1-1.1-2-1.8c-0.8-0.7-1.6-1.3-2.5-1.9l1.7-1c2,1.4,3.5,2.6,4.5,3.7L789.2,46.7z"/>
			<path class="st1" d="M798.2,46v-2.1h3V31.2h2.2v12.7h4.7V26.5h2.2v7.2h7v2.1h-7v8.1h8.1V46H798.2z"/>
			<path class="st1" d="M828.7,36.5c-1-0.6-2.2-1.4-3.7-2.2l1.2-1.6c1.9,0.9,3.1,1.6,3.8,2L828.7,36.5z M827.2,46.7l-1.9-1.2
				c1.3-2.2,2.5-4.6,3.5-7.3l1.7,1.2C829.5,42.1,828.4,44.5,827.2,46.7z M829.3,30.6c-0.6-0.5-1.8-1.2-3.6-2.3l1.2-1.5
				c1.7,0.9,2.9,1.6,3.7,2.1L829.3,30.6z M831.4,47.1V32.1h3.7v-2.6h-4.4v-1.9h14.8v1.9h-4.8v2.6h4.1V47h-2V46h-9.5v1H831.4z
				 M833.4,40.3h9.5v-1.8h-0.2h-1.9c-0.8,0-1.3-0.1-1.5-0.4c-0.3-0.3-0.4-0.8-0.4-1.7V34h-1.7v0.7c0,2.1-1,3.6-2.9,4.7
				c-0.2-0.2-0.4-0.5-0.8-0.9V40.3z M833.4,38c1.4-0.8,2.1-1.9,2.1-3.3V34h-2.1V38z M833.4,44.2h9.5v-2.2h-9.5V44.2z M837,32.1h1.9
				v-2.6H837V32.1z M840.9,36.8h1.5c0.2,0,0.3,0,0.4,0V34h-2.4v2.3c0,0.2,0,0.3,0.1,0.4C840.6,36.7,840.7,36.8,840.9,36.8z"/>
			<path class="st1" d="M853.1,34.4c-0.2-0.5-0.6-1-1.1-1.5c1.9-0.7,3.1-1.8,3.7-3.4h-3V28h3.4c0.1-0.3,0.1-0.9,0.2-1.6h1.9
				c0,0.4-0.1,0.9-0.2,1.6h4.7c0,0.2,0,0.5,0,0.7c-0.1,1.3-0.2,2.2-0.3,2.8c-0.1,0.6-0.3,1-0.5,1.3c-0.3,0.3-0.7,0.5-1.2,0.5
				c-0.6,0.1-1.3,0.1-2.1,0c0-0.6-0.2-1.1-0.5-1.6c0.6,0.1,1.2,0.1,1.6,0.1c0.3,0,0.4-0.1,0.6-0.2c0.2-0.2,0.4-0.9,0.5-2.1h-3
				c-0.3,1.2-0.8,2.1-1.5,2.9C855.4,33.3,854.4,33.9,853.1,34.4z M853.9,47.1l-1.7-1c0.9-0.8,1.7-1.9,2.6-3.3l1.7,0.9
				c-0.1,0.2-0.3,0.4-0.5,0.7C855.1,45.6,854.4,46.6,853.9,47.1z M867.1,47.1c-0.1-0.7-0.2-1.2-0.5-1.6c0.8,0.1,1.4,0.1,1.8,0.1
				c0.3,0,0.5-0.1,0.7-0.2c0.3-0.3,0.5-1.2,0.7-2.8h-13.2v0h-1.4V34h15.3v1.4h-6.2v1.1h5.3v1.2h-5.3v1.1h5.3V40h-5.3v1.1h7.7
				c0,0.2,0,0.5-0.1,0.7c-0.2,1.5-0.3,2.5-0.5,3.2c-0.2,0.7-0.4,1.2-0.7,1.4c-0.3,0.4-0.8,0.5-1.3,0.6
				C869,47.1,868.2,47.1,867.1,47.1z M857.2,36.5h5v-1.1h-5V36.5z M857.2,38.8h5v-1.1h-5V38.8z M857.2,41.1h5V40h-5V41.1z
				 M858.3,46.8c0-0.8-0.3-1.9-0.6-3.2l1.8-0.3c0.4,1.2,0.6,2.3,0.7,3.2L858.3,46.8z M862.5,46.5c-0.2-0.9-0.6-1.9-1.2-2.9l1.6-0.5
				c0.6,1,1.1,2,1.3,2.9L862.5,46.5z M863.8,33.1v-5.6h8v5.6H863.8z M866.4,45.6c-0.3-0.7-0.9-1.4-1.6-2.2l1.4-0.6
				c0.8,0.8,1.3,1.5,1.6,2.1L866.4,45.6z M865.7,31.5h4v-2.4h-4V31.5z"/>
		</g>
		<g>
			<path class="st1" d="M713.5,73.5v-7.7c-1.1,1.4-2.3,2.6-3.6,3.8c-1.4,1.2-2.7,2.1-4.1,2.8c-0.4-0.6-0.9-1.2-1.5-1.8
				c1.5-0.7,3-1.6,4.5-2.8c1.5-1.2,2.7-2.5,3.7-3.8h-7.5V62h8.6v-3.4h-7v-2.1h7v-3.5h2.2v3.5h7.2v2.1h-7.2V62h8.8v2.1h-7.7
				c1,1.4,2.2,2.6,3.7,3.8c1.5,1.2,3,2.1,4.5,2.8c-0.4,0.4-0.9,1-1.5,1.8c-1.4-0.7-2.8-1.6-4.1-2.8c-1.4-1.2-2.6-2.4-3.6-3.9v7.8
				H713.5z"/>
			<path class="st1" d="M734.6,62.8c-0.4-0.3-0.9-0.7-1.6-1.1c-0.7-0.4-1.4-0.8-2-1l1.2-1.5c1.6,0.6,2.8,1.3,3.6,2L734.6,62.8z
				 M733.3,73.2l-1.9-1.1c1-2,2-4.4,3-7.1l1.7,1.1C735.3,68.7,734.3,71,733.3,73.2z M737,73.5v-12h5.9v-1.3h-3.2v-3.4h-3.2v-1.2
				l-1.2,1.6c-0.7-0.8-1.9-1.5-3.4-2.3l1.2-1.5c1.5,0.6,2.6,1.3,3.5,2.1v-0.5h3.2V53h2v1.9h4.3V53h2v1.9h3.3v1.9h-3.3v3.4h-3.4v1.3
				h6.1v10.2c0,0.4-0.1,0.8-0.2,1c-0.1,0.2-0.3,0.4-0.6,0.6c-0.4,0.2-1.3,0.2-2.8,0.2c-0.1-0.6-0.3-1.1-0.5-1.5c0.5,0,1.2,0,1.9,0
				c0.2,0,0.3-0.1,0.3-0.3v-1.8c-0.3,0.3-0.6,0.5-0.7,0.7c-0.5-0.6-1-1.4-1.3-2.4c-0.3,1.1-0.9,1.9-1.6,2.4
				c-0.2-0.3-0.5-0.6-0.7-0.8v3.5h-1.8v-3.4c-0.3,0.2-0.5,0.4-0.7,0.7c-0.5-0.5-0.9-1.3-1.2-2.3c-0.3,1.1-0.8,1.9-1.5,2.5
				c-0.2-0.3-0.4-0.6-0.8-0.8v3.5H737z M738.8,69.9c0.9-0.8,1.4-1.9,1.5-3.5h0.4c0-0.3,0-0.5-0.1-0.7h-1.2v-1.3h2.2
				c0.1,2.4,0.5,4.1,1.3,5.1v-6.2h-4.2V69.9z M741.7,58.4h4.3v-1.6h-4.3V58.4z M744.8,69.6c0.9-0.7,1.4-1.9,1.5-3.3h0.4
				c0-0.1,0-0.4-0.1-0.7h-1.1v-1.3h2.1c0.1,2.5,0.6,4.2,1.4,5.2v-6.2h-4.3V69.6z"/>
			<path class="st1" d="M767,73.5V63.3h-8.8v-2.1h8.8v-8.1h2.3v8.1h8.9v2.1h-8.9v10.2H767z"/>
			<path class="st1" d="M786.3,73.6c-0.7-0.7-1.3-1.2-1.7-1.5c2.8-2.5,4.6-6.8,5.4-12.9l2.4,0.3c-0.5,3-1.2,5.6-2,7.7
				C789.3,69.9,788,72.1,786.3,73.6z M803.1,73.5c-1.8-1.6-3.2-3.9-4.3-7c-0.8-2.5-1.4-5.7-1.8-9.6h-7.6v-2.2h9.6
				c0.4,4.1,0.9,7.5,1.8,10.1c1,3.2,2.5,5.6,4.4,7C804.5,72.2,803.8,72.7,803.1,73.5z"/>
			<path class="st1" d="M812.9,73.6c-0.4-0.4-1-0.7-1.7-1c1.3-1.7,1.9-4.2,1.9-7.5v-3.7h9.8c-0.1-0.7-0.1-1.3-0.1-1.7h-11v-1.7h3.5
				V54h1.9v3.8h3.7v-4.8h2v1.7h6.5v1.6h-6.5v1.5h8.5v1.7h-3.3c0.8,0.5,1.4,0.9,1.9,1.2l-0.4,0.4h1.7V63H825c0.2,1.7,0.6,3.3,1.1,4.6
				c0.8-1.1,1.4-2.4,1.9-3.8l1.9,0.4c-0.7,2-1.7,3.8-2.9,5.4c0.8,1.4,1.6,2.1,2.4,2.1c0.3,0,0.5-0.2,0.6-0.7
				c0.1-0.5,0.2-1.2,0.3-2.3c0.5,0.4,1,0.7,1.5,0.9c-0.1,1.5-0.4,2.6-0.8,3.1c-0.4,0.5-0.9,0.8-1.7,0.8c-1.4,0-2.6-0.8-3.6-2.5
				c-0.9,0.9-2,1.7-3.2,2.4c-0.5-0.6-0.9-1-1.4-1.4c1.4-0.7,2.6-1.6,3.7-2.7c-0.7-1.7-1.3-3.8-1.6-6.3H815v2c0,1.6-0.1,3-0.4,4.4
				c0.8-0.7,1.4-1.8,1.8-3.1l1.5,0.3c-0.4,1.4-1.1,2.7-2,3.6c-0.3-0.2-0.7-0.5-1.3-0.8C814.3,71.1,813.7,72.5,812.9,73.6z
				 M816.1,73.5c-0.3-0.6-0.6-1-0.9-1.2c1.3-0.4,2.5-1,3.6-1.7c-0.2,0-0.5,0-1,0c-0.1-0.3-0.3-0.7-0.6-1.3c0.4,0,0.7,0,1.1,0
				c0.1,0,0.2-0.1,0.2-0.2v-3.6h-2.7v-1.5h6.9v1.5h-2.5v3.6v0.1c0.7-0.9,1.2-1.8,1.4-2.7l1.7,0.2c-0.5,1.6-1.4,3-2.6,4.1
				C819.5,72.1,818,72.9,816.1,73.5z M824.8,61.3h3.3c-0.6-0.4-1.3-0.9-2.1-1.2l0.5-0.4h-1.8C824.7,60,824.8,60.5,824.8,61.3z"/>
			<path class="st1" d="M842.5,62.2v-3.4c-1,1.4-2,2.5-3.1,3.3c-0.3-0.5-0.8-1-1.3-1.4c1.5-0.9,2.7-2.2,3.8-3.9h-3v-1.7h3.6v-2.1
				h1.9v2.1h3v1.7h-3V57c0.5,0.3,1.6,1,3.2,2.1c0.1,0.1,0.2,0.1,0.2,0.2l-1.1,1.4c-0.4-0.4-1.2-1-2.3-1.9v3.5H842.5z M840,73.2
				c-0.6-0.5-1.1-0.9-1.6-1.3c0.8-0.4,1.6-0.9,2.3-1.5c0.8-0.6,1.4-1.3,1.8-1.9l1.9,0.6c-0.5,0.8-1.2,1.5-2.1,2.3
				C841.6,72.1,840.8,72.7,840,73.2z M844.8,73.6c-0.1-0.6-0.4-1.2-0.7-1.8c1.4,0,2.4,0.1,2.9,0c0.2,0,0.3,0,0.4-0.1
				c0.1,0,0.1-0.1,0.1-0.3v-3.5h-8.7v-1.8h19.3v1.8h-8.6v3.6c0,0.5-0.1,0.9-0.2,1.2c-0.2,0.3-0.4,0.5-0.8,0.6
				C847.9,73.5,846.7,73.6,844.8,73.6z M841.2,64.7V63h14.6v1.7H841.2z M852.1,62.2v-3.6c-1.1,1.5-2.2,2.6-3.5,3.5
				c-0.4-0.6-0.9-1.1-1.3-1.4c0.7-0.4,1.5-0.9,2.2-1.6c0.7-0.7,1.3-1.4,1.9-2.2h-3.2v-1.7h3.8v-2.1h1.9v2.1h3.8v1.7h-3.3
				c0.5,0.7,1.2,1.5,1.9,2.1c0.7,0.7,1.5,1.2,2.2,1.6c-0.5,0.4-0.9,0.8-1.3,1.4c-1.1-0.8-2.2-1.9-3.2-3.3v3.5H852.1z M856.2,73.2
				c-0.4-0.5-1.1-1.1-2-1.8c-0.8-0.7-1.6-1.3-2.4-1.9l1.7-1c2,1.4,3.5,2.6,4.5,3.6L856.2,73.2z"/>
			<path class="st1" d="M865.1,72.4v-2.1h3V57.8h2.1v12.6h4.7V53.1h2.2v7.1h7v2.1h-7v8h8v2.1H865.1z"/>
			<path class="st1" d="M892.5,59.6c-0.4-0.5-0.8-0.9-1.3-1.3c1-0.7,1.8-1.6,2.6-2.6c0.7-0.9,1.2-1.8,1.7-2.7h2
				c1.7,1.4,2.9,2.7,3.7,3.9l-1.2,1.4c-0.3-0.4-0.6-0.8-0.9-1.2v1.3h-4.5v-0.8C893.9,58.4,893.2,59.1,892.5,59.6z M893,73.6v-14h7.2
				v2.1c1.4-1.9,2.3-4.8,2.8-8.6l2,0.3c-0.2,1.3-0.5,2.5-0.7,3.7h6l0.3-0.1l1.4,0.4c-0.5,2.6-1,4.6-1.6,6l-1.6-0.6
				c0.3-0.9,0.6-2.1,1-3.8h-2.6v2.6c0,1.5,0.3,3.1,0.9,4.8c0.9,2.4,2.3,4.2,4.1,5.4c-0.5,0.6-0.9,1.2-1.3,1.8
				c-1.4-1-2.6-2.3-3.5-4.2c-0.7-1.4-1.1-2.7-1.3-4c-0.2,1.3-0.7,2.6-1.4,3.9c-1,1.8-2.3,3.2-3.9,4.2c-0.4-0.7-0.8-1.3-1.2-1.7
				c0.2-0.1,0.4-0.2,0.6-0.4h-5.4v2.1H893z M900.4,71.3c1.7-1.3,3-3,3.8-5.3c0.6-1.5,0.8-3,0.8-4.5v-2.6h-1.4
				c-0.6,1.8-1.3,3.1-2,4.2c-0.4-0.3-0.9-0.7-1.5-1v3.9h-5.4v1.2h5.4v1.6h-5.4v1.2h5.7V71.3z M894.8,62.1h3.7v-1.2h-3.7V62.1z
				 M894.8,64.5h3.7v-1.2h-3.7V64.5z M895.1,57h3.8c-0.7-0.9-1.4-1.7-2.2-2.3C896.3,55.5,895.8,56.3,895.1,57z"/>
			<path class="st1" d="M922,63c-1-0.6-2.2-1.4-3.7-2.2l1.2-1.5c1.9,0.9,3.1,1.6,3.7,2L922,63z M920.5,73.2l-1.9-1.2
				c1.3-2.2,2.4-4.6,3.5-7.2l1.6,1.2C922.8,68.6,921.7,71,920.5,73.2z M922.6,57.2c-0.6-0.5-1.8-1.2-3.6-2.3l1.2-1.5
				c1.6,0.9,2.9,1.6,3.7,2.1L922.6,57.2z M924.7,73.5V58.7h3.7v-2.6H924v-1.9h14.6v1.9H934v2.6h4v14.7h-2v-0.9h-9.4v1H924.7z
				 M926.6,66.8h9.4V65h-0.2h-1.9c-0.8,0-1.3-0.1-1.5-0.4c-0.3-0.3-0.4-0.8-0.4-1.7v-2.3h-1.7v0.7c0,2.1-1,3.6-2.9,4.6
				c-0.2-0.2-0.4-0.5-0.8-0.8V66.8z M926.6,64.5c1.4-0.8,2.1-1.9,2.1-3.3v-0.7h-2.1V64.5z M926.6,70.7h9.4v-2.1h-9.4V70.7z
				 M930.2,58.7h1.9v-2.6h-1.9V58.7z M934.1,63.3h1.5c0.2,0,0.3,0,0.4,0v-2.7h-2.3v2.3c0,0.2,0,0.3,0.1,0.4
				C933.8,63.3,933.9,63.3,934.1,63.3z"/>
		</g>
	</g>
</g>
</svg>
