<?xml version="1.0" encoding="utf-8"?>
<!-- Generator: Adobe Illustrator 28.1.0, SVG Export Plug-In . SVG Version: 6.00 Build 0)  -->
<svg version="1.1" id="_圖層_1" xmlns="http://www.w3.org/2000/svg" xmlns:xlink="http://www.w3.org/1999/xlink" x="0px" y="0px"
	 viewBox="0 0 1920 100" style="enable-background:new 0 0 1920 100;" xml:space="preserve">
<style type="text/css">
	.st0{display:none;}
	.st1{fill:#FFFFFF;}
</style>
<rect class="st0" width="1920" height="100"/>
<g>
	<g>
		<g>
			<path class="st1" d="M32.3,47.6v-5.4c-1.5,2.2-3.2,4-4.9,5.3c-0.5-0.9-1.2-1.6-2-2.3c2.3-1.4,4.3-3.4,6.1-6.1h-4.8v-2.7h5.7V33h3
				v3.4h4.7V39h-4.7v0.2c0.8,0.5,2.5,1.6,5,3.3c0.2,0.1,0.3,0.2,0.4,0.2L39,45c-0.7-0.6-1.9-1.6-3.6-3v5.6H32.3z M28.4,65
				c-0.9-0.8-1.7-1.5-2.6-2c1.3-0.7,2.5-1.5,3.7-2.4c1.2-1,2.2-2,2.9-3l3.1,1c-0.8,1.2-1.9,2.4-3.3,3.6C31,63.2,29.7,64.2,28.4,65z
				 M36,65.5c-0.2-0.9-0.6-1.8-1.1-2.9c2.2,0.1,3.7,0.1,4.6,0c0.3,0,0.5-0.1,0.6-0.1c0.1-0.1,0.1-0.2,0.1-0.5v-5.5H26.4v-2.8H57v2.8
				H43.4v5.7c0,0.8-0.1,1.5-0.3,1.9c-0.3,0.4-0.7,0.8-1.3,1C40.9,65.3,39,65.5,36,65.5z M30.4,51.4v-2.7h23.1v2.7H30.4z M47.6,47.6
				v-5.8c-1.7,2.4-3.5,4.2-5.5,5.5c-0.7-1-1.4-1.7-2-2.3c1.2-0.6,2.4-1.4,3.5-2.5c1.1-1.1,2.1-2.2,3-3.5h-5v-2.7h6.1V33h3.1v3.4h6
				V39h-5.2c0.8,1.2,1.9,2.3,3,3.4c1.2,1.1,2.3,1.9,3.4,2.6c-0.8,0.6-1.4,1.3-2.1,2.3C54,46,52.3,44.2,50.7,42v5.6H47.6z M54,64.9
				c-0.7-0.8-1.7-1.8-3.1-2.9c-1.3-1.1-2.6-2.1-3.8-3l2.6-1.6c3.1,2.2,5.5,4.1,7.1,5.8L54,64.9z"/>
			<path class="st1" d="M68.2,63.7v-3.3h4.7V40.5h3.4v19.9h7.4V33.1h3.5v11.3h11v3.3h-11v12.7h12.7v3.3H68.2z"/>
			<path class="st1" d="M115.9,48.8c-1.5-1-3.5-2.2-5.9-3.5l1.8-2.4c2.9,1.5,4.9,2.5,5.9,3.2L115.9,48.8z M113.6,64.9l-2.9-1.8
				c2-3.5,3.8-7.3,5.5-11.4l2.6,1.9C117.2,57.6,115.4,61.4,113.6,64.9z M116.9,39.6c-0.9-0.7-2.8-1.9-5.7-3.6l1.9-2.4
				c2.6,1.4,4.5,2.5,5.8,3.4L116.9,39.6z M120.3,65.4V42h5.8v-4.1h-6.9v-3h23.2v3h-7.5V42h6.4v23.3h-3.1v-1.5h-14.8v1.6H120.3z
				 M123.3,54.8h14.8v-2.9h-0.2h-3c-1.2,0-2-0.2-2.4-0.7c-0.4-0.4-0.6-1.3-0.6-2.6v-3.7h-2.7V46c0,3.3-1.5,5.7-4.6,7.3
				c-0.3-0.3-0.7-0.8-1.3-1.3V54.8z M123.3,51.2c2.2-1.3,3.3-3,3.3-5.2v-1.1h-3.3V51.2z M123.3,60.9h14.8v-3.4h-14.8V60.9z M129,42
				h2.9v-4.1H129V42z M135.2,49.3h2.3c0.3,0,0.5,0,0.6-0.1v-4.3h-3.7v3.7c0,0.3,0,0.5,0.1,0.6C134.6,49.2,134.8,49.3,135.2,49.3z"/>
			<path class="st1" d="M154.3,45.6c-0.4-0.8-1-1.6-1.7-2.3c2.9-1,4.9-2.8,5.8-5.3h-4.7v-2.5h5.3c0.1-0.5,0.2-1.4,0.3-2.4h3
				c0,0.6-0.1,1.4-0.3,2.4h7.3c0,0.4,0,0.8-0.1,1.1c-0.2,2-0.3,3.5-0.5,4.5c-0.2,1-0.5,1.6-0.8,2c-0.5,0.5-1.1,0.8-1.9,0.8
				c-0.9,0.1-2,0.1-3.3,0c0-0.9-0.3-1.7-0.7-2.5c1,0.1,1.9,0.1,2.5,0.1c0.4,0,0.7-0.1,0.9-0.3c0.3-0.3,0.6-1.4,0.7-3.3h-4.7
				c-0.5,1.8-1.3,3.3-2.4,4.5C157.9,43.8,156.3,44.8,154.3,45.6z M155.5,65.4l-2.7-1.6c1.3-1.2,2.7-3,4.1-5.2l2.6,1.4
				c-0.2,0.2-0.4,0.6-0.8,1.1C157.3,63.2,156.2,64.6,155.5,65.4z M176.2,65.5c-0.1-1-0.3-1.9-0.7-2.6c1.2,0.1,2.1,0.2,2.8,0.1
				c0.5,0,0.8-0.1,1-0.3c0.4-0.5,0.8-1.9,1.1-4.4h-20.7v0h-2.3V45h24v2.2h-9.7v1.7h8.3v1.9h-8.3v1.7h8.3v1.9h-8.3v1.7h12
				c0,0.4-0.1,0.8-0.1,1.2c-0.2,2.3-0.5,4-0.7,5.1c-0.3,1.1-0.6,1.9-1,2.3c-0.5,0.6-1.2,0.9-2,0.9C179.2,65.5,177.9,65.5,176.2,65.5
				z M160.7,48.9h7.9v-1.7h-7.9V48.9z M160.7,52.5h7.9v-1.7h-7.9V52.5z M160.7,56.1h7.9v-1.7h-7.9V56.1z M162.4,65
				c-0.1-1.3-0.4-3-1-5.1l2.8-0.5c0.6,1.9,1,3.6,1.1,5L162.4,65z M169,64.5c-0.3-1.4-1-2.9-1.9-4.6l2.5-0.7c1,1.6,1.7,3.1,2.1,4.5
				L169,64.5z M171.1,43.5v-8.8h12.5v8.8H171.1z M175.1,63.1c-0.5-1-1.4-2.2-2.4-3.5l2.3-0.9c1.2,1.2,2,2.3,2.5,3.3L175.1,63.1z
				 M174.1,41h6.3v-3.8h-6.3V41z"/>
		</g>
		<g>
			<path class="st1" d="M221.6,32.9c9.4,0,17.1,7.6,17.1,17.1c0,9.5-7.6,17.1-17.1,17.1c-9.4,0-17.1-7.6-17.1-17.1
				C204.6,40.5,212.2,32.9,221.6,32.9z M213.4,39.1c6.4,6.4,12.7,12.8,19.1,19.2c3.9-4.8,4-12.8-1.2-18
				C226.1,35.1,218.2,35.3,213.4,39.1z M210.8,41.7c-4,4.9-4.1,13.2,1.6,18.4c5.5,5.1,13.3,4.3,17.5,0.7
				C223.6,54.4,217.2,48.1,210.8,41.7z"/>
		</g>
		<g>
			<path class="st1" d="M275.4,65.8V53.7c-1.7,2.1-3.5,4.1-5.7,5.9c-2.1,1.8-4.3,3.3-6.5,4.4c-0.7-1-1.5-1.9-2.4-2.8
				c2.4-1,4.7-2.5,7-4.4c2.3-1.9,4.2-3.8,5.8-5.9h-11.8v-3.2h13.5v-5.3h-11v-3.2h11v-5.5h3.4v5.5h11.3v3.2h-11.3v5.3h13.7V51h-12.1
				c1.6,2.1,3.5,4.1,5.8,6c2.3,1.9,4.7,3.3,7.1,4.3c-0.7,0.6-1.5,1.5-2.4,2.8c-2.2-1.1-4.3-2.6-6.5-4.4c-2.1-1.8-4-3.8-5.7-6v12.2
				H275.4z"/>
			<path class="st1" d="M308.5,49.1c-0.6-0.5-1.4-1.1-2.5-1.7c-1.1-0.7-2.1-1.2-3.1-1.6l1.8-2.4c2.6,1,4.5,2,5.7,3.1L308.5,49.1z
				 M306.5,65.4l-2.9-1.7c1.6-3.1,3.2-6.8,4.7-11.1l2.7,1.7C309.6,58.2,308.1,61.9,306.5,65.4z M312.3,65.8V46.9h9.3v-2.1h-5v-5.3
				h-5v-1.9l-1.9,2.4c-1.1-1.2-2.9-2.4-5.4-3.7l1.8-2.3c2.3,1,4.1,2.1,5.4,3.3v-0.7h5v-2.9h3.1v2.9h6.8v-2.9h3.2v2.9h5.2v2.9h-5.2
				v5.3h-5.3v2.1h9.6v15.9c0,0.7-0.1,1.2-0.3,1.6c-0.2,0.4-0.5,0.7-0.9,0.9c-0.6,0.3-2.1,0.4-4.4,0.4c-0.2-1-0.5-1.8-0.8-2.4
				c0.9,0,1.8,0,2.9,0c0.3,0,0.5-0.2,0.5-0.5V60c-0.5,0.4-0.9,0.8-1.1,1.1c-0.8-0.9-1.5-2.1-2-3.7c-0.5,1.7-1.4,2.9-2.5,3.8
				c-0.3-0.5-0.7-0.9-1.1-1.2v5.5h-2.8v-5.4c-0.4,0.3-0.8,0.7-1,1c-0.8-0.8-1.4-2.1-1.9-3.6c-0.5,1.7-1.3,3-2.4,4
				c-0.3-0.5-0.7-0.9-1.2-1.3v5.5H312.3z M315.1,60.1c1.4-1.2,2.2-3,2.4-5.6h0.7c0-0.4-0.1-0.8-0.1-1.2h-1.8v-2.1h3.4
				c0.1,3.8,0.8,6.5,2,8v-9.7h-6.5V60.1z M319.7,42.1h6.8v-2.5h-6.8V42.1z M324.4,59.7c1.4-1.2,2.1-2.9,2.3-5.2h0.6
				c0-0.2-0.1-0.6-0.1-1.1h-1.8v-2.1h3.4c0.1,3.9,0.9,6.6,2.3,8.1v-9.7h-6.7V59.7z"/>
			<path class="st1" d="M359.3,65.8v-16h-13.7v-3.4h13.7V33.7h3.5v12.8h14v3.4h-14v16H359.3z"/>
			<path class="st1" d="M389.6,65.9c-1.1-1.1-2.1-1.9-2.7-2.4c4.4-3.9,7.2-10.7,8.4-20.3l3.8,0.5c-0.8,4.8-1.9,8.8-3.1,12.1
				C394.3,60.2,392.2,63.5,389.6,65.9z M415.9,65.8c-2.9-2.5-5.1-6.2-6.7-11c-1.3-3.9-2.3-8.9-2.9-15h-11.9v-3.4h15
				c0.6,6.5,1.5,11.8,2.8,15.8c1.6,5,3.9,8.7,6.9,11C418.1,63.7,417,64.6,415.9,65.8z"/>
			<path class="st1" d="M431.3,65.9c-0.6-0.6-1.5-1.1-2.7-1.6c2-2.6,3-6.6,3-11.8v-5.9h15.4c-0.1-1.2-0.2-2.1-0.2-2.7h-17.2v-2.7
				h5.4v-6h3v6h5.8v-7.6h3.1v2.7h10.2v2.5H447v2.3h13.3V44h-5.1c1.3,0.7,2.2,1.4,2.9,2l-0.7,0.7h2.7v2.7h-9.8
				c0.4,2.7,0.9,5.1,1.7,7.3c1.3-1.8,2.3-3.8,3-6l2.9,0.7c-1.1,3.1-2.6,5.9-4.6,8.4c1.2,2.2,2.5,3.3,3.8,3.3c0.4,0,0.7-0.4,0.9-1.1
				c0.2-0.7,0.3-1.9,0.4-3.6c0.7,0.7,1.5,1.1,2.4,1.4c-0.2,2.4-0.6,4-1.2,4.9c-0.6,0.8-1.5,1.2-2.7,1.2c-2.2,0-4.1-1.3-5.7-3.9
				c-1.5,1.4-3.1,2.7-5,3.8c-0.7-0.9-1.5-1.6-2.2-2.2c2.2-1.1,4.1-2.5,5.8-4.2c-1.2-2.7-2-6-2.6-9.8h-12.7v3.2
				c0,2.5-0.2,4.8-0.6,6.9c1.2-1.1,2.2-2.8,2.8-4.9l2.3,0.5c-0.7,2.3-1.8,4.2-3.2,5.7c-0.4-0.3-1.1-0.8-2-1.3
				C433.5,62.1,432.6,64.3,431.3,65.9z M436.4,65.8c-0.5-0.9-1-1.5-1.4-1.9c2.1-0.6,4-1.5,5.6-2.7c-0.3,0-0.8,0-1.5,0
				c-0.1-0.4-0.4-1.1-0.9-2c0.6,0,1.2,0,1.8,0c0.2,0,0.3-0.1,0.3-0.3v-5.6h-4.3V51h10.8v2.3h-3.8V59v0.1c1.1-1.4,1.8-2.8,2.2-4.3
				l2.6,0.4c-0.8,2.5-2.1,4.7-4.1,6.5C441.7,63.5,439.3,64.9,436.4,65.8z M450,46.6h5.2c-1-0.7-2.1-1.4-3.3-2l0.7-0.7h-2.8
				C449.8,44.6,449.9,45.5,450,46.6z"/>
			<path class="st1" d="M477.7,48.1v-5.4c-1.5,2.2-3.1,4-4.9,5.2c-0.5-0.9-1.2-1.6-2-2.2c2.3-1.4,4.3-3.4,6-6.1h-4.7v-2.7h5.6v-3.3
				h3v3.3h4.7v2.7h-4.7v0.2c0.8,0.5,2.4,1.6,5,3.3c0.2,0.1,0.3,0.2,0.3,0.2l-1.7,2.2c-0.7-0.6-1.9-1.6-3.6-3v5.5H477.7z M473.8,65.4
				c-0.9-0.8-1.7-1.5-2.6-2c1.3-0.7,2.5-1.5,3.7-2.4c1.2-1,2.1-2,2.9-3l3,1c-0.8,1.2-1.9,2.4-3.3,3.6
				C476.3,63.6,475.1,64.6,473.8,65.4z M481.3,65.9c-0.2-0.9-0.6-1.8-1.1-2.8c2.2,0.1,3.7,0.1,4.5,0c0.3,0,0.5-0.1,0.6-0.1
				c0.1-0.1,0.1-0.2,0.1-0.5V57h-13.6v-2.8h30.3V57h-13.5v5.6c0,0.8-0.1,1.5-0.3,1.9c-0.3,0.4-0.7,0.8-1.3,1
				C486.2,65.7,484.2,65.9,481.3,65.9z M475.7,51.9v-2.7h22.9v2.7H475.7z M492.8,48.1v-5.7c-1.7,2.3-3.5,4.1-5.5,5.4
				c-0.7-1-1.4-1.7-2-2.2c1.2-0.6,2.3-1.4,3.5-2.5c1.1-1,2.1-2.2,2.9-3.4h-5v-2.7h6v-3.3h3v3.3h5.9v2.7h-5.2c0.8,1.2,1.8,2.3,3,3.4
				c1.2,1.1,2.3,1.9,3.4,2.6c-0.7,0.6-1.4,1.3-2.1,2.2c-1.7-1.3-3.4-3-5.1-5.2v5.5H492.8z M499.2,65.3c-0.7-0.8-1.7-1.7-3.1-2.9
				c-1.3-1.1-2.6-2.1-3.8-3l2.6-1.6c3.1,2.1,5.4,4,7,5.7L499.2,65.3z"/>
			<path class="st1" d="M513.1,64.1v-3.3h4.7V41.2h3.4v19.7h7.3v-27h3.5V45h10.9v3.3H532v12.6h12.6v3.3H513.1z"/>
			<path class="st1" d="M556.2,44c-0.6-0.8-1.3-1.4-2.1-2c1.5-1.1,2.9-2.5,4.1-4.1c1.1-1.4,1.9-2.8,2.6-4.2h3.1
				c2.6,2.2,4.6,4.2,5.9,6l-2,2.2c-0.4-0.6-0.9-1.3-1.4-1.9v2.1h-7v-1.3C558.3,42.1,557.3,43.1,556.2,44z M556.9,65.9v-22h11.3v3.4
				c2.1-3,3.6-7.5,4.4-13.5l3.1,0.5c-0.3,2-0.7,3.9-1.2,5.7h9.4l0.5-0.1l2.2,0.6c-0.7,4.1-1.6,7.3-2.5,9.4l-2.6-0.9
				c0.5-1.4,1-3.4,1.5-5.9h-4.1v4.1c0,2.4,0.5,4.9,1.5,7.5c1.4,3.8,3.6,6.6,6.5,8.5c-0.7,0.9-1.4,1.8-2.1,2.9
				c-2.2-1.5-4.1-3.7-5.5-6.5c-1-2.1-1.7-4.2-2-6.2c-0.3,2-1,4.1-2.2,6.2c-1.6,2.8-3.6,5-6.1,6.6c-0.6-1.1-1.3-2-1.9-2.7
				c0.3-0.2,0.6-0.4,0.9-0.6h-8.5v3.3H556.9z M568.6,62.3c2.7-2,4.7-4.8,6-8.3c0.9-2.4,1.3-4.8,1.3-7v-4.1h-2.2
				c-0.9,2.8-2,4.9-3.1,6.5c-0.6-0.5-1.4-1-2.4-1.6v6h-8.5v1.8h8.5v2.4h-8.5v2h8.9V62.3z M559.7,47.9h5.8V46h-5.8V47.9z M559.7,51.7
				h5.8v-1.9h-5.8V51.7z M560.3,39.9h6c-1.1-1.4-2.3-2.6-3.4-3.7C562.1,37.5,561.2,38.7,560.3,39.9z"/>
			<path class="st1" d="M602.4,49.4c-1.5-1-3.4-2.1-5.8-3.4l1.8-2.4c2.9,1.5,4.9,2.5,5.9,3.1L602.4,49.4z M600.1,65.3l-2.9-1.8
				c2-3.4,3.8-7.2,5.5-11.3l2.6,1.9C603.6,58.1,601.9,61.8,600.1,65.3z M603.4,40.3c-0.9-0.7-2.8-1.9-5.6-3.6l1.9-2.3
				c2.6,1.4,4.5,2.5,5.7,3.3L603.4,40.3z M606.7,65.8V42.6h5.8v-4.1h-6.9v-3h22.9v3h-7.4v4.1h6.3v23h-3.1v-1.5h-14.7v1.6H606.7z
				 M609.7,55.3h14.7v-2.9h-0.2h-3c-1.2,0-2-0.2-2.4-0.7c-0.4-0.4-0.6-1.3-0.6-2.6v-3.7h-2.7v1.1c0,3.2-1.5,5.7-4.5,7.3
				c-0.3-0.3-0.7-0.8-1.3-1.3V55.3z M609.7,51.7c2.2-1.3,3.3-3,3.3-5.2v-1h-3.3V51.7z M609.7,61.4h14.7V58h-14.7V61.4z M615.3,42.6
				h2.9v-4.1h-2.9V42.6z M621.4,49.8h2.3c0.3,0,0.5,0,0.6-0.1v-4.3h-3.7v3.6c0,0.3,0,0.5,0.1,0.6C620.9,49.8,621.1,49.8,621.4,49.8z
				"/>
		</g>
	</g>
	<g>
		<g>
			<path class="st1" d="M665.4,47.6v-5.4c-1.5,2.2-3.2,4-4.9,5.3c-0.5-0.9-1.2-1.6-2-2.3c2.3-1.4,4.3-3.4,6.1-6.1h-4.8v-2.7h5.7V33
				h3v3.4h4.7V39h-4.7v0.2c0.8,0.5,2.5,1.6,5,3.3c0.2,0.1,0.3,0.2,0.4,0.2L672,45c-0.7-0.6-1.9-1.6-3.6-3v5.6H665.4z M661.4,65
				c-0.9-0.8-1.7-1.5-2.6-2c1.3-0.7,2.5-1.5,3.7-2.4c1.2-1,2.2-2,2.9-3l3.1,1c-0.8,1.2-1.9,2.4-3.3,3.6
				C664,63.2,662.8,64.2,661.4,65z M669,65.5c-0.2-0.9-0.6-1.8-1.1-2.9c2.2,0.1,3.7,0.1,4.6,0c0.3,0,0.5-0.1,0.6-0.1
				c0.1-0.1,0.1-0.2,0.1-0.5v-5.5h-13.7v-2.8h30.6v2.8h-13.6v5.7c0,0.8-0.1,1.5-0.3,1.9c-0.3,0.4-0.7,0.8-1.3,1
				C674,65.3,672,65.5,669,65.5z M663.4,51.4v-2.7h23.1v2.7H663.4z M680.7,47.6v-5.8c-1.7,2.4-3.5,4.2-5.5,5.5c-0.7-1-1.4-1.7-2-2.3
				c1.2-0.6,2.4-1.4,3.5-2.5c1.1-1.1,2.1-2.2,3-3.5h-5v-2.7h6.1V33h3.1v3.4h6V39h-5.2c0.8,1.2,1.9,2.3,3,3.4
				c1.2,1.1,2.3,1.9,3.4,2.6c-0.8,0.6-1.4,1.3-2.1,2.3c-1.8-1.3-3.5-3.1-5.1-5.3v5.6H680.7z M687.1,64.9c-0.7-0.8-1.7-1.8-3.1-2.9
				c-1.3-1.1-2.6-2.1-3.8-3l2.6-1.6c3.1,2.2,5.5,4.1,7.1,5.8L687.1,64.9z"/>
			<path class="st1" d="M701.2,63.7v-3.3h4.7V40.5h3.4v19.9h7.4V33.1h3.5v11.3h11v3.3h-11v12.7h12.7v3.3H701.2z"/>
			<path class="st1" d="M749,48.8c-1.5-1-3.5-2.2-5.9-3.5l1.8-2.4c2.9,1.5,4.9,2.5,5.9,3.2L749,48.8z M746.7,64.9l-2.9-1.8
				c2-3.5,3.8-7.3,5.5-11.4l2.6,1.9C750.2,57.6,748.5,61.4,746.7,64.9z M750,39.6c-0.9-0.7-2.8-1.9-5.7-3.6l1.9-2.4
				c2.6,1.4,4.5,2.5,5.8,3.4L750,39.6z M753.3,65.4V42h5.8v-4.1h-6.9v-3h23.2v3h-7.5V42h6.4v23.3h-3.1v-1.5h-14.8v1.6H753.3z
				 M756.3,54.8h14.8v-2.9h-0.2h-3c-1.2,0-2-0.2-2.4-0.7c-0.4-0.4-0.6-1.3-0.6-2.6v-3.7h-2.7V46c0,3.3-1.5,5.7-4.6,7.3
				c-0.3-0.3-0.7-0.8-1.3-1.3V54.8z M756.3,51.2c2.2-1.3,3.3-3,3.3-5.2v-1.1h-3.3V51.2z M756.3,60.9h14.8v-3.4h-14.8V60.9z M762,42
				h2.9v-4.1H762V42z M768.2,49.3h2.3c0.3,0,0.5,0,0.6-0.1v-4.3h-3.7v3.7c0,0.3,0,0.5,0.1,0.6C767.6,49.2,767.9,49.3,768.2,49.3z"/>
			<path class="st1" d="M787.3,45.6c-0.4-0.8-1-1.6-1.7-2.3c2.9-1,4.9-2.8,5.8-5.3h-4.7v-2.5h5.3c0.1-0.5,0.2-1.4,0.3-2.4h3
				c0,0.6-0.1,1.4-0.3,2.4h7.3c0,0.4,0,0.8-0.1,1.1c-0.2,2-0.3,3.5-0.5,4.5c-0.2,1-0.5,1.6-0.8,2c-0.5,0.5-1.1,0.8-1.9,0.8
				c-0.9,0.1-2,0.1-3.3,0c0-0.9-0.3-1.7-0.7-2.5c1,0.1,1.9,0.1,2.5,0.1c0.4,0,0.7-0.1,0.9-0.3c0.3-0.3,0.6-1.4,0.7-3.3h-4.7
				c-0.5,1.8-1.3,3.3-2.4,4.5C791,43.8,789.4,44.8,787.3,45.6z M788.5,65.4l-2.7-1.6c1.3-1.2,2.7-3,4.1-5.2l2.6,1.4
				c-0.2,0.2-0.4,0.6-0.8,1.1C790.3,63.2,789.3,64.6,788.5,65.4z M809.3,65.5c-0.1-1-0.3-1.9-0.7-2.6c1.2,0.1,2.1,0.2,2.8,0.1
				c0.5,0,0.8-0.1,1-0.3c0.4-0.5,0.8-1.9,1.1-4.4h-20.7v0h-2.3V45h24v2.2h-9.7v1.7h8.3v1.9h-8.3v1.7h8.3v1.9h-8.3v1.7h12
				c0,0.4-0.1,0.8-0.1,1.2c-0.2,2.3-0.5,4-0.7,5.1c-0.3,1.1-0.6,1.9-1,2.3c-0.5,0.6-1.2,0.9-2,0.9C812.2,65.5,811,65.5,809.3,65.5z
				 M793.7,48.9h7.9v-1.7h-7.9V48.9z M793.7,52.5h7.9v-1.7h-7.9V52.5z M793.7,56.1h7.9v-1.7h-7.9V56.1z M795.5,65
				c-0.1-1.3-0.4-3-1-5.1l2.8-0.5c0.6,1.9,1,3.6,1.1,5L795.5,65z M802.1,64.5c-0.3-1.4-1-2.9-1.9-4.6l2.5-0.7c1,1.6,1.7,3.1,2.1,4.5
				L802.1,64.5z M804.1,43.5v-8.8h12.5v8.8H804.1z M808.1,63.1c-0.5-1-1.4-2.2-2.4-3.5l2.3-0.9c1.2,1.2,2,2.3,2.5,3.3L808.1,63.1z
				 M807.1,41h6.3v-3.8h-6.3V41z"/>
		</g>
		<g>
			<path class="st1" d="M854.7,32.9c9.4,0,17.1,7.6,17.1,17.1c0,9.5-7.6,17.1-17.1,17.1c-9.4,0-17.1-7.6-17.1-17.1
				C837.6,40.5,845.2,32.9,854.7,32.9z M846.4,39.1c6.4,6.4,12.7,12.8,19.1,19.2c3.9-4.8,4-12.8-1.2-18
				C859.1,35.1,851.2,35.3,846.4,39.1z M843.9,41.7c-4,4.9-4.1,13.2,1.6,18.4c5.5,5.1,13.3,4.3,17.5,0.7
				C856.6,54.4,850.3,48.1,843.9,41.7z"/>
		</g>
		<g>
			<path class="st1" d="M908.4,65.8V53.7c-1.7,2.1-3.5,4.1-5.7,5.9c-2.1,1.8-4.3,3.3-6.5,4.4c-0.7-1-1.5-1.9-2.4-2.8
				c2.4-1,4.7-2.5,7-4.4c2.3-1.9,4.2-3.8,5.8-5.9h-11.8v-3.2h13.5v-5.3h-11v-3.2h11v-5.5h3.4v5.5h11.3v3.2h-11.3v5.3h13.7V51h-12.1
				c1.6,2.1,3.5,4.1,5.8,6c2.3,1.9,4.7,3.3,7.1,4.3c-0.7,0.6-1.5,1.5-2.4,2.8c-2.2-1.1-4.3-2.6-6.5-4.4c-2.1-1.8-4-3.8-5.7-6v12.2
				H908.4z"/>
			<path class="st1" d="M941.6,49.1c-0.6-0.5-1.4-1.1-2.5-1.7c-1.1-0.7-2.1-1.2-3.1-1.6l1.8-2.4c2.6,1,4.5,2,5.7,3.1L941.6,49.1z
				 M939.6,65.4l-2.9-1.7c1.6-3.1,3.2-6.8,4.7-11.1l2.7,1.7C942.6,58.2,941.1,61.9,939.6,65.4z M945.3,65.8V46.9h9.3v-2.1h-5v-5.3
				h-5v-1.9l-1.9,2.4c-1.1-1.2-2.9-2.4-5.4-3.7l1.8-2.3c2.3,1,4.1,2.1,5.4,3.3v-0.7h5v-2.9h3.1v2.9h6.8v-2.9h3.2v2.9h5.2v2.9h-5.2
				v5.3h-5.3v2.1h9.6v15.9c0,0.7-0.1,1.2-0.3,1.6c-0.2,0.4-0.5,0.7-0.9,0.9c-0.6,0.3-2.1,0.4-4.4,0.4c-0.2-1-0.5-1.8-0.8-2.4
				c0.9,0,1.8,0,2.9,0c0.3,0,0.5-0.2,0.5-0.5V60c-0.5,0.4-0.9,0.8-1.1,1.1c-0.8-0.9-1.5-2.1-2-3.7c-0.5,1.7-1.4,2.9-2.5,3.8
				c-0.3-0.5-0.7-0.9-1.1-1.2v5.5h-2.8v-5.4c-0.4,0.3-0.8,0.7-1,1c-0.8-0.8-1.4-2.1-1.9-3.6c-0.5,1.7-1.3,3-2.4,4
				c-0.3-0.5-0.7-0.9-1.2-1.3v5.5H945.3z M948.1,60.1c1.4-1.2,2.2-3,2.4-5.6h0.7c0-0.4-0.1-0.8-0.1-1.2h-1.8v-2.1h3.4
				c0.1,3.8,0.8,6.5,2,8v-9.7h-6.5V60.1z M952.8,42.1h6.8v-2.5h-6.8V42.1z M957.5,59.7c1.4-1.2,2.1-2.9,2.3-5.2h0.6
				c0-0.2-0.1-0.6-0.1-1.1h-1.8v-2.1h3.4c0.1,3.9,0.9,6.6,2.3,8.1v-9.7h-6.7V59.7z"/>
			<path class="st1" d="M992.4,65.8v-16h-13.7v-3.4h13.7V33.7h3.5v12.8h14v3.4h-14v16H992.4z"/>
			<path class="st1" d="M1022.7,65.9c-1.1-1.1-2.1-1.9-2.7-2.4c4.4-3.9,7.2-10.7,8.4-20.3l3.8,0.5c-0.8,4.8-1.9,8.8-3.1,12.1
				C1027.4,60.2,1025.3,63.5,1022.7,65.9z M1049,65.8c-2.9-2.5-5.1-6.2-6.7-11c-1.3-3.9-2.3-8.9-2.9-15h-11.9v-3.4h15
				c0.6,6.5,1.5,11.8,2.8,15.8c1.6,5,3.9,8.7,6.9,11C1051.2,63.7,1050.1,64.6,1049,65.8z"/>
			<path class="st1" d="M1064.4,65.9c-0.6-0.6-1.5-1.1-2.7-1.6c2-2.6,3-6.6,3-11.8v-5.9h15.4c-0.1-1.2-0.2-2.1-0.2-2.7h-17.2v-2.7
				h5.4v-6h3v6h5.8v-7.6h3.1v2.7h10.2v2.5H1080v2.3h13.3V44h-5.1c1.3,0.7,2.3,1.4,2.9,2l-0.7,0.7h2.7v2.7h-9.8
				c0.4,2.7,0.9,5.1,1.7,7.3c1.3-1.8,2.3-3.8,3-6l2.9,0.7c-1.1,3.1-2.6,5.9-4.6,8.4c1.2,2.2,2.5,3.3,3.8,3.3c0.4,0,0.7-0.4,0.9-1.1
				c0.2-0.7,0.3-1.9,0.4-3.6c0.7,0.7,1.5,1.1,2.4,1.4c-0.2,2.4-0.6,4-1.2,4.9c-0.6,0.8-1.5,1.2-2.7,1.2c-2.2,0-4.1-1.3-5.7-3.9
				c-1.5,1.4-3.1,2.7-5,3.8c-0.7-0.9-1.5-1.6-2.2-2.2c2.2-1.1,4.1-2.5,5.8-4.2c-1.2-2.7-2-6-2.6-9.8h-12.7v3.2
				c0,2.5-0.2,4.8-0.6,6.9c1.2-1.1,2.2-2.8,2.8-4.9l2.3,0.5c-0.7,2.3-1.8,4.2-3.2,5.7c-0.4-0.3-1.1-0.8-2-1.3
				C1066.5,62.1,1065.6,64.3,1064.4,65.9z M1069.4,65.8c-0.5-0.9-1-1.5-1.4-1.9c2.1-0.6,4-1.5,5.6-2.7c-0.3,0-0.8,0-1.5,0
				c-0.1-0.4-0.4-1.1-0.9-2c0.6,0,1.2,0,1.8,0c0.2,0,0.3-0.1,0.3-0.3v-5.6h-4.3V51h10.8v2.3h-3.8V59v0.1c1.1-1.4,1.8-2.8,2.2-4.3
				l2.6,0.4c-0.8,2.5-2.1,4.7-4.1,6.5C1074.7,63.5,1072.3,64.9,1069.4,65.8z M1083,46.6h5.2c-1-0.7-2.1-1.4-3.3-2l0.7-0.7h-2.8
				C1082.9,44.6,1083,45.5,1083,46.6z"/>
			<path class="st1" d="M1110.7,48.1v-5.4c-1.5,2.2-3.1,4-4.9,5.2c-0.5-0.9-1.2-1.6-2-2.2c2.3-1.4,4.3-3.4,6-6.1h-4.7v-2.7h5.6v-3.3
				h3v3.3h4.7v2.7h-4.7v0.2c0.8,0.5,2.4,1.6,5,3.3c0.2,0.1,0.3,0.2,0.3,0.2l-1.7,2.2c-0.7-0.6-1.9-1.6-3.6-3v5.5H1110.7z
				 M1106.8,65.4c-0.9-0.8-1.7-1.5-2.6-2c1.3-0.7,2.5-1.5,3.7-2.4c1.2-1,2.1-2,2.9-3l3,1c-0.8,1.2-1.9,2.4-3.3,3.6
				C1109.4,63.6,1108.1,64.6,1106.8,65.4z M1114.3,65.9c-0.2-0.9-0.6-1.8-1.1-2.8c2.2,0.1,3.7,0.1,4.5,0c0.3,0,0.5-0.1,0.6-0.1
				c0.1-0.1,0.1-0.2,0.1-0.5V57h-13.6v-2.8h30.3V57h-13.5v5.6c0,0.8-0.1,1.5-0.3,1.9c-0.3,0.4-0.7,0.8-1.3,1
				C1119.2,65.7,1117.3,65.9,1114.3,65.9z M1108.8,51.9v-2.7h22.9v2.7H1108.8z M1125.8,48.1v-5.7c-1.7,2.3-3.5,4.1-5.5,5.4
				c-0.7-1-1.4-1.7-2-2.2c1.2-0.6,2.3-1.4,3.5-2.5c1.1-1,2.1-2.2,2.9-3.4h-5v-2.7h6v-3.3h3v3.3h5.9v2.7h-5.2c0.8,1.2,1.8,2.3,3,3.4
				c1.2,1.1,2.3,1.9,3.4,2.6c-0.7,0.6-1.4,1.3-2.1,2.2c-1.7-1.3-3.4-3-5.1-5.2v5.5H1125.8z M1132.2,65.3c-0.7-0.8-1.7-1.7-3.1-2.9
				c-1.3-1.1-2.6-2.1-3.8-3l2.6-1.6c3.1,2.1,5.4,4,7,5.7L1132.2,65.3z"/>
			<path class="st1" d="M1146.2,64.1v-3.3h4.7V41.2h3.4v19.7h7.3v-27h3.5V45h10.9v3.3H1165v12.6h12.6v3.3H1146.2z"/>
			<path class="st1" d="M1189.2,44c-0.6-0.8-1.3-1.4-2.1-2c1.5-1.1,2.9-2.5,4.1-4.1c1.1-1.4,1.9-2.8,2.6-4.2h3.1
				c2.6,2.2,4.6,4.2,5.9,6l-2,2.2c-0.4-0.6-0.9-1.3-1.4-1.9v2.1h-7v-1.3C1191.4,42.1,1190.3,43.1,1189.2,44z M1190,65.9v-22h11.3
				v3.4c2.1-3,3.6-7.5,4.4-13.5l3.1,0.5c-0.3,2-0.7,3.9-1.2,5.7h9.4l0.5-0.1l2.2,0.6c-0.7,4.1-1.6,7.3-2.5,9.4l-2.6-0.9
				c0.5-1.4,1-3.4,1.5-5.9h-4.1v4.1c0,2.4,0.5,4.9,1.5,7.5c1.4,3.8,3.6,6.6,6.5,8.5c-0.7,0.9-1.4,1.8-2.1,2.9
				c-2.2-1.5-4.1-3.7-5.5-6.5c-1-2.1-1.7-4.2-2-6.2c-0.3,2-1,4.1-2.2,6.2c-1.6,2.8-3.6,5-6.1,6.6c-0.6-1.1-1.3-2-1.9-2.7
				c0.3-0.2,0.6-0.4,0.9-0.6h-8.5v3.3H1190z M1201.6,62.3c2.7-2,4.7-4.8,6-8.3c0.9-2.4,1.3-4.8,1.3-7v-4.1h-2.2
				c-0.9,2.8-2,4.9-3.1,6.5c-0.6-0.5-1.4-1-2.4-1.6v6h-8.5v1.8h8.5v2.4h-8.5v2h8.9V62.3z M1192.7,47.9h5.8V46h-5.8V47.9z
				 M1192.7,51.7h5.8v-1.9h-5.8V51.7z M1193.3,39.9h6c-1.1-1.4-2.3-2.6-3.4-3.7C1195.1,37.5,1194.3,38.7,1193.3,39.9z"/>
			<path class="st1" d="M1235.4,49.4c-1.5-1-3.4-2.1-5.8-3.4l1.8-2.4c2.9,1.5,4.9,2.5,5.9,3.1L1235.4,49.4z M1233.2,65.3l-2.9-1.8
				c2-3.4,3.8-7.2,5.5-11.3l2.6,1.9C1236.7,58.1,1235,61.8,1233.2,65.3z M1236.4,40.3c-0.9-0.7-2.8-1.9-5.6-3.6l1.9-2.3
				c2.6,1.4,4.5,2.5,5.7,3.3L1236.4,40.3z M1239.7,65.8V42.6h5.8v-4.1h-6.9v-3h22.9v3h-7.4v4.1h6.3v23h-3.1v-1.5h-14.7v1.6H1239.7z
				 M1242.7,55.3h14.7v-2.9h-0.2h-3c-1.2,0-2-0.2-2.4-0.7c-0.4-0.4-0.6-1.3-0.6-2.6v-3.7h-2.7v1.1c0,3.2-1.5,5.7-4.5,7.3
				c-0.3-0.3-0.7-0.8-1.3-1.3V55.3z M1242.7,51.7c2.2-1.3,3.3-3,3.3-5.2v-1h-3.3V51.7z M1242.7,61.4h14.7V58h-14.7V61.4z
				 M1248.4,42.6h2.9v-4.1h-2.9V42.6z M1254.5,49.8h2.3c0.3,0,0.5,0,0.6-0.1v-4.3h-3.7v3.6c0,0.3,0,0.5,0.1,0.6
				C1253.9,49.8,1254.1,49.8,1254.5,49.8z"/>
		</g>
	</g>
	<g>
		<g>
			<path class="st1" d="M1298.4,47.6v-5.4c-1.5,2.2-3.2,4-4.9,5.3c-0.5-0.9-1.2-1.6-2-2.3c2.3-1.4,4.3-3.4,6.1-6.1h-4.8v-2.7h5.7V33
				h3v3.4h4.7V39h-4.7v0.2c0.8,0.5,2.5,1.6,5,3.3c0.2,0.1,0.3,0.2,0.4,0.2l-1.7,2.2c-0.7-0.6-1.9-1.6-3.6-3v5.6H1298.4z M1294.5,65
				c-0.9-0.8-1.7-1.5-2.6-2c1.3-0.7,2.5-1.5,3.7-2.4c1.2-1,2.2-2,2.9-3l3.1,1c-0.8,1.2-1.9,2.4-3.3,3.6
				C1297.1,63.2,1295.8,64.2,1294.5,65z M1302.1,65.5c-0.2-0.9-0.6-1.8-1.1-2.9c2.2,0.1,3.7,0.1,4.6,0c0.3,0,0.5-0.1,0.6-0.1
				c0.1-0.1,0.1-0.2,0.1-0.5v-5.5h-13.7v-2.8h30.6v2.8h-13.6v5.7c0,0.8-0.1,1.5-0.3,1.9c-0.3,0.4-0.7,0.8-1.3,1
				C1307,65.3,1305.1,65.5,1302.1,65.5z M1296.5,51.4v-2.7h23.1v2.7H1296.5z M1313.7,47.6v-5.8c-1.7,2.4-3.5,4.2-5.5,5.5
				c-0.7-1-1.4-1.7-2-2.3c1.2-0.6,2.4-1.4,3.5-2.5c1.1-1.1,2.1-2.2,3-3.5h-5v-2.7h6.1V33h3.1v3.4h6V39h-5.2c0.8,1.2,1.9,2.3,3,3.4
				c1.2,1.1,2.3,1.9,3.4,2.6c-0.8,0.6-1.4,1.3-2.1,2.3c-1.8-1.3-3.5-3.1-5.1-5.3v5.6H1313.7z M1320.1,64.9c-0.7-0.8-1.7-1.8-3.1-2.9
				c-1.3-1.1-2.6-2.1-3.8-3l2.6-1.6c3.1,2.2,5.5,4.1,7.1,5.8L1320.1,64.9z"/>
			<path class="st1" d="M1334.3,63.7v-3.3h4.7V40.5h3.4v19.9h7.4V33.1h3.5v11.3h11v3.3h-11v12.7h12.7v3.3H1334.3z"/>
			<path class="st1" d="M1382,48.8c-1.5-1-3.5-2.2-5.9-3.5l1.8-2.4c2.9,1.5,4.9,2.5,5.9,3.2L1382,48.8z M1379.7,64.9l-2.9-1.8
				c2-3.5,3.8-7.3,5.5-11.4l2.6,1.9C1383.3,57.6,1381.5,61.4,1379.7,64.9z M1383,39.6c-0.9-0.7-2.8-1.9-5.7-3.6l1.9-2.4
				c2.6,1.4,4.5,2.5,5.8,3.4L1383,39.6z M1386.4,65.4V42h5.8v-4.1h-6.9v-3h23.2v3h-7.5V42h6.4v23.3h-3.1v-1.5h-14.8v1.6H1386.4z
				 M1389.4,54.8h14.8v-2.9h-0.2h-3c-1.2,0-2-0.2-2.4-0.7c-0.4-0.4-0.6-1.3-0.6-2.6v-3.7h-2.7V46c0,3.3-1.5,5.7-4.6,7.3
				c-0.3-0.3-0.7-0.8-1.3-1.3V54.8z M1389.4,51.2c2.2-1.3,3.3-3,3.3-5.2v-1.1h-3.3V51.2z M1389.4,60.9h14.8v-3.4h-14.8V60.9z
				 M1395.1,42h2.9v-4.1h-2.9V42z M1401.3,49.3h2.3c0.3,0,0.5,0,0.6-0.1v-4.3h-3.7v3.7c0,0.3,0,0.5,0.1,0.6
				C1400.7,49.2,1400.9,49.3,1401.3,49.3z"/>
			<path class="st1" d="M1420.4,45.6c-0.4-0.8-1-1.6-1.7-2.3c2.9-1,4.9-2.8,5.8-5.3h-4.7v-2.5h5.3c0.1-0.5,0.2-1.4,0.3-2.4h3
				c0,0.6-0.1,1.4-0.3,2.4h7.3c0,0.4,0,0.8-0.1,1.1c-0.2,2-0.3,3.5-0.5,4.5c-0.2,1-0.5,1.6-0.8,2c-0.5,0.5-1.1,0.8-1.9,0.8
				c-0.9,0.1-2,0.1-3.3,0c0-0.9-0.3-1.7-0.7-2.5c1,0.1,1.9,0.1,2.5,0.1c0.4,0,0.7-0.1,0.9-0.3c0.3-0.3,0.6-1.4,0.7-3.3h-4.7
				c-0.5,1.8-1.3,3.3-2.4,4.5C1424,43.8,1422.4,44.8,1420.4,45.6z M1421.6,65.4l-2.7-1.6c1.3-1.2,2.7-3,4.1-5.2l2.6,1.4
				c-0.2,0.2-0.4,0.6-0.8,1.1C1423.4,63.2,1422.3,64.6,1421.6,65.4z M1442.3,65.5c-0.1-1-0.3-1.9-0.7-2.6c1.2,0.1,2.1,0.2,2.8,0.1
				c0.5,0,0.8-0.1,1-0.3c0.4-0.5,0.8-1.9,1.1-4.4h-20.7v0h-2.3V45h24v2.2h-9.7v1.7h8.3v1.9h-8.3v1.7h8.3v1.9h-8.3v1.7h12
				c0,0.4-0.1,0.8-0.1,1.2c-0.2,2.3-0.5,4-0.7,5.1c-0.3,1.1-0.6,1.9-1,2.3c-0.5,0.6-1.2,0.9-2,0.9
				C1445.3,65.5,1444,65.5,1442.3,65.5z M1426.8,48.9h7.9v-1.7h-7.9V48.9z M1426.8,52.5h7.9v-1.7h-7.9V52.5z M1426.8,56.1h7.9v-1.7
				h-7.9V56.1z M1428.5,65c-0.1-1.3-0.4-3-1-5.1l2.8-0.5c0.6,1.9,1,3.6,1.1,5L1428.5,65z M1435.1,64.5c-0.3-1.4-1-2.9-1.9-4.6
				l2.5-0.7c1,1.6,1.7,3.1,2.1,4.5L1435.1,64.5z M1437.2,43.5v-8.8h12.5v8.8H1437.2z M1441.2,63.1c-0.5-1-1.4-2.2-2.4-3.5l2.3-0.9
				c1.2,1.2,2,2.3,2.5,3.3L1441.2,63.1z M1440.2,41h6.3v-3.8h-6.3V41z"/>
		</g>
		<g>
			<path class="st1" d="M1487.7,32.9c9.4,0,17.1,7.6,17.1,17.1c0,9.5-7.6,17.1-17.1,17.1c-9.4,0-17.1-7.6-17.1-17.1
				C1470.7,40.5,1478.3,32.9,1487.7,32.9z M1479.5,39.1c6.4,6.4,12.7,12.8,19.1,19.2c3.9-4.8,4-12.8-1.2-18
				C1492.2,35.1,1484.3,35.3,1479.5,39.1z M1476.9,41.7c-4,4.9-4.1,13.2,1.6,18.4c5.5,5.1,13.3,4.3,17.5,0.7
				C1489.7,54.4,1483.3,48.1,1476.9,41.7z"/>
		</g>
		<g>
			<path class="st1" d="M1541.5,65.8V53.7c-1.7,2.1-3.5,4.1-5.7,5.9c-2.1,1.8-4.3,3.3-6.5,4.4c-0.7-1-1.5-1.9-2.4-2.8
				c2.4-1,4.7-2.5,7-4.4c2.3-1.9,4.2-3.8,5.8-5.9h-11.8v-3.2h13.5v-5.3h-11v-3.2h11v-5.5h3.4v5.5h11.3v3.2h-11.3v5.3h13.7V51h-12.1
				c1.6,2.1,3.5,4.1,5.8,6c2.3,1.9,4.7,3.3,7.1,4.3c-0.7,0.6-1.5,1.5-2.4,2.8c-2.2-1.1-4.3-2.6-6.5-4.4c-2.1-1.8-4-3.8-5.7-6v12.2
				H1541.5z"/>
			<path class="st1" d="M1574.6,49.1c-0.6-0.5-1.4-1.1-2.5-1.7c-1.1-0.7-2.1-1.2-3.1-1.6l1.8-2.4c2.6,1,4.5,2,5.7,3.1L1574.6,49.1z
				 M1572.6,65.4l-2.9-1.7c1.6-3.1,3.2-6.8,4.7-11.1l2.7,1.7C1575.7,58.2,1574.2,61.9,1572.6,65.4z M1578.4,65.8V46.9h9.3v-2.1h-5
				v-5.3h-5v-1.9l-1.9,2.4c-1.1-1.2-2.9-2.4-5.4-3.7l1.8-2.3c2.3,1,4.1,2.1,5.4,3.3v-0.7h5v-2.9h3.1v2.9h6.8v-2.9h3.2v2.9h5.2v2.9
				h-5.2v5.3h-5.3v2.1h9.6v15.9c0,0.7-0.1,1.2-0.3,1.6c-0.2,0.4-0.5,0.7-0.9,0.9c-0.6,0.3-2.1,0.4-4.4,0.4c-0.2-1-0.5-1.8-0.8-2.4
				c0.9,0,1.8,0,2.9,0c0.3,0,0.5-0.2,0.5-0.5V60c-0.5,0.4-0.9,0.8-1.1,1.1c-0.8-0.9-1.5-2.1-2-3.7c-0.5,1.7-1.4,2.9-2.5,3.8
				c-0.3-0.5-0.7-0.9-1.1-1.2v5.5h-2.8v-5.4c-0.4,0.3-0.8,0.7-1,1c-0.8-0.8-1.4-2.1-1.9-3.6c-0.5,1.7-1.3,3-2.4,4
				c-0.3-0.5-0.7-0.9-1.2-1.3v5.5H1578.4z M1581.2,60.1c1.4-1.2,2.2-3,2.4-5.6h0.7c0-0.4-0.1-0.8-0.1-1.2h-1.8v-2.1h3.4
				c0.1,3.8,0.8,6.5,2,8v-9.7h-6.5V60.1z M1585.8,42.1h6.8v-2.5h-6.8V42.1z M1590.5,59.7c1.4-1.2,2.1-2.9,2.3-5.2h0.6
				c0-0.2-0.1-0.6-0.1-1.1h-1.8v-2.1h3.4c0.1,3.9,0.9,6.6,2.3,8.1v-9.7h-6.7V59.7z"/>
			<path class="st1" d="M1625.4,65.8v-16h-13.7v-3.4h13.7V33.7h3.5v12.8h14v3.4h-14v16H1625.4z"/>
			<path class="st1" d="M1655.7,65.9c-1.1-1.1-2.1-1.9-2.7-2.4c4.4-3.9,7.2-10.7,8.4-20.3l3.8,0.5c-0.8,4.8-1.9,8.8-3.1,12.1
				C1660.4,60.2,1658.3,63.5,1655.7,65.9z M1682,65.8c-2.9-2.5-5.1-6.2-6.7-11c-1.3-3.9-2.3-8.9-2.9-15h-11.9v-3.4h15
				c0.6,6.5,1.5,11.8,2.8,15.8c1.6,5,3.9,8.7,6.9,11C1684.2,63.7,1683.1,64.6,1682,65.8z"/>
			<path class="st1" d="M1697.4,65.9c-0.6-0.6-1.5-1.1-2.7-1.6c2-2.6,3-6.6,3-11.8v-5.9h15.4c-0.1-1.2-0.2-2.1-0.2-2.7h-17.2v-2.7
				h5.4v-6h3v6h5.8v-7.6h3.1v2.7h10.2v2.5h-10.2v2.3h13.3V44h-5.1c1.3,0.7,2.2,1.4,2.9,2l-0.7,0.7h2.7v2.7h-9.8
				c0.4,2.7,0.9,5.1,1.7,7.3c1.3-1.8,2.3-3.8,3-6l2.9,0.7c-1.1,3.1-2.6,5.9-4.6,8.4c1.2,2.2,2.5,3.3,3.8,3.3c0.4,0,0.7-0.4,0.9-1.1
				c0.2-0.7,0.3-1.9,0.4-3.6c0.7,0.7,1.5,1.1,2.4,1.4c-0.2,2.4-0.6,4-1.2,4.9c-0.6,0.8-1.5,1.2-2.7,1.2c-2.2,0-4.1-1.3-5.7-3.9
				c-1.5,1.4-3.1,2.7-5,3.8c-0.7-0.9-1.5-1.6-2.2-2.2c2.2-1.1,4.1-2.5,5.8-4.2c-1.2-2.7-2-6-2.6-9.8h-12.7v3.2
				c0,2.5-0.2,4.8-0.6,6.9c1.2-1.1,2.2-2.8,2.8-4.9l2.3,0.5c-0.7,2.3-1.8,4.2-3.2,5.7c-0.4-0.3-1.1-0.8-2-1.3
				C1699.6,62.1,1698.7,64.3,1697.4,65.9z M1702.5,65.8c-0.5-0.9-1-1.5-1.4-1.9c2.1-0.6,4-1.5,5.6-2.7c-0.3,0-0.8,0-1.5,0
				c-0.1-0.4-0.4-1.1-0.9-2c0.6,0,1.2,0,1.8,0c0.2,0,0.3-0.1,0.3-0.3v-5.6h-4.3V51h10.8v2.3h-3.8V59v0.1c1.1-1.4,1.8-2.8,2.2-4.3
				l2.6,0.4c-0.8,2.5-2.1,4.7-4.1,6.5C1707.8,63.5,1705.3,64.9,1702.5,65.8z M1716.1,46.6h5.2c-1-0.7-2.1-1.4-3.3-2l0.7-0.7h-2.8
				C1715.9,44.6,1716,45.5,1716.1,46.6z"/>
			<path class="st1" d="M1743.8,48.1v-5.4c-1.5,2.2-3.1,4-4.9,5.2c-0.5-0.9-1.2-1.6-2-2.2c2.3-1.4,4.3-3.4,6-6.1h-4.7v-2.7h5.6v-3.3
				h3v3.3h4.7v2.7h-4.7v0.2c0.8,0.5,2.4,1.6,5,3.3c0.2,0.1,0.3,0.2,0.3,0.2l-1.7,2.2c-0.7-0.6-1.9-1.6-3.6-3v5.5H1743.8z
				 M1739.9,65.4c-0.9-0.8-1.7-1.5-2.6-2c1.3-0.7,2.5-1.5,3.7-2.4c1.2-1,2.1-2,2.9-3l3,1c-0.8,1.2-1.9,2.4-3.3,3.6
				C1742.4,63.6,1741.2,64.6,1739.9,65.4z M1747.4,65.9c-0.2-0.9-0.6-1.8-1.1-2.8c2.2,0.1,3.7,0.1,4.5,0c0.3,0,0.5-0.1,0.6-0.1
				c0.1-0.1,0.1-0.2,0.1-0.5V57h-13.6v-2.8h30.3V57h-13.5v5.6c0,0.8-0.1,1.5-0.3,1.9c-0.3,0.4-0.7,0.8-1.3,1
				C1752.3,65.7,1750.3,65.9,1747.4,65.9z M1741.8,51.9v-2.7h22.9v2.7H1741.8z M1758.9,48.1v-5.7c-1.7,2.3-3.5,4.1-5.5,5.4
				c-0.7-1-1.4-1.7-2-2.2c1.2-0.6,2.3-1.4,3.5-2.5c1.1-1,2.1-2.2,2.9-3.4h-5v-2.7h6v-3.3h3v3.3h5.9v2.7h-5.2c0.8,1.2,1.8,2.3,3,3.4
				c1.2,1.1,2.3,1.9,3.4,2.6c-0.7,0.6-1.4,1.3-2.1,2.2c-1.7-1.3-3.4-3-5.1-5.2v5.5H1758.9z M1765.3,65.3c-0.7-0.8-1.7-1.7-3.1-2.9
				c-1.3-1.1-2.6-2.1-3.8-3l2.6-1.6c3.1,2.1,5.4,4,7,5.7L1765.3,65.3z"/>
			<path class="st1" d="M1779.2,64.1v-3.3h4.7V41.2h3.4v19.7h7.3v-27h3.5V45h10.9v3.3h-10.9v12.6h12.6v3.3H1779.2z"/>
			<path class="st1" d="M1822.3,44c-0.6-0.8-1.3-1.4-2.1-2c1.5-1.1,2.9-2.5,4.1-4.1c1.1-1.4,1.9-2.8,2.6-4.2h3.1
				c2.6,2.2,4.6,4.2,5.9,6l-2,2.2c-0.4-0.6-0.9-1.3-1.4-1.9v2.1h-7v-1.3C1824.4,42.1,1823.4,43.1,1822.3,44z M1823,65.9v-22h11.3
				v3.4c2.1-3,3.6-7.5,4.4-13.5l3.1,0.5c-0.3,2-0.7,3.9-1.2,5.7h9.4l0.5-0.1l2.2,0.6c-0.7,4.1-1.6,7.3-2.5,9.4l-2.6-0.9
				c0.5-1.4,1-3.4,1.5-5.9h-4.1v4.1c0,2.4,0.5,4.9,1.5,7.5c1.4,3.8,3.6,6.6,6.5,8.5c-0.7,0.9-1.4,1.8-2.1,2.9
				c-2.2-1.5-4.1-3.7-5.5-6.5c-1-2.1-1.7-4.2-2-6.2c-0.3,2-1,4.1-2.2,6.2c-1.6,2.8-3.6,5-6.1,6.6c-0.6-1.1-1.3-2-1.9-2.7
				c0.3-0.2,0.6-0.4,0.9-0.6h-8.5v3.3H1823z M1834.7,62.3c2.7-2,4.7-4.8,6-8.3c0.9-2.4,1.3-4.8,1.3-7v-4.1h-2.2
				c-0.9,2.8-2,4.9-3.1,6.5c-0.6-0.5-1.4-1-2.4-1.6v6h-8.5v1.8h8.5v2.4h-8.5v2h8.9V62.3z M1825.8,47.9h5.8V46h-5.8V47.9z
				 M1825.8,51.7h5.8v-1.9h-5.8V51.7z M1826.4,39.9h6c-1.1-1.4-2.3-2.6-3.4-3.7C1828.2,37.5,1827.3,38.7,1826.4,39.9z"/>
			<path class="st1" d="M1868.5,49.4c-1.5-1-3.4-2.1-5.8-3.4l1.8-2.4c2.9,1.5,4.9,2.5,5.9,3.1L1868.5,49.4z M1866.2,65.3l-2.9-1.8
				c2-3.4,3.8-7.2,5.5-11.3l2.6,1.9C1869.7,58.1,1868,61.8,1866.2,65.3z M1869.5,40.3c-0.9-0.7-2.8-1.9-5.6-3.6l1.9-2.3
				c2.6,1.4,4.5,2.5,5.7,3.3L1869.5,40.3z M1872.8,65.8V42.6h5.8v-4.1h-6.9v-3h22.9v3h-7.4v4.1h6.3v23h-3.1v-1.5h-14.7v1.6H1872.8z
				 M1875.8,55.3h14.7v-2.9h-0.2h-3c-1.2,0-2-0.2-2.4-0.7c-0.4-0.4-0.6-1.3-0.6-2.6v-3.7h-2.7v1.1c0,3.2-1.5,5.7-4.5,7.3
				c-0.3-0.3-0.7-0.8-1.3-1.3V55.3z M1875.8,51.7c2.2-1.3,3.3-3,3.3-5.2v-1h-3.3V51.7z M1875.8,61.4h14.7V58h-14.7V61.4z
				 M1881.4,42.6h2.9v-4.1h-2.9V42.6z M1887.5,49.8h2.3c0.3,0,0.5,0,0.6-0.1v-4.3h-3.7v3.6c0,0.3,0,0.5,0.1,0.6
				C1887,49.8,1887.2,49.8,1887.5,49.8z"/>
		</g>
	</g>
</g>
</svg>
