<?xml version="1.0" encoding="UTF-8"?>
<svg id="_圖層_1" data-name=" 圖層 1" xmlns="http://www.w3.org/2000/svg" viewBox="0 0 49.41 40.47">
  <defs>
    <style>
      .cls-1 {
        fill: #ffd7a1;
      }

      .cls-2 {
        fill: #527b9f;
      }
    </style>
  </defs>
  <path class="cls-2" d="M39.18,19.34c-1.26-2.36-4.19-3.25-6.54-1.99-1.48.79-2.38,2.25-2.54,3.8-.39,3.2-2.28,6.17-5.35,7.81-5,2.67-11.22.78-13.88-4.22-2.67-5-.78-11.21,4.22-13.88,3.06-1.63,6.58-1.55,9.46-.1.05.03.11.05.16.08.02.01.04.02.06.03h0c1.34.64,2.95.66,4.35-.09,2.35-1.25,3.24-4.18,1.98-6.53-.49-.92-1.24-1.62-2.11-2.05h0c-5.61-2.87-12.47-3.04-18.45.15C.84,7.52-2.83,19.58,2.35,29.29c5.18,9.7,17.24,13.37,26.94,8.19,5.84-3.11,9.48-8.72,10.33-14.81.25-1.09.12-2.27-.45-3.33h0Z"/>
  <path class="cls-1" d="M38.59,1.67c-2.27,1.21-3.63,3.46-3.83,5.84-.26,2.47-1.7,4.76-4.05,6.01-2.17,1.16-4.64,1.17-6.73.26-2.16-1.42-5.01-1.65-7.45-.35-3.55,1.9-4.9,6.32-3,9.87s6.32,4.9,9.87,3c2.29-1.22,3.66-3.5,3.83-5.91.31-2.4,1.73-4.62,4.03-5.85,2.35-1.25,5.06-1.17,7.25-.02l.02-.03c2.08,1.13,4.67,1.23,6.92.03,3.55-1.9,4.9-6.32,3-9.87-1.9-3.56-6.32-4.9-9.87-3v.02Z"/>
</svg>