<?xml version="1.0" encoding="utf-8"?>
<!-- Generator: Adobe Illustrator 27.2.0, SVG Export Plug-In . SVG Version: 6.00 Build 0)  -->
<svg version="1.1" id="_圖層_1" xmlns="http://www.w3.org/2000/svg" xmlns:xlink="http://www.w3.org/1999/xlink" x="0px" y="0px"
	 viewBox="0 0 35 35" style="enable-background:new 0 0 35 35;" xml:space="preserve">
<style type="text/css">
	.st0{fill:#FFFFFF;}
</style>
<path class="st0" d="M19.4,31.8h-4.6c-0.8,0-1.4-0.6-1.4-1.4V20.1h-2.7c-0.8,0-1.4-0.6-1.4-1.4v-4.4c0-0.8,0.6-1.4,1.4-1.4h2.7v-2.2
	c0-2.2,0.7-4.1,2-5.4s3.2-2.1,5.3-2.1h3.5c0.8,0,1.4,0.6,1.4,1.4v4.1c0,0.8-0.6,1.4-1.4,1.4h-2.4c-0.7,0-0.9,0.1-0.9,0.2
	c-0.1,0.1-0.1,0.3-0.1,0.9V13h3.3c0.2,0,0.5,0.1,0.7,0.2c0.4,0.2,0.7,0.7,0.7,1.2v4.4c0,0.8-0.6,1.4-1.4,1.4h-3.3v10.4
	C20.8,31.2,20.2,31.8,19.4,31.8z M15.1,30.2h4V19.4c0-0.5,0.4-0.9,0.9-0.9h3.7v-3.9H20c-0.5,0-0.9-0.4-0.9-0.9v-2.5
	c0-0.7,0.1-1.4,0.6-2c0.6-0.7,1.5-0.8,2.2-0.8H24V4.9h-3.2c-3.5,0-5.6,2.2-5.6,5.8v3c0,0.5-0.4,0.9-0.9,0.9H11v3.9h3.1
	c0.5,0,0.9,0.4,0.9,0.9v10.8H15.1z M24.2,4.9L24.2,4.9L24.2,4.9z"/>
</svg>
