<?xml version="1.0" encoding="utf-8"?>
<!-- Generator: Adobe Illustrator 27.2.0, SVG Export Plug-In . SVG Version: 6.00 Build 0)  -->
<svg version="1.1" id="_圖層_1" xmlns="http://www.w3.org/2000/svg" xmlns:xlink="http://www.w3.org/1999/xlink" x="0px" y="0px"
	 viewBox="0 0 35 35" style="enable-background:new 0 0 35 35;" xml:space="preserve">
<style type="text/css">
	.st0{fill:#FFFFFF;}
</style>
<path class="st0" d="M17.5,10.9c3.6,0,6.6,3,6.6,6.6s-3,6.6-6.6,6.6s-6.6-3-6.6-6.6S13.9,10.9,17.5,10.9 M17.5,9.2
	c-4.7,0-8.3,3.7-8.3,8.3s3.7,8.3,8.3,8.3s8.3-3.7,8.3-8.3S22.2,9.2,17.5,9.2L17.5,9.2z"/>
<path class="st0" d="M17.5,4.8c4.4,0,4.9,0,6.7,0.1C25.6,5,26.4,5.2,27,5.4c0.5,0.2,1.1,0.5,1.6,1.1c0.4,0.4,0.8,1,1,1.6
	c0.2,0.5,0.4,1.3,0.5,2.8c0.1,1.7,0.1,2.2,0.1,6.7s0,4.9-0.1,6.7c-0.1,1.4-0.3,2.2-0.5,2.8c-0.4,1.2-1.4,2.2-2.6,2.6
	c-0.5,0.2-1.3,0.4-2.8,0.5c-1.7,0.1-2.2,0.1-6.7,0.1s-4.9,0-6.7-0.1c-1.4-0.1-2.2-0.3-2.8-0.5s-1.1-0.5-1.6-1c-0.4-0.4-0.8-1-1-1.6
	c-0.2-0.5-0.4-1.3-0.5-2.8c-0.1-1.7-0.1-2.2-0.1-6.7s0-4.9,0.1-6.7c0.2-1.6,0.4-2.4,0.6-3S6,6.8,6.6,6.3c0.4-0.4,1-0.8,1.6-1
	C8.8,5.1,9.5,4.9,11,4.8C12.6,4.8,13.1,4.8,17.5,4.8 M25.8,10.6c0.9,0,1.8-0.8,1.8-1.8S26.8,7,25.8,7S24,7.8,24,8.8
	S24.9,10.6,25.8,10.6 M17.5,3.1c-4.7,0-5.3,0-7.1,0.1C8.7,3.3,7.8,3.6,7.1,3.7C6.3,4,5.7,4.5,5.1,5.1S4,6.3,3.8,7.1
	c-0.3,0.6-0.6,1.5-0.7,3.3S3,12.8,3,17.5s0,5.3,0.1,7.1c0.1,1.7,0.4,2.7,0.6,3.3c0.3,0.8,0.8,1.4,1.3,2s1.3,1.1,2,1.3
	c0.6,0.2,1.5,0.5,3.3,0.6s2.4,0.1,7.1,0.1s5.3,0,7.1-0.1c1.7-0.1,2.7-0.4,3.3-0.6c1.5-0.6,2.8-1.8,3.4-3.4c0.2-0.6,0.6-1.5,0.6-3.3
	c0.1-1.8,0.1-2.4,0.1-7.1s0-5.3-0.1-7.1c-0.1-1.7-0.4-2.7-0.6-3.3c-0.3-0.8-0.8-1.4-1.3-2s-1.3-1.1-2-1.3c-0.6-0.2-1.5-0.5-3.3-0.6
	C22.8,3.1,22.2,3.1,17.5,3.1L17.5,3.1z"/>
</svg>
