<?xml version="1.0" encoding="utf-8"?>
<!-- Generator: Adobe Illustrator 27.2.0, SVG Export Plug-In . SVG Version: 6.00 Build 0)  -->
<svg version="1.1" id="_圖層_1" xmlns="http://www.w3.org/2000/svg" xmlns:xlink="http://www.w3.org/1999/xlink" x="0px" y="0px"
	 viewBox="0 0 35 35" style="enable-background:new 0 0 35 35;" xml:space="preserve">
<style type="text/css">
	.st0{fill:#06C755;}
	.st1{fill:#FFFFFF;}
</style>
<g>
	<path class="st0" d="M27.4,31.9H7.6c-2.5,0-4.5-2-4.5-4.5V7.6c0-2.5,2-4.5,4.5-4.5h19.7c2.5,0,4.5,2,4.5,4.5v19.7
		C31.9,29.8,29.8,31.9,27.4,31.9z"/>
	<g>
		<g>
			<g>
				<path class="st1" d="M28.5,15.9c0-4.9-4.9-8.9-11-8.9s-11,4-11,8.9c0,4.4,3.9,8.1,9.2,8.8c0.3,0.1,0.8,0.2,1,0.6
					c0.1,0.2,0.1,0.7,0,1c0,0-0.2,0.7-0.2,0.9c-0.1,0.2-0.2,1.1,1,0.6c1.1-0.5,6.3-3.7,8.6-6.4l0,0C27.8,19.7,28.5,17.9,28.5,15.9z"
					/>
			</g>
			<g>
				<path class="st0" d="M24.9,18.8h-3.1l0,0c-0.1,0-0.2-0.1-0.2-0.2l0,0l0,0v-4.7l0,0l0,0c0-0.1,0.1-0.2,0.2-0.2l0,0h3.1
					c0.1,0,0.2,0.1,0.2,0.2v0.8c0,0.1-0.1,0.2-0.2,0.2h-2.1v0.8h2.1c0.1,0,0.2,0.1,0.2,0.2v0.8c0,0.1-0.1,0.2-0.2,0.2h-2.1v0.8h2.1
					c0.1,0,0.2,0.1,0.2,0.2v0.8C25.1,18.7,25,18.8,24.9,18.8z"/>
				<path class="st0" d="M13.4,18.8c0.1,0,0.2-0.1,0.2-0.2v-0.8c0-0.1-0.1-0.2-0.2-0.2h-2v-3.7c0-0.1-0.1-0.2-0.2-0.2h-0.8
					c-0.1,0-0.2,0.1-0.2,0.2v4.7l0,0l0,0c0,0.1,0.1,0.2,0.2,0.2l0,0C10.3,18.8,13.4,18.8,13.4,18.8z"/>
				<path class="st0" d="M15.3,13.5h-0.8c-0.1,0-0.2,0.1-0.2,0.2v4.8c0,0.1,0.1,0.2,0.2,0.2h0.8c0.1,0,0.2-0.1,0.2-0.2v-4.8
					C15.5,13.6,15.4,13.5,15.3,13.5z"/>
				<path class="st0" d="M20.7,13.5h-0.8c-0.1,0-0.2,0.1-0.2,0.2v2.9l-2.2-2.9l0,0l0,0l0,0l0,0l0,0l0,0l0,0l0,0l0,0l0,0l0,0l0,0l0,0
					l0,0l0,0l0,0l0,0l0,0l0,0h-0.7c-0.1,0-0.2,0.1-0.2,0.2v4.8c0,0.1,0.1,0.2,0.2,0.2h0.8c0.1,0,0.2-0.1,0.2-0.2v-2.9l2.2,2.9
					c0,0,0,0,0.1,0.1l0,0l0,0l0,0l0,0l0,0l0,0l0,0l0,0c0,0,0,0,0.1,0h0.7c0.1,0,0.2-0.1,0.2-0.2v-4.9C20.8,13.6,20.7,13.5,20.7,13.5
					z"/>
			</g>
		</g>
	</g>
</g>
</svg>
