<?xml version="1.0" encoding="utf-8"?>
<!-- Generator: Adobe Illustrator 27.2.0, SVG Export Plug-In . SVG Version: 6.00 Build 0)  -->
<svg version="1.1" id="_圖層_1" xmlns="http://www.w3.org/2000/svg" xmlns:xlink="http://www.w3.org/1999/xlink" x="0px" y="0px"
	 viewBox="0 0 35 35" style="enable-background:new 0 0 35 35;" xml:space="preserve">
<style type="text/css">
	.st0{fill:#FFFFFF;}
</style>
<g>
	<path class="st0" d="M14.8,27.5l-0.1,1.8c0,0.4,0,0.9,0.1,1.2c0.3,0.7,1.2,1.3,2.1,1.3c0.3,0,0.7,0,0.9-0.1
		c5.2-2.5,9.1-5.4,11.6-8.3c0.4-0.4,1.6-2.2,1.9-2.8c0.6-1,1-2.2,1.2-3.4c0-0.3,0.1-0.7,0.1-1c0-0.4,0-0.9,0-1.2
		c-0.4-6.5-7-11.7-15.2-11.7C9.2,3.2,2.3,8.7,2.3,15.5C2.3,21.4,7.7,26.5,14.8,27.5 M16.8,30c-0.3,0-0.6-0.1-0.7-0.4
		c0-0.1-0.1-0.3,0-0.4l0.3-2.5c0-0.4-0.3-0.7-0.6-0.7l0,0C9.3,25.2,4.2,20.9,4.2,15.4c0-5.9,5.9-10.6,13.3-10.6l0,0
		c7.2,0,13,4.5,13.3,10.1c0,0.3,0,0.7,0,1c0,0.3,0,0.6-0.1,0.9c-0.1,1-0.6,2-1,2.9c-0.3,0.4-1.4,2-1.7,2.5c-2,2.3-5.2,5.1-10.9,7.8
		C17.1,30,16.9,30,16.8,30L16.8,30L16.8,30z"/>
	<path class="st0" d="M9.2,11.8L9.2,11.8c-0.4,0-0.7,0.3-0.7,0.7v5.4c0,0.4,0.3,0.7,0.7,0.7H12c0.4,0,0.7-0.3,0.7-0.7
		s-0.3-0.7-0.7-0.7H9.9v-4.6C9.9,12.1,9.6,11.8,9.2,11.8L9.2,11.8z"/>
	<path class="st0" d="M16.5,11.8L16.5,11.8c-0.4,0-0.7,0.3-0.7,0.7v5.2c0,0.4,0.3,0.7,0.7,0.7s0.7-0.3,0.7-0.7v-3.3l2.8,3.7
		c0.1,0.1,0.3,0.1,0.4,0.1c0.4,0,0.7-0.3,0.7-0.7v-5.2c0-0.4-0.3-0.7-0.7-0.7l0,0c-0.4,0-0.7,0.3-0.7,0.7v3.3l-2.8-3.7
		C16.9,11.9,16.8,11.8,16.5,11.8L16.5,11.8L16.5,11.8z"/>
	<path class="st0" d="M14.2,11.8h-0.3c-0.3,0-0.6,0.3-0.6,0.6V18c0,0.3,0.3,0.6,0.6,0.6h0.3c0.3,0,0.6-0.3,0.6-0.6l0,0v-5.7
		C14.7,12.1,14.5,11.8,14.2,11.8L14.2,11.8z"/>
	<path class="st0" d="M25.8,11.8H23c-0.4,0-0.7,0.3-0.7,0.7v5.4c0,0.4,0.3,0.7,0.7,0.7h2.8c0.4,0,0.7-0.3,0.7-0.7s-0.3-0.7-0.7-0.7
		h-2.1V16h2.1c0.4,0,0.7-0.3,0.7-0.7s-0.3-0.7-0.7-0.7h-2.1v-1.2h2.1c0.4,0,0.7-0.3,0.7-0.7C26.6,12.1,26.3,11.8,25.8,11.8
		L25.8,11.8L25.8,11.8z"/>
</g>
</svg>
